<svg width="70" height="70" viewBox="0 0 70 70" fill="none" xmlns="http://www.w3.org/2000/svg">
<rect width="70" height="70" rx="10" fill="#1C2539"/>
<g clip-path="url(#clip0_9088_7908)">
<path d="M49.1323 31.6016H39.0586C38.735 31.6016 38.4727 31.8639 38.4727 32.1875C38.4727 32.5111 38.735 32.7734 39.0586 32.7734H49.1323C49.4559 32.7734 49.7183 32.5111 49.7183 32.1875C49.7183 31.8639 49.4559 31.6016 49.1323 31.6016Z" fill="white"/>
<path d="M49.1323 34.0469H39.0586C38.735 34.0469 38.4727 34.3092 38.4727 34.6328C38.4727 34.9564 38.735 35.2188 39.0586 35.2188H49.1323C49.4559 35.2188 49.7183 34.9564 49.7183 34.6328C49.7183 34.3092 49.4559 34.0469 49.1323 34.0469Z" fill="white"/>
<path d="M49.1323 36.5H39.0586C38.735 36.5 38.4727 36.7623 38.4727 37.0859C38.4727 37.4095 38.735 37.6719 39.0586 37.6719H49.1323C49.4559 37.6719 49.7183 37.4095 49.7183 37.0859C49.7183 36.7623 49.4559 36.5 49.1323 36.5Z" fill="white"/>
<path d="M46.0934 38.9453H39.0586C38.735 38.9453 38.4727 39.2077 38.4727 39.5312C38.4727 39.8548 38.735 40.1172 39.0586 40.1172H46.0934C46.417 40.1172 46.6794 39.8548 46.6794 39.5312C46.6794 39.2077 46.417 38.9453 46.0934 38.9453Z" fill="white"/>
<path d="M26.7012 29.4923V28.3672C26.7012 28.0436 26.4388 27.7812 26.1152 27.7812C25.7916 27.7812 25.5293 28.0436 25.5293 28.3672V29.4923C25.5293 29.8159 25.7916 30.0783 26.1152 30.0783C26.4388 30.0783 26.7012 29.8159 26.7012 29.4923Z" fill="white"/>
<path d="M31.0059 30.0783C31.3295 30.0783 31.5918 29.8159 31.5918 29.4923V28.3672C31.5918 28.0436 31.3295 27.7812 31.0059 27.7812C30.6823 27.7812 30.4199 28.0436 30.4199 28.3672V29.4923C30.4199 29.8159 30.6822 30.0783 31.0059 30.0783Z" fill="white"/>
<path d="M28.5607 32.2873C28.8843 32.2873 29.1466 32.025 29.1466 31.7014C29.1466 31.3778 28.8843 31.1155 28.5607 31.1155C28.4793 31.1155 28.4131 31.0492 28.4131 30.9679C28.4131 30.8866 28.4793 30.8203 28.5607 30.8203C28.8843 30.8203 29.1466 30.558 29.1466 30.2344C29.1466 29.9108 28.8843 29.6484 28.5607 29.6484C27.8332 29.6484 27.2412 30.2404 27.2412 30.9679C27.2412 31.6954 27.8332 32.2873 28.5607 32.2873Z" fill="white"/>
<path d="M28.5607 35.4749C29.1772 35.4898 29.8222 35.2316 30.2868 34.7812C30.6858 34.3946 30.9049 33.9168 30.9036 33.4359C30.9027 33.1128 30.6405 32.8516 30.3176 32.8516C30.3171 32.8516 30.3165 32.8516 30.316 32.8516C29.9924 32.8524 29.7307 33.1155 29.7316 33.4391C29.732 33.5965 29.6372 33.7789 29.4712 33.9398C29.2291 34.1744 28.8884 34.3137 28.5805 34.3032C28.5673 34.3027 28.554 34.3027 28.5407 34.3032C28.2334 34.3148 27.8921 34.1744 27.65 33.9398C27.4841 33.779 27.3893 33.5965 27.3897 33.4391C27.3905 33.1155 27.129 32.8525 26.8054 32.8516C26.8048 32.8516 26.8043 32.8516 26.8037 32.8516C26.4809 32.8516 26.2187 33.1128 26.2178 33.4359C26.2165 33.9167 26.4354 34.3945 26.8344 34.7812C27.2862 35.2191 27.9074 35.4756 28.5093 35.4756C28.5264 35.4755 28.5436 35.4753 28.5607 35.4749Z" fill="white"/>
<path d="M39.9282 25.9297C39.8399 25.6184 39.5159 25.4375 39.2047 25.5256C38.8934 25.6138 38.7124 25.9377 38.8007 26.2491C39.4682 28.6055 41.6457 30.2513 44.096 30.2513C47.1313 30.2513 49.6006 27.782 49.6006 24.7467C49.6006 21.7115 47.1313 19.2422 44.096 19.2422C41.6721 19.2422 39.501 20.8654 38.8163 23.1895C38.7249 23.4999 38.9024 23.8257 39.2128 23.9171C39.5231 24.0085 39.849 23.8311 39.9403 23.5206C40.4791 21.6915 42.188 20.4141 44.096 20.4141C46.485 20.4141 48.4286 22.3577 48.4286 24.7467C48.4286 27.1358 46.485 29.0794 44.096 29.0794C42.1673 29.0794 40.4534 27.7841 39.9282 25.9297Z" fill="white"/>
<path d="M43.6863 26.7562C43.8362 26.7562 43.9862 26.699 44.1006 26.5845L46.6146 24.0705C46.8434 23.8417 46.8434 23.4707 46.6146 23.2419C46.3858 23.0131 46.0147 23.0131 45.786 23.2419L43.6864 25.3415L42.4065 24.0617C42.1776 23.8329 41.8066 23.8329 41.5779 24.0617C41.349 24.2905 41.349 24.6615 41.5779 24.8903L43.2721 26.5845C43.3864 26.699 43.5364 26.7562 43.6863 26.7562Z" fill="white"/>
<path d="M53.6328 15.5859H34.5588C33.8049 15.5859 33.1916 16.1993 33.1916 16.9531V19.5721C32.748 19.4357 32.2773 19.362 31.7897 19.362H31.4382C30.6986 18.6406 29.689 18.195 28.5768 18.195H24.6545C22.3929 18.195 20.553 20.0349 20.553 22.2966V23.046C20.553 23.3696 20.8153 23.632 21.1389 23.632C21.4625 23.632 21.7248 23.3696 21.7248 23.046V22.2966C21.7248 20.6811 23.0391 19.3669 24.6545 19.3669H28.5768C30.1923 19.3669 31.5065 20.6811 31.5065 22.2966V25.2726H24.5677C23.452 25.2726 22.5324 26.1277 22.4292 27.2169H21.7248V25.7804C21.7248 25.4568 21.4625 25.1945 21.1389 25.1945C20.8153 25.1945 20.553 25.4568 20.553 25.7804V27.4932C19.7491 27.9077 19.1977 28.7459 19.1977 29.7109V30.4813C19.1977 31.8566 20.3166 32.9753 21.6917 32.9753H22.4192V33.5184C22.4192 35.2408 23.4072 36.7358 24.8455 37.4695L24.355 37.7527C23.9702 37.9748 23.7191 38.3723 23.6781 38.81L18.1158 40.6005C16.2521 41.2004 15 42.9189 15 44.8766V53.0452C15 53.799 15.6134 54.4123 16.3672 54.4123H18.3323C18.6559 54.4123 18.9183 54.15 18.9183 53.8264C18.9183 53.5028 18.6559 53.2405 18.3323 53.2405H16.3672C16.2595 53.2405 16.1719 53.1528 16.1719 53.0452V44.8766C16.1719 43.4296 17.0973 42.1595 18.4748 41.716L22.6079 40.3856L20.5327 43.183C20.2301 43.5911 20.294 44.171 20.6783 44.5034L22.4017 45.9939L20.6277 47.5283C20.2987 47.8129 20.1977 48.2867 20.382 48.6806L22.5149 53.2404H21.0667C20.7431 53.2404 20.4808 53.5027 20.4808 53.8263C20.4808 54.1499 20.7431 54.4123 21.0667 54.4123H43.559C44.3128 54.4123 44.9262 53.7989 44.9262 53.0451V48.2008L46.2456 46.8813H53.6328C54.3866 46.8813 55 46.268 55 45.5141V16.9531C55 16.1993 54.3866 15.5859 53.6328 15.5859ZM22.4191 31.8035H21.6916C20.9626 31.8035 20.3695 31.2104 20.3695 30.4814V29.7109C20.3695 28.9819 20.9627 28.3888 21.6916 28.3888H22.4191V31.8035ZM23.6714 52.9473L21.5059 48.318L23.6714 46.4451V52.9473ZM23.6714 44.8958L23.2973 45.2193L21.5819 43.7356L23.6714 40.9189V44.8958ZM35.3966 24.1409V27.217H34.6923C34.593 26.1685 33.7373 25.3373 32.6783 25.2765V22.2966C32.6783 21.68 32.5407 21.0952 32.2959 20.5701C34.0459 20.817 35.3966 22.3238 35.3966 24.1409ZM35.4297 28.3887C36.1588 28.3887 36.7518 28.9818 36.7518 29.7109V30.4813C36.7518 31.2104 36.1587 31.8034 35.4297 31.8034H34.7022V28.3887H35.4297ZM23.591 33.5184V27.421C23.591 26.8825 24.0291 26.4445 24.5676 26.4445H32.5538C33.0923 26.4445 33.5303 26.8825 33.5303 27.421V33.5184C33.5303 35.3169 32.0672 36.7799 30.2688 36.7799H26.8525C25.0541 36.7799 23.591 35.3168 23.591 33.5184ZM35.543 43.7327L33.8241 45.2193L33.45 44.8958V40.8616L35.543 43.7327ZM30.5138 37.9447V38.4638L28.5607 40.0295L26.6076 38.4639V37.9448C26.6887 37.9492 26.7703 37.9519 26.8525 37.9519H30.2688C30.3511 37.9518 30.4327 37.9491 30.5138 37.9447ZM24.8433 38.9367C24.8433 38.8672 24.8807 38.8023 24.9409 38.7676L25.4357 38.482V38.5577C25.4357 38.8555 25.5691 39.1334 25.8015 39.3196L27.9499 41.0417C27.9729 41.0602 27.9966 41.0773 28.0206 41.0934L24.8433 43.1104V38.9367ZM25.8807 53.2405H24.8433V44.4984L26.0093 43.7582L26.8824 44.7222L25.8807 53.2405ZM27.0606 53.2405L27.9282 45.8632C28.1038 46.0125 28.3279 46.097 28.5607 46.097C28.7935 46.097 29.0177 46.0124 29.1931 45.8631L30.0607 53.2405H27.0606ZM28.5607 44.8295L27.0133 43.1209L28.5608 42.1386L30.1083 43.1209L28.5607 44.8295ZM32.2781 53.2405H31.2407L30.239 44.7222L31.112 43.7583L32.2781 44.4985V53.2405ZM32.2781 43.1104L29.1008 41.0934C29.1248 41.0773 29.1485 41.0602 29.1715 41.0417L31.3198 39.3197C31.5524 39.1334 31.6858 38.8556 31.6858 38.5577V38.482L32.1805 38.7676C32.2408 38.8023 32.2782 38.8672 32.2782 38.9367L32.2781 43.1104ZM33.1916 38.1387C33.0804 37.9836 32.9366 37.8509 32.7665 37.7527L32.2759 37.4695C32.6074 37.3005 32.9145 37.0905 33.1916 36.8472V38.1387ZM33.45 46.4452L35.6116 48.3147L33.45 52.8092V46.4452ZM37.5927 47.9168V53.2405H34.543L36.7325 48.688C36.9231 48.2917 36.824 47.8139 36.4913 47.5261L34.7198 45.994L36.4454 44.5015C36.8266 44.1719 36.8926 43.5947 36.5957 43.1875L34.5652 40.4023L38.6465 41.716C39.8542 42.1048 40.7143 43.1291 40.908 44.3509C39.0576 44.4852 37.5927 46.0327 37.5927 47.9168ZM43.7543 53.0452C43.7543 53.1528 43.6666 53.2405 43.559 53.2405H38.7645V48.5441H43.7543V53.0452ZM46.3955 45.0743L44.0975 47.3723H38.8267C39.0741 46.3078 40.0305 45.5122 41.1691 45.5122H43.5578C43.7132 45.5122 43.8623 45.4505 43.9721 45.3405L45.3169 43.9958C45.6143 43.6985 46.098 43.6984 46.3954 43.9958C46.5395 44.1398 46.6187 44.3313 46.6187 44.535C46.6187 44.7388 46.5395 44.9302 46.3955 45.0743ZM53.8281 45.5142C53.8281 45.6219 53.7405 45.7095 53.6328 45.7095H47.3931C47.6508 45.3738 47.7908 44.9652 47.7908 44.535C47.7908 44.0183 47.5895 43.5324 47.2241 43.1671C46.4699 42.4128 45.2426 42.4129 44.4884 43.1671L43.3152 44.3403H42.0897C41.8845 42.6106 40.697 41.1449 39.0057 40.6005L34.3634 39.1063V35.2166C34.5815 34.6934 34.7023 34.1198 34.7023 33.5184V32.9754H35.4298C36.805 32.9754 37.9238 31.8566 37.9238 30.4814V29.7109C37.9238 28.7459 37.3724 27.9078 36.5686 27.4933V24.1409C36.5686 22.453 35.6883 20.9679 34.3634 20.1174V16.9531C34.3634 16.8455 34.4511 16.7578 34.5588 16.7578H53.6328C53.7405 16.7578 53.8281 16.8455 53.8281 16.9531V45.5142Z" fill="white"/>
<path d="M49.1327 38.9453H47.9688C47.6452 38.9453 47.3828 39.2077 47.3828 39.5312C47.3828 39.8548 47.6452 40.1172 47.9688 40.1172H49.1327C49.4563 40.1172 49.7186 39.8548 49.7186 39.5312C49.7186 39.2077 49.4563 38.9453 49.1327 38.9453Z" fill="white"/>
</g>
<defs>
<clipPath id="clip0_9088_7908">
<rect width="40" height="40" fill="white" transform="translate(15 15)"/>
</clipPath>
</defs>
</svg>
