<svg width="70" height="70" viewBox="0 0 70 70" fill="none" xmlns="http://www.w3.org/2000/svg">
<rect width="70" height="70" rx="10" fill="#20282D"/>
<g clip-path="url(#clip0_9088_7947)">
<path d="M39.4969 44.0801L39.891 43.2916L38.3206 41.7213L37.5328 42.1154C37.1711 41.9109 36.7884 41.7521 36.3889 41.6413L36.1104 40.8065H33.8896L33.6117 41.6419C33.2123 41.7528 32.8298 41.9115 32.4679 42.116L31.68 41.7219L30.1096 43.2923L30.5037 44.0808C30.2993 44.4427 30.1405 44.8252 30.029 45.2246L29.1935 45.5025V47.7227L30.0284 48.0012C30.1392 48.4006 30.298 48.7831 30.5031 49.145L30.109 49.9329L31.6794 51.5039L32.4672 51.1098C32.8289 51.3143 33.2116 51.473 33.6111 51.5839L33.8896 52.4194H36.1104L36.3883 51.5839C36.7877 51.473 37.1702 51.3143 37.5321 51.1098L38.32 51.5039L39.8904 49.9329L39.4963 49.145C39.7007 48.7824 39.8595 48.4006 39.971 48.0012L40.8065 47.7234V45.5031L39.9716 45.2246C39.8601 44.8252 39.7014 44.4418 39.4969 44.0801ZM39.5161 46.7928L38.8684 47.0083L38.7947 47.3756C38.6961 47.8698 38.5033 48.3335 38.2227 48.7554L38.0147 49.0666L38.3206 49.6781L38.0658 49.9335L37.455 49.627L37.1431 49.8349C36.7219 50.1162 36.2576 50.3078 35.7633 50.407L35.396 50.4801L35.1799 51.129H34.8201L34.604 50.4807L34.2367 50.4076C33.7424 50.309 33.2787 50.1169 32.8569 49.8356L32.545 49.6276L31.9342 49.9342L31.6794 49.6787L31.9853 49.0672L31.7773 48.756C31.496 48.3348 31.3039 47.8705 31.2053 47.3762L31.1316 47.0089L30.4839 46.7928V46.4324L31.1316 46.2169L31.2053 45.8496C31.3039 45.3547 31.4967 44.891 31.7773 44.4698L31.9853 44.1586L31.6794 43.5465L31.9342 43.2916L32.545 43.5982L32.8569 43.3902C33.2781 43.1089 33.7424 42.9174 34.2367 42.8182L34.604 42.7451L34.8201 42.0968H35.1799L35.396 42.7451L35.7633 42.8182C36.2576 42.9168 36.7213 43.1089 37.1431 43.3902L37.455 43.5982L38.0658 43.2916L38.3206 43.5465L38.0147 44.1586L38.2227 44.4698C38.504 44.8904 38.6961 45.3547 38.7947 45.8496L38.8684 46.2169L39.5161 46.433V46.7928ZM35 44.0323C33.5767 44.0323 32.4194 45.1896 32.4194 46.6129C32.4194 48.0362 33.5767 49.1936 35 49.1936C36.4233 49.1936 37.5806 48.0362 37.5806 46.6129C37.5806 45.1896 36.4233 44.0323 35 44.0323ZM35 47.9032C34.2884 47.9032 33.7097 47.3245 33.7097 46.6129C33.7097 45.9013 34.2884 45.3226 35 45.3226C35.7116 45.3226 36.2903 45.9013 36.2903 46.6129C36.2903 47.3245 35.7116 47.9032 35 47.9032ZM50.0819 28.9762C50.7214 28.3865 51.129 27.5491 51.129 26.6129V25.3226C51.129 23.544 49.6818 22.0968 47.9032 22.0968C46.1246 22.0968 44.6774 23.544 44.6774 25.3226V26.6129C44.6774 27.5491 45.0851 28.3865 45.7245 28.9762C43.791 29.7625 42.3737 31.5594 42.1349 33.7097H42.0968V26.6129H40.7683C40.5296 24.4626 39.1123 22.6657 37.1787 21.8794C37.8182 21.2897 38.2258 20.4524 38.2258 19.5161V18.2258C38.2258 16.4472 36.7786 15 35 15C33.2214 15 31.7742 16.4472 31.7742 18.2258V19.5161C31.7742 20.4524 32.1818 21.2897 32.8213 21.8794C30.8877 22.6657 29.4705 24.4626 29.2317 26.6129H27.9032V33.7097H27.8651C27.6263 31.5594 26.209 29.7625 24.2755 28.9762C24.9149 28.3865 25.3226 27.5491 25.3226 26.6129V25.3226C25.3226 23.544 23.8754 22.0968 22.0968 22.0968C20.3182 22.0968 18.871 23.544 18.871 25.3226V26.6129C18.871 27.5491 19.2786 28.3865 19.9181 28.9762C17.9845 29.7625 16.5672 31.5594 16.3284 33.7097H15V46.6129H26.6129C26.6129 51.2374 30.3755 55 35 55C39.6245 55 43.3871 51.2374 43.3871 46.6129H55V33.7097H53.6716C53.4328 31.5594 52.0155 29.7625 50.0819 28.9762ZM45.9677 26.6129V25.3226C45.9677 24.2556 46.8363 23.3871 47.9032 23.3871C48.9702 23.3871 49.8387 24.2556 49.8387 25.3226V26.6129C49.8387 27.6799 48.9702 28.5484 47.9032 28.5484C46.8363 28.5484 45.9677 27.6799 45.9677 26.6129ZM47.9032 29.8387C50.1736 29.8387 52.053 31.525 52.3677 33.7097H43.4388C43.7535 31.525 45.6329 29.8387 47.9032 29.8387ZM33.0645 19.5161V18.2258C33.0645 17.1588 33.933 16.2903 35 16.2903C36.067 16.2903 36.9355 17.1588 36.9355 18.2258V19.5161C36.9355 20.5831 36.067 21.4516 35 21.4516C33.933 21.4516 33.0645 20.5831 33.0645 19.5161ZM35 22.7419C37.2704 22.7419 39.1498 24.4282 39.4645 26.6129H30.5355C30.8502 24.4282 32.7297 22.7419 35 22.7419ZM20.1613 26.6129V25.3226C20.1613 24.2556 21.0298 23.3871 22.0968 23.3871C23.1637 23.3871 24.0323 24.2556 24.0323 25.3226V26.6129C24.0323 27.6799 23.1637 28.5484 22.0968 28.5484C21.0298 28.5484 20.1613 27.6799 20.1613 26.6129ZM22.0968 29.8387C24.3671 29.8387 26.2465 31.525 26.5612 33.7097H17.6323C17.947 31.525 19.8264 29.8387 22.0968 29.8387ZM35 53.7097C31.0871 53.7097 27.9032 50.5258 27.9032 46.6129C27.9032 42.7 31.0871 39.5161 35 39.5161C38.9129 39.5161 42.0968 42.7 42.0968 46.6129C42.0968 50.5258 38.9129 53.7097 35 53.7097ZM53.7097 45.3226H43.2775C42.6534 41.3102 39.185 38.2258 35 38.2258C30.815 38.2258 27.3466 41.3102 26.7225 45.3226H16.2903V35H27.9032V38.871H29.1935V27.9032H40.8065V38.871H42.0968V35H53.7097V45.3226ZM33.0645 29.1935H36.9355V30.4839H35.6452V35.6452H36.9355V36.9355H33.0645V35.6452H34.3548V30.4839H33.0645V29.1935ZM18.871 37.5806H20.1613V42.7419H18.871V44.0323H25.3226V42.7419H24.0323V37.5806H25.3226V36.2903H18.871V37.5806ZM22.7419 42.7419H21.4516V37.5806H22.7419V42.7419ZM43.3871 42.7419V44.0323H52.4194V42.7419H51.129V37.5806H52.4194V36.2903H43.3871V37.5806H44.6774V42.7419H43.3871ZM49.8387 42.7419H48.5484V37.5806H49.8387V42.7419ZM45.9677 37.5806H47.2581V42.7419H45.9677V37.5806Z" fill="white"/>
</g>
<defs>
<clipPath id="clip0_9088_7947">
<rect width="40" height="40" fill="white" transform="translate(15 15)"/>
</clipPath>
</defs>
</svg>
