<svg width="70" height="70" viewBox="0 0 70 70" fill="none" xmlns="http://www.w3.org/2000/svg">
<rect width="70" height="70" rx="10" fill="#20282D"/>
<g clip-path="url(#clip0_9088_7957)">
<path d="M41.7088 20.625H40.7125L36.8694 19.5269C36.5675 19.4406 36.255 19.4056 35.9412 19.3938L33.1138 18.4894C31.825 18.0769 30.4306 18.0137 29.1087 18.3075L24.9688 19.2281L19.5644 15.625H15.625V24.8125L22.855 27.4419L25.0063 28.7325C25.0369 29.7575 25.8587 30.5819 26.8825 30.6181C26.9187 31.6381 27.7375 32.4569 28.7575 32.4931C28.7881 33.3506 29.3725 34.0625 30.1656 34.2906C26.6194 36.0963 24.375 39.7075 24.375 43.75C24.375 49.6087 29.1413 54.375 35 54.375C40.8587 54.375 45.625 49.6087 45.625 43.75C45.625 39.4175 43.0644 35.6219 39.1519 33.9725C39.2863 33.7163 39.3687 33.43 39.3725 33.1225C40.4019 33.1094 41.2356 32.275 41.2475 31.2456C42.2862 31.2206 43.125 30.3719 43.125 29.3275C43.125 29.2562 43.1106 29.1875 43.1025 29.1169L45.8819 27.4494L54.375 24.8369V15.625H50.4588L41.7088 20.625ZM16.875 23.9375V16.875H19.1856L24.2781 20.27L22.7 26.0556L16.875 23.9375ZM26.25 28.6744C26.25 28.4869 26.3231 28.3113 26.455 28.1788L28.1788 26.455C28.3113 26.3231 28.4869 26.25 28.6744 26.25C29.0606 26.25 29.375 26.5644 29.375 26.9506C29.375 27.1381 29.3019 27.3137 29.17 27.4462L27.4462 29.17C27.3137 29.3019 27.1381 29.375 26.9506 29.375C26.5644 29.375 26.25 29.0606 26.25 28.6744ZM28.125 30.5494C28.125 30.3619 28.1981 30.1863 28.33 30.0538L30.0538 28.33C30.1863 28.1981 30.3619 28.125 30.5494 28.125C30.9356 28.125 31.25 28.4394 31.25 28.8256C31.25 29.0131 31.1769 29.1887 31.045 29.3212L29.3212 31.045C29.1887 31.1769 29.0131 31.25 28.8256 31.25C28.4394 31.25 28.125 30.9356 28.125 30.5494ZM30.205 31.9288L31.9288 30.205C32.0613 30.0731 32.2369 30 32.4244 30C32.8106 30 33.125 30.3144 33.125 30.7006C33.125 30.8881 33.0519 31.0637 32.92 31.1962L31.1962 32.92C31.0637 33.0519 30.8881 33.125 30.7006 33.125C30.3144 33.125 30 32.8106 30 32.4244C30 32.2369 30.0731 32.0613 30.205 31.9288ZM34.2994 31.875C34.6856 31.875 35 32.1894 35 32.5756C35 32.7631 34.9269 32.9387 34.795 33.0712L33.0712 34.795C32.9387 34.9269 32.7631 35 32.5756 35C32.1894 35 31.875 34.6856 31.875 34.2994C31.875 34.1119 31.9481 33.9363 32.08 33.8038L33.8038 32.08C33.9363 31.9481 34.1119 31.875 34.2994 31.875ZM35.55 34.0844L36.0156 34.4725C36.1644 34.5963 36.25 34.7788 36.25 34.9731C36.25 35.3325 35.9575 35.625 35.5981 35.625H35.4825C35.3237 35.625 35.1706 35.5669 35.0513 35.4619L34.5837 35.0494L35.55 34.0844ZM35 36.875C38.7906 36.875 41.875 39.9594 41.875 43.75C41.875 47.5406 38.7906 50.625 35 50.625C31.2094 50.625 28.125 47.5406 28.125 43.75C28.125 39.9594 31.2094 36.875 35 36.875ZM44.375 43.75C44.375 48.9194 40.1694 53.125 35 53.125C29.8306 53.125 25.625 48.9194 25.625 43.75C25.625 40.1138 27.6812 36.8706 30.9156 35.31C31.1744 35.7331 31.5869 36.0469 32.0775 36.1775C29.0387 37.3544 26.875 40.3006 26.875 43.75C26.875 48.23 30.52 51.875 35 51.875C39.48 51.875 43.125 48.23 43.125 43.75C43.125 40.0419 40.6256 36.9131 37.2256 35.9425C37.3919 35.6644 37.4931 35.3438 37.4975 34.9975C37.6969 34.995 37.8863 34.9556 38.0669 34.8956C41.8525 36.2013 44.375 39.7106 44.375 43.75ZM41.2025 30H41.0944C40.9375 30 40.7844 29.945 40.6644 29.8444L40.5656 29.7619L37.275 27.02L36.475 27.98L39.7656 30.7219C39.9144 30.8469 40 31.0294 40 31.2231C40 31.5825 39.7075 31.875 39.3481 31.875H39.2125C39.06 31.875 38.9119 31.8212 38.795 31.7237L38.6906 31.6369L35.4 28.895L34.6 29.855L37.8906 32.5969C38.0394 32.7213 38.125 32.9038 38.125 33.0981C38.125 33.4575 37.8325 33.75 37.4731 33.75C37.2331 33.75 37 33.6656 36.8156 33.5119L36.2006 32.9994C36.2306 32.8612 36.25 32.7206 36.25 32.5756C36.25 31.5231 35.4113 30.6687 34.3681 30.6319C34.3319 29.6119 33.5131 28.7931 32.4931 28.7569C32.4569 27.7369 31.6381 26.9181 30.6181 26.8819C30.5813 25.8387 29.7262 25 28.6744 25C28.1531 25 27.6631 25.2031 27.295 25.5712L25.5712 27.295C25.505 27.3613 25.4506 27.435 25.3956 27.5087L23.8525 26.5831L25.5438 20.3806L29.3794 19.5281C30.4869 19.2825 31.6537 19.3356 32.7325 19.6806L33.6525 19.975L30.5319 21.535C29.8181 21.8919 29.375 22.6094 29.375 23.4075V23.5319C29.375 24.6862 30.3138 25.625 31.4681 25.625C31.8475 25.625 32.22 25.5219 32.5456 25.3263L34.8725 23.93C35.3369 23.6506 35.9681 23.7113 36.3713 24.0744L41.6525 28.8275C41.7938 28.9556 41.875 29.1375 41.875 29.3275C41.875 29.6987 41.5737 30 41.2025 30ZM42.4887 27.8994L37.2075 23.1463C36.4056 22.4244 35.1538 22.3038 34.2288 22.8588L31.9019 24.255C31.7712 24.3337 31.6213 24.375 31.4681 24.375C31.0031 24.375 30.625 23.9969 30.625 23.5319V23.4075C30.625 23.0856 30.8038 22.7969 31.0913 22.6531L34.5781 20.91C35.1763 20.6113 35.885 20.5456 36.5263 20.7288L40.4538 21.8506L41.5375 21.8687L44.7419 26.6756L42.5644 27.9819C42.5375 27.9563 42.5169 27.9244 42.4887 27.8994ZM53.125 16.875V23.9131L45.8862 26.1406L42.7662 21.4606L50.7912 16.875H53.125ZM31.875 45.625V45H33.125V45.625C33.125 46.3144 33.6856 46.875 34.375 46.875H35.625C36.3144 46.875 36.875 46.3144 36.875 45.625C36.875 44.9356 36.3144 44.375 35.625 44.375H34.375C32.9963 44.375 31.875 43.2537 31.875 41.875C31.875 40.4963 32.9963 39.375 34.375 39.375V38.125H35.625V39.375C37.0037 39.375 38.125 40.4963 38.125 41.875H36.875C36.875 41.1856 36.3144 40.625 35.625 40.625H34.375C33.6856 40.625 33.125 41.1856 33.125 41.875C33.125 42.5644 33.6856 43.125 34.375 43.125H35.625C37.0037 43.125 38.125 44.2463 38.125 45.625C38.125 47.0037 37.0037 48.125 35.625 48.125V49.375H34.375V48.125C32.9963 48.125 31.875 47.0031 31.875 45.625ZM50 48.75H48.75V35.625L46.125 39.125L45.125 38.375L49.375 32.7087L53.625 38.375L52.625 39.125L50 35.625V48.75ZM48.75 50H50V51.25H48.75V50ZM21.25 48.75H20V35.625L17.375 39.125L16.375 38.375L20.625 32.7081L24.875 38.3744L23.875 39.1244L21.25 35.625V48.75ZM20 50H21.25V51.25H20V50Z" fill="white"/>
</g>
<defs>
<clipPath id="clip0_9088_7957">
<rect width="40" height="40" fill="white" transform="translate(15 15)"/>
</clipPath>
</defs>
</svg>
