<svg width="70" height="70" viewBox="0 0 70 70" fill="none" xmlns="http://www.w3.org/2000/svg">
<rect width="70" height="70" rx="10" fill="#20282D"/>
<g clip-path="url(#clip0_9088_7967)">
<path d="M34.375 33.7497C34.375 33.4047 34.655 33.1247 35 33.1247C35.345 33.1247 35.625 33.4047 35.625 33.7497C35.625 34.0947 35.345 34.3747 35 34.3747C34.655 34.3747 34.375 34.0947 34.375 33.7497ZM31.9381 34.3747H30.51C30.2513 35.1003 29.5638 35.6247 28.75 35.6247C27.7163 35.6247 26.875 34.7834 26.875 33.7497C26.875 32.7159 27.7163 31.8747 28.75 31.8747C29.5638 31.8747 30.2513 32.3991 30.51 33.1247H31.9381C32.2288 31.7003 33.4906 30.6247 35 30.6247C35.6356 30.6247 36.2262 30.8178 36.7206 31.1453L38.6456 29.2203C38.3181 28.7259 38.125 28.1353 38.125 27.4997C38.125 25.7766 39.5269 24.3747 41.25 24.3747C42.9731 24.3747 44.375 25.7766 44.375 27.4997C44.375 29.2228 42.9731 30.6247 41.25 30.6247C40.6144 30.6247 40.0238 30.4316 39.5294 30.1041L37.6044 32.0291C37.9319 32.5228 38.125 33.1141 38.125 33.7497C38.125 35.4728 36.7231 36.8747 35 36.8747C33.4912 36.8747 32.2288 35.7991 31.9381 34.3747ZM39.375 27.4997C39.375 28.5334 40.2162 29.3747 41.25 29.3747C42.2838 29.3747 43.125 28.5334 43.125 27.4997C43.125 26.4659 42.2838 25.6247 41.25 25.6247C40.2162 25.6247 39.375 26.4659 39.375 27.4997ZM33.125 33.7497C33.125 34.7834 33.9662 35.6247 35 35.6247C36.0338 35.6247 36.875 34.7834 36.875 33.7497C36.875 32.7159 36.0338 31.8747 35 31.8747C33.9662 31.8747 33.125 32.7159 33.125 33.7497ZM29.375 33.7497C29.375 33.4053 29.095 33.1247 28.75 33.1247C28.405 33.1247 28.125 33.4053 28.125 33.7497C28.125 34.0941 28.405 34.3747 28.75 34.3747C29.095 34.3747 29.375 34.0941 29.375 33.7497ZM41.25 28.1247C41.595 28.1247 41.875 27.8447 41.875 27.4997C41.875 27.1547 41.595 26.8747 41.25 26.8747C40.905 26.8747 40.625 27.1547 40.625 27.4997C40.625 27.8447 40.905 28.1247 41.25 28.1247ZM21.875 54.3747H23.125V44.3747H24.8781L20.625 37.5703L16.3719 44.3747H18.125V49.3747H19.375V43.1247H18.6281L20.625 39.9291L22.6219 43.1247H21.875V54.3747ZM18.125 54.3747H19.375V50.6247H18.125V54.3747ZM50.625 31.8747H51.875V21.8747H53.6281L49.375 15.0703L45.1219 21.8747H46.875V23.1247H48.125V20.6247H47.3781L49.375 17.4291L51.3719 20.6247H50.625V31.8747ZM53.7594 41.2428L54.375 41.3453V46.1547L53.7562 46.2572C53.1469 46.3591 52.6419 46.7609 52.405 47.3322C52.1675 47.9066 52.2406 48.5509 52.6019 49.0566L52.9637 49.5628L49.5631 52.9634L49.055 52.6009C48.55 52.2397 47.9062 52.1672 47.335 52.4041C46.7612 52.6416 46.3581 53.1478 46.2562 53.7597L46.1562 54.3747H41.3469L41.2425 53.7559C41.1412 53.1453 40.74 52.6409 40.1694 52.4047C39.9181 52.3009 39.6481 52.2572 39.3775 52.2741C38.3456 53.5534 36.7675 54.3747 35 54.3747C31.8981 54.3747 29.375 51.8509 29.375 48.7497V48.1247C29.375 47.4353 29.9356 46.8747 30.625 46.8747H34.8088C34.5406 46.5534 34.1706 46.3284 33.7431 46.2572L33.125 46.1547V45.6247H30.625C29.9356 45.6247 29.375 45.0641 29.375 44.3747V42.8859L28.6263 42.5116C24.5363 40.4666 21.9744 36.3909 21.8837 31.8353H21.875C21.875 31.6016 21.7331 31.3928 21.5144 31.3028C21.2788 31.2059 21.0325 31.2534 20.8675 31.4178L19.9556 32.3291L16.4206 28.7941L17.3312 27.8822C17.4969 27.7172 17.5444 27.4697 17.4538 27.2516C17.3569 27.0166 17.1481 26.8747 16.9144 26.8747H15.625V21.8747H16.9144C17.1475 21.8747 17.3562 21.7328 17.4469 21.5141C17.5437 21.2791 17.4963 21.0316 17.3312 20.8672L16.42 19.9547L19.955 16.4197L20.8675 17.3309C21.0319 17.4953 21.2787 17.5428 21.4987 17.4528C21.7331 17.3566 21.875 17.1478 21.875 16.9141V15.6247H26.875V16.9141C26.875 17.1478 27.0169 17.3566 27.2356 17.4466C27.4712 17.5428 27.7175 17.4966 27.8825 17.3316L28.7944 16.4203L31.9487 19.5747C32.645 19.4509 33.3575 19.3747 34.0881 19.3747H35.9119C40.7269 19.3747 44.8875 22.1822 46.875 26.2397V24.3747H48.125V31.8747H48.115C48.0887 33.0103 47.9106 34.1147 47.5912 35.1659C48.0931 35.2916 48.6237 35.2066 49.055 34.8997L49.5631 34.5366L52.9631 37.9372L52.6006 38.4447C52.2406 38.9497 52.1669 39.5922 52.4038 40.1647C52.6413 40.7378 53.1481 41.1409 53.7594 41.2428ZM40.625 48.1247V48.4228C41.5506 49.0441 42.6231 49.3747 43.75 49.3747C46.8519 49.3747 49.375 46.8509 49.375 43.7497C49.375 41.4672 48.0137 39.4416 45.9425 38.5678C45.6938 38.9253 45.4237 39.2678 45.1362 39.5972C46.8831 40.1747 48.125 41.8109 48.125 43.7497C48.125 46.1622 46.1619 48.1247 43.75 48.1247C41.9819 48.1247 40.4587 47.0678 39.7694 45.5547C39.645 45.5966 39.5138 45.6247 39.375 45.6247H38.4513C38.6069 46.0653 38.8187 46.4822 39.0819 46.8747H39.375C40.0644 46.8747 40.625 47.4353 40.625 48.1247ZM41.875 33.1247H40.625V41.4884L40.815 41.3934C41.1838 41.2091 41.535 41.0009 41.875 40.7816V33.1247ZM40.625 43.7497C40.625 45.4728 42.0269 46.8747 43.75 46.8747C45.4731 46.8747 46.875 45.4728 46.875 43.7497C46.875 42.1378 45.67 40.8309 44.0956 40.6578C43.2888 41.3822 42.3788 42.0091 41.3738 42.5116L40.625 42.8859V43.7497ZM21.9694 30.1391C22.0213 29.7047 22.0975 29.2791 22.1931 28.8597C20.4906 28.0303 19.375 26.2984 19.375 24.3747C19.375 21.6178 21.6181 19.3747 24.375 19.3747C25.7712 19.3747 27.1069 19.9697 28.0475 20.9872C28.8231 20.5434 29.6475 20.1766 30.5169 19.9103L28.7944 18.1878L28.7662 18.2159C28.2437 18.7384 27.4619 18.8928 26.7737 18.6084C26.0706 18.3197 25.625 17.6566 25.625 16.9141V16.8747H23.125V16.9141C23.125 17.6566 22.6794 18.3197 21.9894 18.6028C21.2881 18.8916 20.5069 18.7384 19.9837 18.2153L19.9556 18.1878L18.1881 19.9553L18.2162 19.9834C18.7394 20.5066 18.8938 21.2884 18.6088 21.9759C18.32 22.6791 17.6569 23.1247 16.9144 23.1247H16.875V25.6247H16.9144C17.6569 25.6247 18.3194 26.0703 18.6025 26.7603C18.8931 27.4603 18.7387 28.2428 18.215 28.7659L18.1875 28.7934L19.955 30.5616L19.9831 30.5334C20.505 30.0128 21.2831 29.8584 21.9694 30.1391ZM25.0887 23.3603C24.8813 23.2141 24.6369 23.1247 24.375 23.1247C23.6856 23.1247 23.125 23.6853 23.125 24.3747C23.125 24.7628 23.3144 25.1159 23.6081 25.3491C24.0344 24.6353 24.5306 23.9703 25.0887 23.3603ZM26.9725 21.6816C26.2788 21.0147 25.3481 20.6247 24.375 20.6247C22.3069 20.6247 20.625 22.3066 20.625 24.3747C20.625 25.7428 21.3756 26.9853 22.5419 27.6416C22.68 27.2391 22.8387 26.8472 23.0169 26.4647C22.3231 26.0103 21.875 25.2291 21.875 24.3747C21.875 22.9959 22.9963 21.8747 24.375 21.8747C24.9762 21.8747 25.5437 22.0922 25.9894 22.4709C26.3038 22.1916 26.6306 21.9278 26.9725 21.6816ZM29.375 41.4884V38.1247H28.125V40.7816C28.4656 41.0016 28.8162 41.2091 29.185 41.3934L29.375 41.4884ZM30.625 36.8747V44.3747H33.125V38.1247H36.875V44.3747H39.375V31.8747H43.125V39.8428C45.4825 37.7941 46.875 34.8191 46.875 31.5878C46.875 25.5428 41.9569 20.6247 35.9119 20.6247H34.0881C28.0431 20.6247 23.125 25.5428 23.125 31.5878C23.125 34.8191 24.5175 37.7941 26.875 39.8428V36.8747H30.625ZM35.625 39.3747H34.375V44.3747H35.625V39.3747ZM36.2562 46.8747H37.6375C37.4325 46.4741 37.2663 46.0559 37.1437 45.6247H35.2919C35.7037 45.9422 36.0425 46.3534 36.25 46.8541C36.2525 46.8609 36.2537 46.8678 36.2562 46.8747ZM39.375 48.7497V48.1247H30.625V48.7497C30.625 51.1622 32.5881 53.1247 35 53.1247C37.4119 53.1247 39.375 51.1622 39.375 48.7497ZM53.125 42.3722C52.28 42.1034 51.5956 41.4797 51.2487 40.6428C50.9025 39.8066 50.9463 38.8822 51.3531 38.0941L49.405 36.1459C48.7119 36.5041 47.9125 36.5797 47.1606 36.3566C46.9956 36.7472 46.81 37.1278 46.6056 37.4984C49.0369 38.6059 50.625 41.0266 50.625 43.7497C50.625 47.5403 47.5406 50.6247 43.75 50.6247C42.6069 50.6247 41.5081 50.3472 40.52 49.8191C40.4338 50.2641 40.2931 50.6891 40.1081 51.0903C40.2913 51.1291 40.4719 51.1778 40.6469 51.2503C41.4831 51.5966 42.105 52.2803 42.3731 53.1253H45.1275C45.3969 52.2797 46.0206 51.5953 46.8569 51.2497C47.6931 50.9028 48.6175 50.9466 49.405 51.3541L51.3538 49.4059C50.9469 48.6172 50.9031 47.6922 51.25 46.8553C51.5962 46.0191 52.28 45.3966 53.125 45.1278V42.3722Z" fill="white"/>
</g>
<defs>
<clipPath id="clip0_9088_7967">
<rect width="40" height="40" fill="white" transform="translate(15 15)"/>
</clipPath>
</defs>
</svg>
