<svg width="70" height="70" viewBox="0 0 70 70" fill="none" xmlns="http://www.w3.org/2000/svg">
<rect width="70" height="70" rx="10" fill="#20282D"/>
<g clip-path="url(#clip0_9088_7976)">
<path d="M27.5 41.875V41.8156C27.5 41.1587 26.9662 40.625 26.3094 40.625H26.1912C25.5338 40.625 25 41.1587 25 41.8156C25 42.3287 25.3269 42.7831 25.815 42.9463L27.0806 43.3687C28.0794 43.7013 28.75 44.6319 28.75 45.6844C28.75 46.8344 27.9475 47.7956 26.875 48.0525V49.375H25.625V48.0519C24.5525 47.795 23.75 46.8344 23.75 45.6838V45H25V45.6844C25 46.3413 25.5338 46.875 26.1906 46.875H26.3088C26.9662 46.875 27.5 46.3413 27.5 45.6844C27.5 45.1713 27.1731 44.7169 26.685 44.5537L25.4194 44.1313C24.4206 43.7987 23.75 42.8681 23.75 41.8156C23.75 40.6656 24.5525 39.7044 25.625 39.4475V38.125H26.875V39.4481C27.9475 39.705 28.75 40.6656 28.75 41.8162L27.5 41.875ZM34.375 43.75C34.375 48.23 30.73 51.875 26.25 51.875C21.77 51.875 18.125 48.23 18.125 43.75C18.125 39.27 21.77 35.625 26.25 35.625C30.73 35.625 34.375 39.27 34.375 43.75ZM33.125 43.75C33.125 39.9594 30.0406 36.875 26.25 36.875C22.4594 36.875 19.375 39.9594 19.375 43.75C19.375 47.5406 22.4594 50.625 26.25 50.625C30.0406 50.625 33.125 47.5406 33.125 43.75ZM42.0631 42.9469L40.1831 41.0669L41.0669 40.1831L42.9469 42.0631C43.1912 41.9456 43.4613 41.875 43.75 41.875C44.7838 41.875 45.625 42.7162 45.625 43.75C45.625 44.5637 45.1006 45.2513 44.375 45.51V46.875H43.125V45.51C42.3994 45.2513 41.875 44.5637 41.875 43.75C41.875 43.4613 41.9456 43.1912 42.0631 42.9469ZM43.125 43.75C43.125 44.095 43.405 44.375 43.75 44.375C44.095 44.375 44.375 44.095 44.375 43.75C44.375 43.405 44.095 43.125 43.75 43.125C43.405 43.125 43.125 43.405 43.125 43.75ZM54.375 43.75C54.375 49.6087 49.6087 54.375 43.75 54.375C40.2356 54.375 36.9725 52.6287 35.0006 49.7631C33.0825 52.5456 29.8775 54.375 26.25 54.375C20.3913 54.375 15.625 49.6087 15.625 43.75C15.625 39.5081 18.13 35.8494 21.7325 34.1475C21.6725 33.9225 21.6044 33.6956 21.5575 33.4744L20 32.9487V28.3006L21.5569 27.7756C21.9069 26.1094 22.5512 24.5494 23.4775 23.1287L22.75 21.6619L26.0363 18.375L27.5044 19.1025C28.9237 18.1769 30.4838 17.5319 32.1519 17.1812L32.6763 15.625H37.3237L37.8487 17.1819C39.5169 17.5325 41.0763 18.1775 42.4963 19.1031L43.9637 18.375L47.25 21.6613L46.5225 23.1294C47.4488 24.5494 48.0938 26.11 48.4431 27.7762L50 28.3012V32.9494L48.4425 33.4744C48.3956 33.6956 48.3275 33.9225 48.2675 34.1475C51.87 35.8494 54.375 39.5081 54.375 43.75ZM22.8906 33.6781C23.2819 33.5475 23.68 33.4319 24.0894 33.3469C23.8669 32.4562 23.75 31.5444 23.75 30.625C23.75 24.4219 28.7969 19.375 35 19.375C40.2956 19.375 44.825 23.0431 45.9675 28.1594C46.8381 28.3212 47.5 29.0831 47.5 30C47.5 30.8138 46.9756 31.5013 46.25 31.76V33.4344C46.5413 33.505 46.8281 33.5837 47.1094 33.6781C47.1775 33.4106 47.2375 33.145 47.285 32.885L47.3506 32.5225L48.75 32.0513V29.1994L47.3512 28.7275L47.2856 28.365C46.9656 26.6144 46.2937 24.9888 45.2875 23.5325L45.0788 23.23L45.7319 21.9112L43.7144 19.8938L42.3956 20.5469L42.0931 20.3375C40.6381 19.3325 39.0119 18.66 37.2606 18.3394L36.8981 18.2731L36.4263 16.875H33.5737L33.1025 18.2731L32.74 18.3394C30.9881 18.66 29.3625 19.3319 27.9075 20.3375L27.605 20.5469L26.2863 19.8938L24.2694 21.9106L24.9225 23.2294L24.7137 23.5319C23.7075 24.9881 23.035 26.6144 22.7156 28.3644L22.65 28.7269L21.25 29.1988V32.0506L22.6487 32.5225L22.7144 32.885C22.7625 33.145 22.8231 33.4106 22.8906 33.6781ZM35.0006 37.7369C36.4937 35.5675 38.7269 34.0431 41.25 33.43V31.76C40.5244 31.5013 40 30.8138 40 30C40 28.9663 40.8412 28.125 41.875 28.125H42.0694C41.0244 25.1462 38.2244 23.125 35 23.125C30.8644 23.125 27.5 26.4894 27.5 30.625C27.5 31.5431 27.6719 32.4338 27.9938 33.2806C30.8913 33.7625 33.3975 35.4113 35.0006 37.7369ZM26.25 33.125C26.3756 33.125 26.4981 33.1394 26.6225 33.1438C26.3781 32.3313 26.25 31.4881 26.25 30.625C26.25 25.8 30.175 21.875 35 21.875C38.9094 21.875 42.2831 24.4225 43.3806 28.125H44.68C43.5556 23.7381 39.6012 20.625 35 20.625C29.4862 20.625 25 25.1112 25 30.625C25 31.4862 25.1175 32.3394 25.3369 33.1712C25.6388 33.1456 25.9419 33.125 26.25 33.125ZM46.25 30C46.25 29.6556 45.97 29.375 45.625 29.375H41.875C41.53 29.375 41.25 29.6556 41.25 30C41.25 30.3444 41.53 30.625 41.875 30.625H45.625C45.97 30.625 46.25 30.3444 46.25 30ZM42.5 33.2038C42.9125 33.1544 43.3288 33.125 43.75 33.125C44.1737 33.125 44.5894 33.1569 45 33.205V31.875H42.5V33.2038ZM35.625 43.75C35.625 38.5806 31.4194 34.375 26.25 34.375C21.0806 34.375 16.875 38.5806 16.875 43.75C16.875 48.9194 21.0806 53.125 26.25 53.125C31.4194 53.125 35.625 48.9194 35.625 43.75ZM36.9069 43.125H38.125V44.375H36.9069C37.0362 45.8019 37.6012 47.1038 38.47 48.1463L39.3306 47.2856L40.2144 48.1694L39.3538 49.03C40.3956 49.8994 41.6981 50.4637 43.125 50.5931V49.375H44.375V50.5931C45.8019 50.4637 47.1038 49.8988 48.1463 49.03L47.2856 48.1694L48.1694 47.2856L49.03 48.1463C49.8994 47.1044 50.4637 45.8019 50.5931 44.375H49.375V43.125H50.5931C50.4637 41.6981 49.8988 40.3962 49.03 39.3538L48.1694 40.2144L47.2856 39.3306L48.1463 38.47C47.1044 37.6006 45.8019 37.0362 44.375 36.9069V38.125H43.125V36.9069C41.6981 37.0362 40.3962 37.6012 39.3538 38.47L40.2144 39.3306L39.3306 40.2144L38.47 39.3538C37.6006 40.3962 37.0362 41.6981 36.9069 43.125ZM53.125 43.75C53.125 38.5806 48.9194 34.375 43.75 34.375C40.4513 34.375 37.4031 36.1181 35.7119 38.94C35.9569 39.42 36.1688 39.9181 36.3394 40.4363C37.61 37.605 40.4506 35.625 43.75 35.625C48.23 35.625 51.875 39.27 51.875 43.75C51.875 48.23 48.23 51.875 43.75 51.875C40.4506 51.875 37.61 49.895 36.3387 47.0637C36.1681 47.5819 35.9563 48.0806 35.7113 48.56C37.4031 51.3819 40.4513 53.125 43.75 53.125C48.9194 53.125 53.125 48.9194 53.125 43.75ZM28.75 30.625H30C30 28.7125 31.0644 26.9956 32.7781 26.1444L32.2213 25.025C30.0806 26.0894 28.75 28.235 28.75 30.625ZM33.8888 25.7487C34.2512 25.6669 34.625 25.625 35 25.625V24.375C34.5319 24.375 34.065 24.4269 33.6112 24.53L33.8888 25.7487Z" fill="white"/>
</g>
<defs>
<clipPath id="clip0_9088_7976">
<rect width="40" height="40" fill="white" transform="translate(15 15)"/>
</clipPath>
</defs>
</svg>
