<?xml version="1.0" encoding="utf-8"?>
<!-- Generator: Adobe Illustrator 26.3.1, SVG Export Plug-In . SVG Version: 6.00 Build 0)  -->
<svg version="1.1" id="Layer_1" xmlns="http://www.w3.org/2000/svg" xmlns:xlink="http://www.w3.org/1999/xlink" x="0px" y="0px"
	 viewBox="0 0 195.4 52.3" style="enable-background:new 0 0 195.4 52.3;" xml:space="preserve">
<style type="text/css">
	.st0{fill:#FFFFFF;}
	.st1{fill:#E6007E;}
</style>
<g id="Layer_1-2">
	<g id="Layer_2-2">
		<g id="Layer_1-2-2">
			<path class="st0" d="M162.8,38v3.5h32.6V38H162.8z M167.2,25.8v3.5h23.7v-3.5L167.2,25.8z M165,15.2v3.5h28.2v-3.5H165z"/>
			<polyline class="st0" points="162.8,38 162.8,41.5 195.4,41.5 195.4,38 162.8,38 162.8,38 162.8,38 			"/>
			<polyline class="st0" points="167.2,25.8 167.2,29.3 190.9,29.3 190.9,25.8 167.2,25.8 167.2,25.8 167.2,25.8 			"/>
			<polyline class="st0" points="165,15.2 165,18.7 193.2,18.7 193.2,15.2 165,15.2 165,15.2 			"/>
			<polygon class="st0" points="77.6,26.4 77.6,30 110.6,30 110.6,26.4 77.6,26.4 			"/>
			<path class="st1" d="M55.4,19.7c0.6-2.8,1.2-5.6,1.8-8.4c-1.7-1.2-3.5-2.2-5.1-3.1c0-1.9,0-3.7-0.2-5.7L43.8,0
				c0.2,1.6,0.4,3.2,0.4,4.7c-5-1.9-10.3-2.9-15.7-3l0,0v7.6l0,0c5.4,0,10.7,1.3,15.5,3.5c-1.2,12-6.6,20.9-15.5,27.3l0,0v9.5l0,0
				c1.6,0.9,3.2,1.8,4.8,2.7c2.3-1.9,4.6-3.9,7-5.8c-1.6-0.7-3.1-1.4-4.6-2.1c8.4-7,13.9-16.8,15.5-27.6
				C52.7,17.7,54.1,18.7,55.4,19.7z"/>
			<path class="st1" d="M28.5,1.7c-5.3,0-10.6,0.9-15.6,2.7C13,3,13.1,1.5,13.3,0c-2.7,0.9-5.5,1.7-8.1,2.6C5,4.4,5,6.2,5,7.9
				c-1.7,0.9-3.4,1.9-5,2.9c0.6,3,1.1,6,1.6,8.9c1.4-1.1,2.8-2.1,4.2-3C7.5,27.6,13,37.4,21.4,44.4c-1.5,0.7-3,1.4-4.6,2.1
				c2.3,2,4.7,3.9,7,5.8c1.7-0.9,3.2-1.7,4.8-2.7l0,0v-9.5l0,0c-9-6.4-14.4-15.3-15.5-27.4c4.9-2.3,10.1-3.5,15.5-3.5l0,0V1.7z"/>
			<polygon class="st0" points="132.3,33.8 133.6,30.1 130.2,27.9 134.5,27.9 136.1,23.7 137.6,27.9 142,27.9 138.5,30.1 
				139.8,33.8 136.1,31.7 132.3,33.8 			"/>
		</g>
	</g>
</g>
</svg>
