<svg xmlns="http://www.w3.org/2000/svg" viewBox="0 0 195.61 52.3"><defs><style>.cls-1,.cls-3,.cls-5{fill:#231f20;}.cls-2{fill:none;}.cls-2,.cls-3,.cls-5{stroke:#231f20;stroke-miterlimit:10;}.cls-2,.cls-3{stroke-width:0.43px;}.cls-4{fill:#e6007e;}.cls-5{stroke-width:0.22px;}</style></defs><g id="Layer_2" data-name="Layer 2"><g id="Layer_1-2" data-name="Layer 1"><g id="Layer_2-2" data-name="Layer 2"><g id="Layer_1-2-2" data-name="Layer 1-2"><path class="cls-1" d="M162.8,38v3.5h32.6V38Zm4.4-12.2v3.5h23.7V25.8ZM165,15.2v3.5h28.2V15.2Z"/><polyline class="cls-2" points="162.8 38 162.8 41.5 195.4 41.5 195.4 38 162.8 38 162.8 38 162.8 38"/><polyline class="cls-2" points="167.2 25.8 167.2 29.3 190.9 29.3 190.9 25.8 167.2 25.8 167.2 25.8 167.2 25.8"/><polyline class="cls-2" points="165 15.2 165 18.7 193.2 18.7 193.2 15.2 165 15.2 165 15.2"/><polygon class="cls-3" points="77.6 26.4 77.6 30 110.6 30 110.6 26.4 77.6 26.4"/><path class="cls-4" d="M55.4,19.7l1.8-8.4a58.07,58.07,0,0,0-5.1-3.1,55.24,55.24,0,0,0-.2-5.7L43.8,0a38.89,38.89,0,0,1,.4,4.7,46.55,46.55,0,0,0-15.7-3h0V9.3h0A35.87,35.87,0,0,1,44,12.8c-1.2,12-6.6,20.9-15.5,27.3h0v9.5h0l4.8,2.7c2.3-1.9,4.6-3.9,7-5.8-1.6-.7-3.1-1.4-4.6-2.1A44.34,44.34,0,0,0,51.2,16.8,44.34,44.34,0,0,1,55.4,19.7Z"/><path class="cls-4" d="M28.5,1.7A46.13,46.13,0,0,0,12.9,4.4c.1-1.4.2-2.9.4-4.4C10.6.9,7.8,1.7,5.2,2.6A47.84,47.84,0,0,0,5,7.9c-1.7.9-3.4,1.9-5,2.9.6,3,1.1,6,1.6,8.9q2.1-1.65,4.2-3A44.91,44.91,0,0,0,21.4,44.4c-1.5.7-3,1.4-4.6,2.1,2.3,2,4.7,3.9,7,5.8,1.7-.9,3.2-1.7,4.8-2.7h0V40.1h0c-9-6.3-14.5-15.3-15.6-27.3A36.2,36.2,0,0,1,28.5,9.3h0Z"/><polygon class="cls-5" points="132.3 33.8 133.6 30.1 130.2 27.9 134.5 27.9 136.1 23.7 137.6 27.9 142 27.9 138.5 30.1 139.8 33.8 136.1 31.7 132.3 33.8"/></g></g></g></g></svg>