<svg width="18" height="16" viewBox="0 0 18 16" fill="none" xmlns="http://www.w3.org/2000/svg">
<path d="M14.6895 7.25095H0.75C0.551088 7.25095 0.360322 7.32997 0.21967 7.47062C0.0790178 7.61127 0 7.80203 0 8.00095C0 8.19986 0.0790178 8.39063 0.21967 8.53128C0.360322 8.67193 0.551088 8.75095 0.75 8.75095H14.6895L9.219 14.2199C9.07817 14.3608 8.99905 14.5518 8.99905 14.7509C8.99905 14.9501 9.07817 15.1411 9.219 15.2819C9.35983 15.4228 9.55084 15.5019 9.75 15.5019C9.94916 15.5019 10.1402 15.4228 10.281 15.2819L17.031 8.53195C17.1008 8.46228 17.1563 8.37951 17.1941 8.2884C17.2319 8.19728 17.2513 8.0996 17.2513 8.00095C17.2513 7.9023 17.2319 7.80462 17.1941 7.7135C17.1563 7.62238 17.1008 7.53962 17.031 7.46995L10.281 0.719947C10.1402 0.579117 9.94916 0.5 9.75 0.5C9.55084 0.5 9.35983 0.579117 9.219 0.719947C9.07817 0.860777 8.99905 1.05178 8.99905 1.25095C8.99905 1.45011 9.07817 1.64112 9.219 1.78195L14.6895 7.25095Z" fill="currentColor"/>
</svg>
