<svg width="18" height="18" viewBox="0 0 18 18" fill="none" xmlns="http://www.w3.org/2000/svg">
<path d="M13.1667 10.6667C13.3877 10.6667 13.5996 10.5789 13.7559 10.4226C13.9122 10.2663 14 10.0543 14 9.83333C14 9.61232 13.9122 9.40036 13.7559 9.24408C13.5996 9.0878 13.3877 9 13.1667 9C12.9457 9 12.7337 9.0878 12.5774 9.24408C12.4211 9.40036 12.3333 9.61232 12.3333 9.83333C12.3333 10.0543 12.4211 10.2663 12.5774 10.4226C12.7337 10.5789 12.9457 10.6667 13.1667 10.6667ZM13.1667 14C13.3877 14 13.5996 13.9122 13.7559 13.7559C13.9122 13.5996 14 13.3877 14 13.1667C14 12.9457 13.9122 12.7337 13.7559 12.5774C13.5996 12.4211 13.3877 12.3333 13.1667 12.3333C12.9457 12.3333 12.7337 12.4211 12.5774 12.5774C12.4211 12.7337 12.3333 12.9457 12.3333 13.1667C12.3333 13.3877 12.4211 13.5996 12.5774 13.7559C12.7337 13.9122 12.9457 14 13.1667 14ZM9.83333 9.83333C9.83333 10.0543 9.74554 10.2663 9.58926 10.4226C9.43297 10.5789 9.22101 10.6667 9 10.6667C8.77899 10.6667 8.56702 10.5789 8.41074 10.4226C8.25446 10.2663 8.16667 10.0543 8.16667 9.83333C8.16667 9.61232 8.25446 9.40036 8.41074 9.24408C8.56702 9.0878 8.77899 9 9 9C9.22101 9 9.43297 9.0878 9.58926 9.24408C9.74554 9.40036 9.83333 9.61232 9.83333 9.83333ZM9.83333 13.1667C9.83333 13.3877 9.74554 13.5996 9.58926 13.7559C9.43297 13.9122 9.22101 14 9 14C8.77899 14 8.56702 13.9122 8.41074 13.7559C8.25446 13.5996 8.16667 13.3877 8.16667 13.1667C8.16667 12.9457 8.25446 12.7337 8.41074 12.5774C8.56702 12.4211 8.77899 12.3333 9 12.3333C9.22101 12.3333 9.43297 12.4211 9.58926 12.5774C9.74554 12.7337 9.83333 12.9457 9.83333 13.1667ZM4.83333 10.6667C5.05435 10.6667 5.26631 10.5789 5.42259 10.4226C5.57887 10.2663 5.66667 10.0543 5.66667 9.83333C5.66667 9.61232 5.57887 9.40036 5.42259 9.24408C5.26631 9.0878 5.05435 9 4.83333 9C4.61232 9 4.40036 9.0878 4.24408 9.24408C4.0878 9.40036 4 9.61232 4 9.83333C4 10.0543 4.0878 10.2663 4.24408 10.4226C4.40036 10.5789 4.61232 10.6667 4.83333 10.6667ZM4.83333 14C5.05435 14 5.26631 13.9122 5.42259 13.7559C5.57887 13.5996 5.66667 13.3877 5.66667 13.1667C5.66667 12.9457 5.57887 12.7337 5.42259 12.5774C5.26631 12.4211 5.05435 12.3333 4.83333 12.3333C4.61232 12.3333 4.40036 12.4211 4.24408 12.5774C4.0878 12.7337 4 12.9457 4 13.1667C4 13.3877 4.0878 13.5996 4.24408 13.7559C4.40036 13.9122 4.61232 14 4.83333 14Z" fill="#1C2539"/>
<path fill-rule="evenodd" clip-rule="evenodd" d="M4.83268 0.453125C4.99844 0.453125 5.15741 0.518973 5.27462 0.636183C5.39183 0.753394 5.45768 0.912365 5.45768 1.07812V1.71396C6.00935 1.70312 6.61685 1.70312 7.28518 1.70312H10.7127C11.3818 1.70312 11.9893 1.70312 12.541 1.71396V1.07812C12.541 0.912365 12.6069 0.753394 12.7241 0.636183C12.8413 0.518973 13.0003 0.453125 13.166 0.453125C13.3318 0.453125 13.4907 0.518973 13.608 0.636183C13.7252 0.753394 13.791 0.912365 13.791 1.07812V1.76729C14.0077 1.78396 14.2127 1.80479 14.4068 1.83063C15.3835 1.96229 16.1743 2.23896 16.7985 2.86229C17.4218 3.48646 17.6985 4.27729 17.8302 5.25396C17.9577 6.20396 17.9577 7.41646 17.9577 8.94812V10.7081C17.9577 12.2398 17.9577 13.4531 17.8302 14.4023C17.6985 15.379 17.4218 16.1698 16.7985 16.794C16.1743 17.4173 15.3835 17.694 14.4068 17.8256C13.4568 17.9531 12.2443 17.9531 10.7127 17.9531H7.28602C5.75435 17.9531 4.54102 17.9531 3.59185 17.8256C2.61518 17.694 1.82435 17.4173 1.20018 16.794C0.576849 16.1698 0.300182 15.379 0.168516 14.4023C0.0410156 13.4523 0.0410156 12.2398 0.0410156 10.7081V8.94812C0.0410156 7.41646 0.0410156 6.20312 0.168516 5.25396C0.300182 4.27729 0.576849 3.48646 1.20018 2.86229C1.82435 2.23896 2.61518 1.96229 3.59185 1.83063C3.78602 1.80479 3.99185 1.78396 4.20768 1.76729V1.07812C4.20768 0.912365 4.27353 0.753394 4.39074 0.636183C4.50795 0.518973 4.66692 0.453125 4.83268 0.453125ZM3.75768 3.06979C2.92018 3.18229 2.43685 3.39396 2.08435 3.74646C1.73185 4.09896 1.52018 4.58229 1.40768 5.42062C1.38852 5.56229 1.37268 5.71229 1.35935 5.86979H16.6393C16.626 5.71146 16.6102 5.56229 16.591 5.41979C16.4785 4.58229 16.2668 4.09896 15.9143 3.74646C15.5618 3.39396 15.0785 3.18229 14.2402 3.06979C13.3843 2.95479 12.2552 2.95312 10.666 2.95312H7.33268C5.74352 2.95312 4.61518 2.95479 3.75768 3.06979ZM1.29102 8.99479C1.29102 8.28312 1.29102 7.66396 1.30185 7.11979H16.6968C16.7077 7.66396 16.7077 8.28312 16.7077 8.99479V10.6615C16.7077 12.2506 16.706 13.3798 16.591 14.2365C16.4785 15.074 16.2668 15.5573 15.9143 15.9098C15.5618 16.2623 15.0785 16.474 14.2402 16.5865C13.3843 16.7015 12.2552 16.7031 10.666 16.7031H7.33268C5.74352 16.7031 4.61518 16.7015 3.75768 16.5865C2.92018 16.474 2.43685 16.2623 2.08435 15.9098C1.73185 15.5573 1.52018 15.074 1.40768 14.2356C1.29268 13.3798 1.29102 12.2506 1.29102 10.6615V8.99479Z" fill="#1C2539"/>
</svg>
