<svg width="60" height="60" viewBox="0 0 60 60" fill="none" xmlns="http://www.w3.org/2000/svg">
<circle cx="30" cy="30" r="29.5" stroke="#1C2539"/>
<g clip-path="url(#clip0_9088_7871)">
<path d="M17.6645 23.0585C17.9536 23.0713 18.1997 22.8406 18.2097 22.5496L18.2916 20.171H19.8332L19.8752 23.414C19.8776 23.6041 19.9822 23.7782 20.149 23.8696C20.2281 23.913 20.3153 23.9345 20.4025 23.9345C20.499 23.9345 20.5954 23.908 20.6804 23.8554L23.0793 22.3682C23.4423 22.1432 23.8385 21.9858 24.257 21.9001L26.0346 21.5365C26.2934 22.4812 26.9984 23.2578 27.9438 23.5951C28.4258 23.7671 28.9633 23.6936 29.3816 23.3988C29.7998 23.104 30.0495 22.6224 30.0495 22.1107V21.4152C31.3436 21.3001 32.5622 20.7633 33.5262 19.8745L35.1291 18.3968C35.3432 18.1994 35.3568 17.8657 35.1594 17.6515C34.9619 17.4374 34.6283 17.4239 34.4141 17.6212L32.8112 19.0989C32.0429 19.8073 31.0773 20.2424 30.0495 20.3541V19.4985C30.3096 19.3462 30.5363 19.1366 30.7068 18.8822C31.3934 17.857 31.5003 16.5734 30.9927 15.4487C30.8117 15.0655 30.7404 14.8867 30.5598 14.5411C30.6899 14.4487 30.7951 14.321 30.8593 14.1678C30.9929 13.8489 30.9252 13.4808 30.6867 13.2299C30.3259 12.8504 29.6593 12.3448 28.533 12.0921C27.3385 11.8242 26.3261 12.15 25.7719 12.9473C25.182 12.9439 24.3397 13.2015 23.9312 14.2172C23.3791 15.5897 23.8024 16.9465 25.0634 17.8468C25.223 17.958 25.5552 18.1053 25.8893 18.0809C26.0727 18.3439 26.2575 18.5924 26.5698 18.8814L26.0545 20.4559L24.0457 20.8668C23.5049 20.9774 22.9928 21.181 22.5236 21.4718L20.9177 22.4673L20.853 17.4732C20.8406 16.5142 20.0503 15.734 19.0912 15.734C18.1366 15.734 17.3631 16.4814 17.3303 17.4354C17.2871 18.691 17.1986 21.2624 17.1556 22.5134C17.1456 22.8044 17.3734 23.0485 17.6645 23.0585ZM29.8306 18.2952C29.6657 18.5413 29.3909 18.6999 29.0955 18.7196C28.2307 18.7771 27.4117 18.3914 26.9055 17.6873L26.8234 17.5731C26.9393 17.4164 27.0189 17.2324 27.0519 17.0322C27.1102 16.6636 27.2776 16.1451 27.4864 15.7812C27.872 15.1088 28.6831 14.8455 29.3986 14.7512C29.6197 14.9309 29.9074 15.5952 30.0315 15.8825C30.3881 16.6729 30.313 17.5749 29.8306 18.2952ZM26.5029 13.802C26.7417 13.2068 27.2556 13.0528 27.7233 13.0528C28.2626 13.0354 29.2258 13.3744 29.5923 13.6708C28.7134 13.7436 27.5391 14.0128 26.8322 14.8713C26.6729 14.7728 26.5603 14.6535 26.4959 14.5147C26.357 14.2157 26.4662 13.8936 26.5029 13.802ZM24.9098 14.6107C25.0278 14.3171 25.2032 14.1617 25.3753 14.0814C25.3597 14.3876 25.4141 14.6894 25.5392 14.9589C25.6568 15.2122 25.8825 15.531 26.3114 15.7873C26.1751 16.1203 26.0742 16.4791 26.0113 16.8603C25.9955 16.9552 25.928 16.9964 25.8892 17.0126C25.8552 17.0267 25.7663 17.0524 25.6763 16.9882C24.8007 16.3631 24.5356 15.541 24.9098 14.6107ZM28.9241 19.7801C28.9477 19.7801 28.9713 19.7794 28.9949 19.7789V22.1106C28.9949 22.2824 28.9143 22.4376 28.7739 22.5367C28.6336 22.6358 28.4602 22.6594 28.2984 22.6017C27.587 22.3478 27.0852 21.7127 26.9966 20.9681L27.4851 19.4755C27.9316 19.6741 28.42 19.7801 28.9241 19.7801ZM19.0913 16.7887C19.4763 16.7887 19.7934 17.1018 19.7984 17.4867L19.8195 19.1163H18.3278L18.3844 17.4716C18.3977 17.0886 18.7081 16.7887 19.0913 16.7887Z" fill="#1C2539"/>
<path d="M40.5805 44.8109H39.7454L39.8653 37.543C39.8785 36.7532 39.5412 36.0061 38.9402 35.4933L36.6506 33.5403C36.4289 33.3511 36.0961 33.3777 35.9071 33.5993C35.7181 33.8208 35.7446 34.1537 35.9661 34.3427L38.2557 36.2958C38.6163 36.6034 38.8186 37.0516 38.8108 37.5255L38.6906 44.8109H37.3269L36.5306 42.2281C36.213 41.1978 36.2378 40.0714 36.6004 39.0562L36.823 38.4328C36.8725 38.294 36.8618 38.1409 36.7933 38.0104C36.7248 37.8799 36.605 37.784 36.4627 37.7459L30.6868 36.1996L30.5948 34.3953C30.5801 34.1044 30.3345 33.8792 30.0413 33.8955C29.7504 33.9103 29.5266 34.1581 29.5415 34.449L29.8263 40.0356C29.8571 40.6418 29.547 41.2022 29.0167 41.4979L28.294 41.901C28.0396 42.0429 27.9484 42.364 28.0903 42.6184C28.1868 42.7915 28.3664 42.889 28.5514 42.889C28.6383 42.889 28.7265 42.8675 28.8078 42.8222L29.5305 42.4191C30.4142 41.9262 30.9312 40.9924 30.8797 39.9819L30.7433 37.3067L35.6373 38.6169C35.1928 39.7857 35.1262 41.2859 35.5228 42.5389L36.4015 45.3893V46.7853C36.4015 47.456 36.9472 48.0017 37.6179 48.0017H42.0965C42.5012 48.0017 42.8305 47.6723 42.8305 47.2677V47.061C42.8305 45.8202 41.8212 44.8109 40.5805 44.8109ZM37.6179 46.9468C37.5287 46.9468 37.4562 46.8743 37.4562 46.7851V45.8656H40.5806C41.2011 45.8656 41.7128 46.3411 41.7704 46.9468H37.6179Z" fill="#1C2539"/>
<path d="M26.1036 36.7365C25.4655 35.2029 25.2087 33.5316 25.3546 31.8796L31.6141 30.6277L34.0866 32.7368C34.3082 32.9259 34.6411 32.8994 34.83 32.6778C35.019 32.4562 34.9926 32.1233 34.771 31.9343L32.3587 29.8764L33.6032 25.3202C33.6523 25.1402 33.7435 24.9712 33.8668 24.8312C35.039 23.5 41.5132 16.151 42.5131 15.0151C43.1031 14.3454 43.1149 13.363 42.5411 12.6792C42.2232 12.3004 41.7765 12.0744 41.2831 12.0429C40.789 12.0112 40.3177 12.1785 39.9543 12.5135C39.0336 13.3623 37.1142 15.1317 36.1987 15.9758C35.9846 16.1732 35.971 16.5069 36.1684 16.7211C36.366 16.9351 36.6994 16.9486 36.9137 16.7514L38.6546 15.1464L39.8769 16.4122L33.0753 24.1339C32.8462 24.3939 32.6769 24.708 32.5856 25.0423L31.3388 29.607C30.2809 29.8186 26.1948 30.6358 25.2521 30.8244L24.141 26.7059C24.0544 26.3846 23.8469 26.1177 23.557 25.9544C23.267 25.7909 22.9313 25.7519 22.6115 25.8442L19.1776 26.836C18.9126 26.9123 18.6362 26.8591 18.4186 26.6897C18.2012 26.5202 18.0819 26.265 18.0914 25.9895L18.1253 25.0028C18.1354 24.7117 17.9075 24.4677 17.6164 24.4576C17.3274 24.4452 17.0813 24.6754 17.0713 24.9665L17.0373 25.9532C17.016 26.5703 17.2832 27.142 17.7704 27.5216C18.2575 27.9012 18.877 28.0206 19.4703 27.8493L22.9042 26.8575C22.9658 26.8397 23.0154 26.8597 23.0393 26.8733C23.0633 26.8868 23.106 26.9187 23.1228 26.9806L24.3366 31.4801C24.1139 33.4007 24.3868 35.3559 25.1298 37.1416L26.0376 39.3235L25.6865 39.4013C24.366 39.6944 23.2072 40.4631 22.4239 41.566L20.2228 44.665C19.9891 44.994 19.8656 45.3812 19.8656 45.7847V46.783C19.8656 47.4538 20.4113 47.9994 21.082 47.9994H25.5606C25.9653 47.9994 26.2946 47.67 26.2946 47.2654V47.0587C26.2946 46.1293 25.7281 45.3297 24.9222 44.987L26.7053 43.9926C26.9597 43.8508 27.0509 43.5296 26.909 43.2752C26.7671 43.0208 26.4458 42.9295 26.1915 43.0715L23.0763 44.8088H21.4143L23.2837 42.1768C23.9154 41.2874 24.8499 40.6674 25.9149 40.4311L26.8804 40.2169C27.0327 40.1832 27.1623 40.0836 27.2342 39.9452C27.3061 39.8067 27.3131 39.6436 27.2532 39.4995L26.1036 36.7365ZM39.4303 14.4313L40.6693 13.2891C40.8188 13.1513 41.0126 13.0826 41.2157 13.0955C41.4186 13.1085 41.6024 13.2014 41.733 13.3572C41.969 13.6384 41.9642 14.0425 41.7216 14.318L40.5763 15.6181L39.4303 14.4313ZM24.0447 45.8635C24.6652 45.8635 25.1768 46.339 25.2344 46.9447H21.0819C20.9927 46.9447 20.9202 46.8722 20.9202 46.7831V45.8635H24.0447Z" fill="#1C2539"/>
</g>
<defs>
<clipPath id="clip0_9088_7871">
<rect width="36" height="36" fill="white" transform="translate(12 12)"/>
</clipPath>
</defs>
</svg>
