<svg width="40" height="40" viewBox="0 0 40 40" fill="none" xmlns="http://www.w3.org/2000/svg">
<path d="M36.7475 14.4384L32.5695 13.132C32.3478 12.4405 32.0681 11.7659 31.735 11.1194L33.7667 7.24062C33.8856 7.01359 33.8432 6.73563 33.662 6.55438L30.6041 3.49734C30.4228 3.31617 30.1448 3.27383 29.9179 3.39273L26.0401 5.4243C25.396 5.09211 24.7214 4.8125 24.0273 4.59L22.7209 0.411094C22.6445 0.166484 22.418 0 22.1617 0H17.8383C17.582 0 17.3555 0.166484 17.2791 0.411094L15.9727 4.59C15.2785 4.8125 14.6039 5.09211 13.9599 5.4243L13.4984 5.18258C13.2116 5.03234 12.8577 5.14313 12.7075 5.42969C12.5574 5.71633 12.668 6.07047 12.9546 6.22062L13.6898 6.60578C13.8634 6.69672 14.0709 6.69492 14.2429 6.60078C14.9885 6.19289 15.7834 5.86344 16.6052 5.62148C16.7929 5.56625 16.9406 5.42094 16.999 5.23422L18.2691 1.17188H21.7309L23.0009 5.23422C23.0593 5.42094 23.207 5.56625 23.3947 5.62148C24.2166 5.86344 25.0114 6.19289 25.757 6.60078C25.929 6.69484 26.1364 6.6968 26.3102 6.60578L30.0802 4.63062L32.5288 7.07852L30.5537 10.8492C30.4628 11.0227 30.4645 11.2301 30.5584 11.4019C30.9679 12.1517 31.2974 12.9466 31.5379 13.7645C31.5931 13.9522 31.7384 14.1 31.9252 14.1584L35.9867 15.4283V18.8895L31.9252 20.1594C31.7384 20.2178 31.5931 20.3655 31.5379 20.5532C31.297 21.372 30.9674 22.167 30.5584 22.9159C30.4646 23.0878 30.4628 23.2952 30.5537 23.4686L32.5288 27.2393L30.0802 29.6872L26.3102 27.712C26.1366 27.6211 25.9291 27.623 25.7571 27.717C25.3564 27.9361 24.939 28.1335 24.5116 28.3063L22.6804 25.6151C24.3072 25.0969 25.7712 24.109 26.8649 22.7742C28.1595 21.1942 28.8726 19.1998 28.8726 17.1584C28.8726 15.4947 28.4074 13.872 27.527 12.4655C27.3552 12.1912 26.9938 12.108 26.7195 12.2798C26.4452 12.4515 26.362 12.813 26.5337 13.0873C27.2971 14.307 27.7007 15.7148 27.7007 17.1584C27.7007 20.6391 25.3206 23.7064 21.9883 24.598L21.9077 24.4795C21.4774 23.8476 20.7642 23.4703 19.9999 23.4703C19.2356 23.4703 18.5224 23.8476 18.092 24.4795L18.0115 24.5979C14.6791 23.7063 12.2991 20.639 12.2991 17.1584C12.2991 12.9126 15.7537 9.45836 19.9999 9.45836C21.7649 9.45836 23.4898 10.0727 24.8568 11.1881C25.1074 11.3927 25.4766 11.3552 25.6812 11.1046C25.8858 10.8539 25.8484 10.4848 25.5977 10.2802C24.0222 8.99477 22.0342 8.28672 20 8.28672C15.1076 8.28672 11.1273 12.2666 11.1273 17.1586C11.1273 19.2 11.8404 21.1944 13.1351 22.7744C14.2288 24.1091 15.6927 25.097 17.3195 25.6152L15.4884 28.3065C15.061 28.1337 14.6436 27.9363 14.2429 27.7172C14.0709 27.6232 13.8634 27.6213 13.6899 27.7123L9.91985 29.6874L7.47126 27.2395L9.44634 23.4688C9.5372 23.2954 9.53548 23.088 9.44157 22.9162C9.03259 22.1672 8.70305 21.3723 8.46212 20.5534C8.40688 20.3657 8.26157 20.218 8.07485 20.1596L4.01329 18.8896V15.4284L8.07485 14.1585C8.26165 14.1001 8.40696 13.9523 8.46212 13.7646C8.70259 12.9467 9.03212 12.1519 9.44157 11.402C9.5354 11.2302 9.5372 11.0228 9.44634 10.8494L7.47126 7.07852L9.91985 4.63062L10.5327 4.9518C10.8191 5.10195 11.1734 4.99148 11.3238 4.70477C11.4739 4.41813 11.3634 4.06398 11.0767 3.91383L10.0823 3.39273C9.85532 3.27383 9.57727 3.31609 9.39602 3.49734L6.33813 6.55438C6.15688 6.73563 6.11446 7.01359 6.23337 7.24062L8.26509 11.1194C7.93196 11.7659 7.65227 12.4405 7.43063 13.132L3.25259 14.4384C3.00798 14.5149 2.84149 14.7414 2.84149 14.9977V19.3203C2.84149 19.5766 3.00798 19.803 3.25259 19.8795L7.43071 21.1859C7.65266 21.8779 7.93235 22.5527 8.26509 23.1986L6.23329 27.0773C6.11438 27.3044 6.1568 27.5823 6.33805 27.7636L9.39595 30.8206C9.50852 30.9332 9.65852 30.9922 9.8104 30.9922C9.90298 30.9922 9.99626 30.9703 10.0822 30.9253L13.9601 28.8937C14.2393 29.0376 14.5256 29.1708 14.816 29.2948L9.98509 36.3947C9.50313 37.1034 9.45282 38.0143 9.85368 38.7719C10.2545 39.5295 11.036 40 11.893 40H28.107C28.9641 40 29.7456 39.5295 30.1464 38.7719C30.5473 38.0143 30.497 37.1034 30.0149 36.3945L28.8484 34.6805C28.6663 34.4129 28.3018 34.3438 28.0343 34.5257C27.7668 34.7078 27.6974 35.0723 27.8796 35.3398L29.046 37.0537C29.2868 37.4077 29.311 37.8451 29.1106 38.2237C28.9103 38.6022 28.5352 38.8281 28.107 38.8281H11.893C11.4649 38.8281 11.0897 38.6022 10.8893 38.2237C10.689 37.8452 10.7131 37.4078 10.9539 37.0538L19.0609 25.1391C19.2759 24.8234 19.6181 24.6423 20 24.6423C20.3819 24.6423 20.7241 24.8234 20.939 25.139L26.3413 33.0788C26.5234 33.3462 26.8879 33.4158 27.1554 33.2336C27.423 33.0516 27.4923 32.6871 27.3102 32.4195L25.1841 29.2948C25.4745 29.1708 25.7608 29.0375 26.04 28.8937L29.9179 30.9253C30.0039 30.9703 30.0971 30.9923 30.1897 30.9922C30.3415 30.9922 30.4915 30.9332 30.6041 30.8206L33.662 27.7636C33.8433 27.5823 33.8857 27.3044 33.7668 27.0773L31.7351 23.1986C32.0678 22.5527 32.3475 21.878 32.5695 21.1859L36.7476 19.8795C36.9922 19.803 37.1587 19.5766 37.1587 19.3203V14.9977C37.1586 14.7414 36.9921 14.5149 36.7475 14.4384Z" fill="CurrentColor"/>
<path d="M20 12.1562C17.24 12.1562 14.9946 14.4016 14.9946 17.1616C14.9946 19.9216 17.24 22.167 20 22.167C22.76 22.167 25.0054 19.9216 25.0054 17.1616C25.0054 14.4016 22.76 12.1562 20 12.1562ZM20 20.9952C17.8862 20.9952 16.1665 19.2755 16.1665 17.1616C16.1665 15.0478 17.8863 13.3281 20 13.3281C22.1138 13.3281 23.8335 15.0478 23.8335 17.1616C23.8335 19.2755 22.1138 20.9952 20 20.9952Z" fill="CurrentColor"/>
<path d="M20 37.4259C20.3269 37.4259 20.5919 37.1609 20.5919 36.8341C20.5919 36.5072 20.3269 36.2422 20 36.2422C19.6731 36.2422 19.4081 36.5072 19.4081 36.8341C19.4081 37.1609 19.6731 37.4259 20 37.4259Z" fill="CurrentColor"/>
<path d="M20 35.0311C20.3237 35.0311 20.5859 34.7687 20.5859 34.4452V27.5859C20.5859 27.2623 20.3237 27 20 27C19.6763 27 19.4141 27.2623 19.4141 27.5859V34.4452C19.4141 34.7687 19.6763 35.0311 20 35.0311Z" fill="CurrentColor"/>
</svg>
