<svg width="28" height="28" viewBox="0 0 28 28" fill="none" xmlns="http://www.w3.org/2000/svg">
<g clip-path="url(#clip0_9088_5324)">
<path fill-rule="evenodd" clip-rule="evenodd" d="M8.81362 13.0268C8.34112 12.7113 7.70994 12.783 7.31911 13.196C6.92886 13.6084 6.89211 14.2431 7.23336 14.6975L10.7334 19.3642C10.9445 19.6453 11.2712 19.8168 11.6229 19.8303C11.9741 19.8431 12.313 19.6972 12.5446 19.4324L20.7113 10.0991C21.1144 9.63883 21.0928 8.94525 20.6623 8.51008C20.2318 8.07492 19.5388 8.04692 19.0739 8.44475L11.5786 14.8696L8.81362 13.0268Z" fill="white"/>
<path fill-rule="evenodd" clip-rule="evenodd" d="M13.9327 0.515625C6.52939 0.515625 0.519531 6.52549 0.519531 13.9288C0.519531 21.3321 6.52939 27.3419 13.9327 27.3419C21.336 27.3419 27.3458 21.3321 27.3458 13.9288C27.3458 6.52549 21.336 0.515625 13.9327 0.515625ZM13.9327 1.68166C20.6921 1.68166 26.1798 7.16938 26.1798 13.9288C26.1798 20.6882 20.6921 26.1759 13.9327 26.1759C7.17329 26.1759 1.68557 20.6882 1.68557 13.9288C1.68557 7.16938 7.17329 1.68166 13.9327 1.68166Z" fill="#1C2539"/>
<path fill-rule="evenodd" clip-rule="evenodd" d="M9.13872 12.5389C8.42939 12.0658 7.48265 12.1731 6.89698 12.792C6.31073 13.4115 6.25648 14.363 6.76806 15.0449L10.2681 19.7115C10.5848 20.1339 11.0748 20.3905 11.6021 20.4104C12.1295 20.4302 12.6376 20.2109 12.9852 19.8142L21.1519 10.4809C21.7562 9.78965 21.7241 8.74956 21.0784 8.0974C20.4326 7.44465 19.3926 7.40205 18.6961 7.99938L11.5356 14.1366L9.13872 12.5389ZM8.4918 13.5096L11.2562 15.3529C11.4738 15.4976 11.7608 15.4801 11.9597 15.3103L19.455 8.88547C19.6871 8.68597 20.0342 8.70055 20.2495 8.91814C20.4647 9.13514 20.4752 9.48222 20.274 9.71264L12.1073 19.046C11.9912 19.1778 11.8221 19.2513 11.6459 19.2443C11.4703 19.2379 11.307 19.1521 11.2014 19.0116L7.7014 14.3449C7.53106 14.1174 7.54913 13.8006 7.74455 13.5941C7.93938 13.3876 8.25497 13.3521 8.4918 13.5096Z" fill="#1C2539"/>
</g>
<defs>
<clipPath id="clip0_9088_5324">
<rect width="28" height="28" fill="white"/>
</clipPath>
</defs>
</svg>
