<svg width="24" height="24" viewBox="0 0 24 24" fill="none" xmlns="http://www.w3.org/2000/svg">
<path fill-rule="evenodd" clip-rule="evenodd" d="M12.7083 8.29559C12.5208 8.10812 12.2665 8.0028 12.0013 8.0028C11.7362 8.0028 11.4818 8.10812 11.2943 8.29559L5.63732 13.9526C5.54181 14.0448 5.46563 14.1552 5.41322 14.2772C5.36081 14.3992 5.33322 14.5304 5.33207 14.6632C5.33092 14.796 5.35622 14.9276 5.4065 15.0505C5.45678 15.1734 5.53103 15.2851 5.62492 15.379C5.71882 15.4729 5.83047 15.5471 5.95337 15.5974C6.07626 15.6477 6.20794 15.673 6.34072 15.6718C6.4735 15.6707 6.60472 15.6431 6.72672 15.5907C6.84873 15.5383 6.95907 15.4621 7.05132 15.3666L12.0013 10.4166L16.9513 15.3666C17.1399 15.5487 17.3925 15.6495 17.6547 15.6473C17.9169 15.645 18.1677 15.5398 18.3531 15.3544C18.5385 15.169 18.6437 14.9182 18.646 14.656C18.6483 14.3938 18.5475 14.1412 18.3653 13.9526L12.7083 8.29559Z" fill="CurrentColor"/>
</svg>
