<svg width="24" height="24" viewBox="0 0 24 24" fill="none" xmlns="http://www.w3.org/2000/svg">
<g clip-path="url(#clip0_9088_8345)">
<path fill-rule="evenodd" clip-rule="evenodd" d="M12.7083 15.7044C12.5208 15.8919 12.2665 15.9972 12.0013 15.9972C11.7362 15.9972 11.4818 15.8919 11.2943 15.7044L5.63732 10.0474C5.54181 9.95517 5.46563 9.84482 5.41322 9.72282C5.36081 9.60081 5.33322 9.46959 5.33207 9.33681C5.33092 9.20404 5.35622 9.07236 5.4065 8.94946C5.45678 8.82656 5.53103 8.71491 5.62492 8.62102C5.71882 8.52713 5.83047 8.45287 5.95337 8.40259C6.07626 8.35231 6.20794 8.32701 6.34072 8.32816C6.4735 8.32932 6.60472 8.3569 6.72672 8.40931C6.84873 8.46172 6.95907 8.5379 7.05132 8.63341L12.0013 13.5834L16.9513 8.63341C17.1399 8.45125 17.3925 8.35046 17.6547 8.35274C17.9169 8.35502 18.1677 8.46019 18.3531 8.64559C18.5385 8.831 18.6437 9.08182 18.646 9.34401C18.6483 9.60621 18.5475 9.85881 18.3653 10.0474L12.7083 15.7044Z" fill="CurrentColor"/>
</g>
<defs>
<clipPath id="clip0_9088_8345">
<rect width="24" height="24" fill="CurrentColor"/>
</clipPath>
</defs>
</svg>
