<svg width="11" height="10" viewBox="0 0 11 10" fill="none" xmlns="http://www.w3.org/2000/svg">
<path d="M2.16668 0.833333C2.16668 0.61232 2.25448 0.400358 2.41076 0.244078C2.56704 0.0877975 2.779 0 3.00001 0H9.66668C9.88769 0 10.0997 0.0877975 10.2559 0.244078C10.4122 0.400358 10.5 0.61232 10.5 0.833333V7.5C10.5 7.72101 10.4122 7.93297 10.2559 8.08926C10.0997 8.24554 9.88769 8.33333 9.66668 8.33333C9.44567 8.33333 9.2337 8.24554 9.07742 8.08926C8.92114 7.93297 8.83335 7.72101 8.83335 7.5V2.845L1.92251 9.75583C1.76535 9.90763 1.55484 9.99163 1.33635 9.98973C1.11785 9.98783 0.908839 9.90019 0.754332 9.74568C0.599825 9.59118 0.512184 9.38216 0.510285 9.16367C0.508387 8.94517 0.592382 8.73467 0.744181 8.5775L7.65501 1.66667H3.00001C2.779 1.66667 2.56704 1.57887 2.41076 1.42259C2.25448 1.26631 2.16668 1.05435 2.16668 0.833333Z" fill="currentColor"/>
</svg>
