<svg width="18" height="18" viewBox="0 0 18 18" fill="none" xmlns="http://www.w3.org/2000/svg">
<path d="M9.85724 0.671875C10.7951 0.673425 11.2703 0.678392 11.681 0.690617L11.8427 0.6959C12.0296 0.702542 12.2139 0.710875 12.4362 0.721292C13.3229 0.762267 13.9278 0.902542 14.4591 1.10879C15.0083 1.3206 15.4722 1.60671 15.9354 2.06991C16.3979 2.5331 16.6841 2.99837 16.8966 3.54629C17.1021 4.07685 17.2424 4.68241 17.2841 5.56921C17.294 5.79143 17.302 5.97577 17.3086 6.16263L17.3138 6.32437C17.326 6.73499 17.3316 7.21032 17.3333 8.14818L17.334 8.76952C17.3341 8.84543 17.3341 8.92377 17.3341 9.0046L17.334 9.23968L17.3335 9.8611C17.3319 10.7989 17.327 11.2743 17.3147 11.6848L17.3094 11.8466C17.3028 12.0335 17.2945 12.2178 17.2841 12.44C17.2431 13.3268 17.1021 13.9317 16.8966 14.4629C16.6847 15.0123 16.3979 15.4762 15.9354 15.9393C15.4722 16.4018 15.0062 16.6879 14.4591 16.9004C13.9278 17.106 13.3229 17.2463 12.4362 17.2879C12.2139 17.2978 12.0296 17.3059 11.8427 17.3124L11.681 17.3177C11.2703 17.3299 10.7951 17.3354 9.85724 17.3373L9.23582 17.3379C9.1599 17.3379 9.08157 17.3379 9.00074 17.3379H8.76565L8.14424 17.3373C7.2064 17.3358 6.73109 17.3309 6.32046 17.3186L6.15873 17.3134C5.97185 17.3067 5.78752 17.2983 5.5653 17.2879C4.67849 17.247 4.07433 17.106 3.54239 16.9004C2.99377 16.6887 2.52919 16.4018 2.06599 15.9393C1.6028 15.4762 1.31739 15.0102 1.10489 14.4629C0.898636 13.9317 0.759052 13.3268 0.717386 12.44C0.707486 12.2178 0.69941 12.0335 0.692869 11.8466L0.687627 11.6848C0.675435 11.2743 0.669877 10.7989 0.668077 9.8611L0.667969 8.14818C0.669519 7.21032 0.674477 6.73499 0.686702 6.32437L0.691994 6.16263C0.698635 5.97577 0.706969 5.79143 0.717386 5.56921C0.758352 4.68171 0.898636 4.07754 1.10489 3.54629C1.31669 2.99768 1.6028 2.5331 2.06599 2.06991C2.52919 1.60671 2.99447 1.32129 3.54239 1.10879C4.07364 0.902542 4.6778 0.762958 5.5653 0.721292C5.78752 0.7114 5.97185 0.703325 6.15873 0.696783L6.32046 0.691542C6.73109 0.679342 7.2064 0.673783 8.14424 0.671983L9.85724 0.671875ZM9.00074 4.83796C6.6983 4.83796 4.83405 6.70423 4.83405 9.0046C4.83405 11.307 6.70033 13.1713 9.00074 13.1713C11.3032 13.1713 13.1674 11.305 13.1674 9.0046C13.1674 6.70221 11.3011 4.83796 9.00074 4.83796ZM9.00074 6.50462C10.3815 6.50462 11.5007 7.62352 11.5007 9.0046C11.5007 10.3853 10.3818 11.5046 9.00074 11.5046C7.61999 11.5046 6.50072 10.3858 6.50072 9.0046C6.50072 7.62385 7.61957 6.50462 9.00074 6.50462ZM13.3757 3.58796C12.8013 3.58796 12.3341 4.05455 12.3341 4.62892C12.3341 5.20329 12.8007 5.6706 13.3757 5.6706C13.9501 5.6706 14.4174 5.20402 14.4174 4.62892C14.4174 4.05455 13.9493 3.58724 13.3757 3.58796Z" fill="currentColor"/>
</svg>
