<svg width="40" height="40" viewBox="0 0 40 40" fill="none" xmlns="http://www.w3.org/2000/svg">
<g clip-path="url(#clip0_9105_30181)">
<path d="M3.09175 23.9688C3.38125 24.0267 3.72285 23.8004 3.78143 23.5099C3.79042 23.4654 4.71851 18.9998 8.11233 14.1991C10.0981 11.3901 12.5294 9.01514 15.3386 7.14012C18.7079 4.89132 22.6379 3.35744 27.0271 2.57581L26.548 3.30502C26.1455 3.91761 27.091 4.61245 27.5272 3.94839L28.7319 2.11477C28.9001 1.79747 28.8439 1.52687 28.5631 1.30292L26.7263 0.1004C26.0926 -0.314863 25.4508 0.665803 26.0845 1.08068L26.6527 1.45274C22.1593 2.27421 18.1277 3.86387 14.6601 6.18422C11.7284 8.14586 9.19338 10.6292 7.12542 13.5653C3.60466 18.5641 2.67055 23.0895 2.63251 23.2797C2.56908 23.5968 2.77468 23.9051 3.09175 23.9688Z" fill="CurrentColor"/>
<path d="M35.5768 30.0864V26.3214C35.5768 25.9977 35.3145 25.7355 34.9909 25.7355H31.1417V7.82806C31.1417 7.50442 30.8794 7.24219 30.5558 7.24219H23.0685C22.745 7.24219 22.4827 7.50442 22.4827 7.82806V13.9723H15.5752C15.2517 13.9723 14.9893 14.2345 14.9893 14.5581V20.715H8.08187C7.75831 20.715 7.496 20.9772 7.496 21.3009V26.604H0.588448C0.264892 26.604 0.00257874 26.8662 0.00257874 27.1899V33.0497C0.00257874 33.3733 0.264892 33.6356 0.588448 33.6356H2.66578C3.42327 33.6356 3.42327 32.4638 2.66578 32.4638H1.17432V27.7757H7.48983V32.4638H5.78385C5.02637 32.4638 5.02637 33.6356 5.78385 33.6356H17.74V39.4112C17.74 39.7349 18.0023 39.9971 18.3259 39.9971H34.9909C34.9944 39.9971 34.9979 39.9966 35.0014 39.9966C35.0083 39.9966 35.0152 39.9971 35.0221 39.9971C35.8983 39.9971 36.7612 39.765 37.5175 39.326C38.1727 38.9457 37.5846 37.9327 36.9293 38.3126C36.3514 38.648 35.692 38.8253 35.0221 38.8253C32.9249 38.8253 31.2187 37.1209 31.2187 35.0258C31.2187 32.9307 32.9249 31.2264 35.0221 31.2264C37.1194 31.2264 38.8256 32.9307 38.8256 35.0258C38.8256 35.4766 38.7474 35.9177 38.5931 36.3369C38.3314 37.0478 39.431 37.4525 39.6927 36.7417C39.8948 36.1925 39.9973 35.6152 39.9973 35.0258C39.9973 32.4722 38.0599 30.363 35.5768 30.0864ZM32.1489 30.9714H27.2443V29.5252H34.405V30.0944C33.5718 30.1979 32.8024 30.5077 32.1489 30.9714ZM26.0725 32.1432V33.5894H18.9118V32.1432H26.0725ZM18.9118 34.7611H26.0725V36.2074H18.9118V34.7611ZM27.2443 34.7611H30.0542C30.0289 35.2406 30.0762 35.7421 30.1901 36.2074H27.2443V34.7611ZM30.2596 33.5893H27.2443V32.1431H30.9728C30.6614 32.5786 30.4182 33.0656 30.2596 33.5893ZM34.405 28.3535H27.2443V26.9072H30.4803C30.5051 26.9104 30.5302 26.9126 30.5559 26.9126C30.5816 26.9126 30.6066 26.9104 30.6315 26.9072H34.4051V28.3535H34.405ZM29.9699 8.41393V25.7355H26.6584C26.3348 25.7355 26.0725 25.9977 26.0725 26.3214V28.9393V30.9714H23.6544V8.41393H29.9699ZM14.9832 32.4638H8.66774V21.8868H14.9832V32.4638ZM16.1611 32.4638V15.144H22.4766V30.9714H18.3259C18.0023 30.9714 17.74 31.2336 17.74 31.5572V32.4638L16.1611 32.4638ZM26.0725 38.8254H18.9118V37.3791H26.0725V38.8254ZM27.2443 38.8254V37.3791H30.6409C30.9399 37.9326 31.3412 38.4227 31.8187 38.8254H27.2443Z" fill="CurrentColor"/>
<path d="M34.9994 38.1165C35.323 38.1165 35.5853 37.8543 35.5853 37.5307V37.3316C36.0858 37.1309 36.4641 36.6834 36.558 36.1243C36.6788 35.4046 36.2892 34.7549 35.5884 34.5076C35.2944 34.4038 34.842 34.3332 34.7475 34.1256C34.7005 34.0223 34.7709 33.9302 34.8721 33.8754C35.1535 33.7906 35.3323 33.9262 35.3517 33.9421C35.3434 33.9354 35.3394 33.9312 35.3394 33.9312C35.3394 33.9312 35.8569 34.2362 36.1505 33.9426C36.6973 33.3958 36.133 33.0691 36.133 33.0691C36.0213 32.9662 35.8307 32.8438 35.5853 32.7632V32.6306C35.5853 31.8731 34.4135 31.8731 34.4135 32.6306V32.7971C33.9923 32.9702 33.6833 33.3518 33.595 33.8212C33.5049 34.2998 33.6658 34.7669 34.015 35.0403C34.3307 35.2876 34.7703 35.4615 35.1985 35.6125C35.3027 35.6493 35.4373 35.7222 35.4024 35.9302C35.3811 36.0573 35.2713 36.2729 34.9956 36.2747C34.6716 36.2768 34.6026 36.2662 34.3712 36.1151C34.1003 35.9382 33.7373 36.0144 33.5604 36.2853C33.3834 36.5563 33.4596 36.9193 33.7305 37.0962C33.9871 37.2638 34.1945 37.354 34.4135 37.4007V37.5306C34.4135 37.8543 34.6759 38.1165 34.9994 38.1165Z" fill="CurrentColor"/>
</g>
<defs>
<clipPath id="clip0_9105_30181">
<rect width="40" height="40" fill="CurrentColor"/>
</clipPath>
</defs>
</svg>
