<svg width="50" height="50" viewBox="0 0 50 50" fill="none" xmlns="http://www.w3.org/2000/svg">
<circle cx="25" cy="25" r="25" fill="#1C2539"/>
<g clip-path="url(#clip0_9088_5518)">
<path d="M19.5985 31.1283L19.0574 34.375H19C18.5864 34.375 18.25 34.7114 18.25 35.125V35.875C18.25 36.2886 18.5864 36.625 19 36.625H31C31.4136 36.625 31.75 36.2886 31.75 35.875V35.125C31.75 34.7114 31.4136 34.375 31 34.375H30.9426L30.4015 31.1283C30.2886 30.451 29.7378 29.9526 29.0669 29.8878L32.5289 24.6947L31.2651 19.6409L26.2041 21.328L25.6371 23.0009L24.589 16.8869L18.8121 13.5858L16.3416 19.7609L21.0389 29.8784C20.3204 29.8971 19.7174 30.4154 19.5985 31.1283ZM31.0004 35.875H19V35.125H31L31.0004 35.875ZM29.662 31.2516L30.1825 34.375H19.8175L20.338 31.2516C20.3988 30.8886 20.71 30.625 21.0782 30.625H28.9221C29.29 30.625 29.6012 30.8886 29.662 31.2516ZM26.6991 29.1906L28.618 25.3525L31.3727 25.0769L28.1744 29.875H26.8165L26.6991 29.1906ZM31.6559 24.295L28.5831 24.6021L27.0475 21.8376L30.7349 20.6084L31.6559 24.295ZM26.5833 22.5475L27.9509 25.0094L26.4846 27.9419L25.9037 24.553L26.5833 22.5475ZM26.0553 29.875H24.5271L22.9934 24.8897L22.2768 25.1102L23.7423 29.875H21.8643L17.3894 20.2368L20.9598 20.8319L22.0454 24.3603L22.762 24.1397L21.67 20.5915L24.0119 17.9571L26.0553 29.875ZM19.1879 14.6643L23.6624 17.221L21.1071 20.0958L17.2709 19.4564L19.1879 14.6643ZM21.25 31.375H28.75V33.625H27.25V32.875H28V32.125H22V32.875H26.5V33.625H21.25V31.375ZM32.5 18.4052V19.375H33.25V18.4052L34.1553 17.5H35.125V16.75H34.1553L33.25 15.8447V14.875H32.5V15.8447L31.5947 16.75H30.625V17.5H31.5947L32.5 18.4052ZM32.875 16.5302L33.4697 17.125L32.875 17.7198L32.2803 17.125L32.875 16.5302ZM33.25 14.125H32.5V13.375H33.25V14.125ZM29.875 17.5H29.125V16.75H29.875V17.5ZM32.5 20.125H33.25V20.875H32.5V20.125ZM35.875 16.75H36.625V17.5H35.875V16.75ZM15.25 34.1553V35.125H16V34.1553L16.9052 33.25H17.875V32.5H16.9052L16 31.5947V30.625H15.25V31.5947L14.3447 32.5H13.375V33.25H14.3447L15.25 34.1553ZM15.625 32.2803L16.2198 32.875L15.625 33.4697L15.0303 32.875L15.625 32.2803ZM15.25 29.125H16V29.875H15.25V29.125ZM16 36.625H15.25V35.875H16V36.625ZM34.75 28.2197V27.25H34V28.2197L33.0947 29.125H32.125V29.875H33.0947L34 30.7803V31.75H34.75V30.7803L35.6553 29.875H36.625V29.125H35.6553L34.75 28.2197ZM34.375 30.0947L33.7803 29.5L34.375 28.9053L34.9697 29.5L34.375 30.0947ZM34 26.5V25.75H34.75V26.5H34ZM34.75 33.25H34V32.5H34.75V33.25ZM30.625 29.875V29.125H31.375V29.875H30.625ZM14.875 14.125H14.125V13.375H14.875V14.125ZM14.125 14.875H13.375V14.125H14.125V14.875ZM14.125 14.875H14.875V15.625H14.125V14.875ZM14.875 14.875V14.125H15.625V14.875H14.875ZM16.75 24.625H16V23.875H16.75V24.625ZM15.25 24.625H16V25.375H15.25V24.625ZM16 25.375H16.75V26.125H16V25.375ZM16.75 25.375V24.625H17.5V25.375H16.75ZM26.125 14.875H25.375V14.125H26.125V14.875ZM25.375 15.625H24.625V14.875H25.375V15.625ZM25.375 15.625H26.125V16.375H25.375V15.625ZM26.125 15.625V14.875H26.875V15.625H26.125Z" fill="white"/>
</g>
<defs>
<clipPath id="clip0_9088_5518">
<rect width="24" height="24" fill="white" transform="translate(13 13)"/>
</clipPath>
</defs>
</svg>
