<svg width="40" height="40" viewBox="0 0 40 40" fill="none" xmlns="http://www.w3.org/2000/svg">
<g clip-path="url(#clip0_9105_30187)">
<path d="M25.5174 10.3985C26.5944 10.3985 27.4705 9.52234 27.4705 8.44539C27.4705 7.36844 26.5944 6.49219 25.5174 6.49219C24.4405 6.49219 23.5643 7.36844 23.5643 8.44539C23.5643 8.88523 23.7105 9.29148 23.9569 9.61836L20.7478 14.1028C20.5563 14.0399 20.352 14.0054 20.1397 14.0054C19.6265 14.0054 19.1591 14.2047 18.8102 14.5295L16.6712 13.3158C16.6998 13.1833 16.7151 13.0459 16.7151 12.9051C16.7151 11.8281 15.8389 10.952 14.762 10.952C13.685 10.952 12.8088 11.8281 12.8088 12.9051C12.8088 13.0459 12.8241 13.1833 12.8527 13.3158L10.7137 14.5295C10.3648 14.2047 9.89742 14.0055 9.38422 14.0055C8.30726 14.0055 7.43109 14.8817 7.43109 15.9587C7.43109 17.0356 8.30726 17.9119 9.38422 17.9119C10.4612 17.9119 11.3373 17.0356 11.3373 15.9587C11.3373 15.8178 11.322 15.6805 11.2935 15.548L13.4325 14.3342C13.7814 14.6591 14.2487 14.8584 14.762 14.8584C15.2752 14.8584 15.7424 14.6591 16.0914 14.3343L18.2304 15.548C18.2019 15.6805 18.1866 15.8179 18.1866 15.9588C18.1866 17.0357 19.0627 17.912 20.1397 17.912C21.2167 17.912 22.0929 17.0357 22.0929 15.9588C22.0929 15.5188 21.9466 15.1125 21.7002 14.7856L24.9093 10.3012C25.1007 10.364 25.3051 10.3985 25.5174 10.3985ZM25.5174 7.66406C25.9482 7.66406 26.2987 8.01453 26.2987 8.44539C26.2987 8.87617 25.9482 9.22664 25.5174 9.22664C25.0866 9.22664 24.7362 8.87617 24.7362 8.44539C24.7361 8.01453 25.0866 7.66406 25.5174 7.66406ZM9.38398 16.7398C8.9532 16.7398 8.60273 16.3894 8.60273 15.9585C8.60273 15.5277 8.9532 15.1772 9.38398 15.1772C9.81476 15.1772 10.1652 15.5277 10.1652 15.9585C10.1652 16.3894 9.81476 16.7398 9.38398 16.7398ZM14.7618 13.6863C14.331 13.6863 13.9805 13.3359 13.9805 12.905C13.9805 12.4742 14.331 12.1238 14.7618 12.1238C15.1926 12.1238 15.543 12.4742 15.543 12.905C15.5431 13.3359 15.1926 13.6863 14.7618 13.6863ZM20.1396 16.7398C19.7088 16.7398 19.3584 16.3894 19.3584 15.9585C19.3584 15.5277 19.7088 15.1772 20.1396 15.1772C20.5705 15.1772 20.9209 15.5277 20.9209 15.9585C20.9209 16.3894 20.5704 16.7398 20.1396 16.7398Z" fill="CurrentColor"/>
<path d="M32.7184 29.457H28.618H6.28344H1.65742C1.38969 29.457 1.17188 29.2391 1.17188 28.9714V4.79805C1.17188 4.53031 1.38969 4.3125 1.65742 4.3125H4.41961C4.7432 4.3125 5.00555 4.05023 5.00555 3.72656C5.00555 3.40289 4.7432 3.14062 4.41961 3.14062H1.65742C0.743516 3.14062 0 3.88414 0 4.79805V28.9714C0 29.8853 0.743516 30.6288 1.65742 30.6288H5.6975V31.9184C5.6975 32.653 6.29516 33.2506 7.02977 33.2506H12.8949L10.134 38.6411C9.98648 38.9291 10.1003 39.2822 10.3884 39.4298C10.4738 39.4736 10.5651 39.4943 10.655 39.4943C10.8679 39.4943 11.0733 39.3779 11.177 39.1753L14.2116 33.2506H20.6898L23.7245 39.1753C23.8282 39.3779 24.0335 39.4943 24.2464 39.4943C24.3363 39.4943 24.4276 39.4734 24.513 39.4298C24.8011 39.2822 24.915 38.9291 24.7674 38.6411L22.0065 33.2506H27.8716C28.6062 33.2506 29.2039 32.653 29.2039 31.9184V30.6288H32.7184C33.042 30.6288 33.3044 30.3666 33.3044 30.0429C33.3044 29.7192 33.042 29.457 32.7184 29.457ZM28.032 31.9184C28.032 32.0068 27.9601 32.0787 27.8716 32.0787H7.02977C6.94133 32.0787 6.86938 32.0068 6.86938 31.9184V30.6288H28.032V31.9184Z" fill="CurrentColor"/>
<path d="M6.76337 4.30922H14.7846H20.1167H33.2439C33.5116 4.30922 33.7295 4.52703 33.7295 4.79477V10.3659C33.7295 10.6896 33.9918 10.9519 34.3154 10.9519C34.639 10.9519 34.9013 10.6896 34.9013 10.3659V4.79477C34.9013 3.88086 34.1578 3.13734 33.2439 3.13734H20.7027V1.98563C20.7027 1.17508 20.0433 0.515625 19.2327 0.515625H15.6688C14.8582 0.515625 14.1987 1.17508 14.1987 1.98563V3.13734H6.76337C6.43977 3.13734 6.17743 3.39961 6.17743 3.72328C6.17743 4.04695 6.43977 4.30922 6.76337 4.30922ZM15.3706 1.98563C15.3706 1.82125 15.5043 1.6875 15.6688 1.6875H19.2327C19.397 1.6875 19.5309 1.82125 19.5309 1.98563V3.13734H15.3706V1.98563H15.3706Z" fill="CurrentColor"/>
<path d="M8.19547 20.9062C7.87187 20.9062 7.60953 21.1685 7.60953 21.4922V26.6697C7.60953 26.9934 7.87187 27.2556 8.19547 27.2556H10.5726C10.8962 27.2556 11.1585 26.9934 11.1585 26.6697V21.4922C11.1585 21.1685 10.8962 20.9062 10.5726 20.9062H8.19547ZM9.98664 26.0838H8.7814V22.0782H9.98664V26.0838Z" fill="CurrentColor"/>
<path d="M13.5732 17.9141C13.2496 17.9141 12.9873 18.1763 12.9873 18.5V26.672C12.9873 26.9956 13.2496 27.2579 13.5732 27.2579H15.9503C16.2739 27.2579 16.5363 26.9956 16.5363 26.672V18.5C16.5363 18.1763 16.2739 17.9141 15.9503 17.9141H13.5732ZM15.3645 26.086H14.1592V19.0859H15.3645V26.086Z" fill="CurrentColor"/>
<path d="M18.951 20.9062C18.6274 20.9062 18.3651 21.1685 18.3651 21.4922V26.6697C18.3651 26.9934 18.6274 27.2556 18.951 27.2556H21.3281C21.6517 27.2556 21.9141 26.9934 21.9141 26.6697V21.4922C21.9141 21.1685 21.6517 20.9062 21.3281 20.9062H18.951ZM20.7422 26.0838H19.537V22.0782H20.7422V26.0838Z" fill="CurrentColor"/>
<path d="M24.3288 24.3672C24.0052 24.3672 23.7429 24.6295 23.7429 24.9531V26.6732C23.7429 26.9969 24.0052 27.2591 24.3288 27.2591H26.7059C27.0295 27.2591 27.2919 26.9969 27.2919 26.6732C27.2919 26.3495 27.0295 26.0873 26.7059 26.0873H24.9148V24.9531C24.9148 24.6295 24.6524 24.3672 24.3288 24.3672Z" fill="CurrentColor"/>
<path d="M39.7012 30.0035L36.3397 24.1812C37.1913 23.2734 37.8115 22.1643 38.1427 20.928C38.6722 18.9522 38.4005 16.8883 37.3776 15.1168C35.2662 11.4595 30.5732 10.2022 26.9162 12.3136C23.2591 14.4249 22.0016 19.118 24.113 22.7751C25.1358 24.5466 26.7873 25.8138 28.7632 26.3433C29.423 26.5201 30.0925 26.6076 30.7577 26.6076C31.3391 26.6076 31.9172 26.5407 32.4825 26.4083L35.8433 32.2308C36.2552 32.9447 37.0054 33.3441 37.7758 33.344C38.1534 33.344 38.5359 33.248 38.8858 33.0462C39.573 32.6495 40 31.9099 40 31.116C40 30.727 39.8967 30.3424 39.7012 30.0035ZM29.0665 25.2114C27.393 24.763 25.9941 23.6896 25.1278 22.1891C23.3395 19.0916 24.4046 15.1168 27.502 13.3284C28.521 12.7401 29.6345 12.4608 30.7344 12.4608C32.9777 12.4608 35.1627 13.6243 36.3627 15.7027C37.229 17.2032 37.4591 18.9512 37.0107 20.6247C36.5623 22.2983 35.4889 23.697 33.9884 24.5633C32.488 25.4297 30.7401 25.6597 29.0665 25.2114ZM38.3001 32.0312C37.796 32.3222 37.1491 32.149 36.8583 31.6451L33.6248 26.0432C33.9489 25.9109 34.2662 25.7562 34.5745 25.5783C34.883 25.4001 35.1752 25.2019 35.4519 24.9872L38.6862 30.5893C38.779 30.7503 38.8281 30.9325 38.8281 31.1161C38.8281 31.4925 38.6258 31.8432 38.3001 32.0312Z" fill="CurrentColor"/>
<path d="M36.058 20.5992C36.4716 19.2667 36.3731 17.8401 35.7805 16.5823C35.6426 16.2895 35.2935 16.164 35.0008 16.3019C34.708 16.4399 34.5825 16.7889 34.7205 17.0817C35.1879 18.0739 35.2655 19.1996 34.9388 20.2516C34.6104 21.3094 33.9009 22.1971 32.9409 22.7514C31.9252 23.3379 30.7416 23.4935 29.6087 23.19C28.4758 22.8864 27.5287 22.1598 26.9423 21.144C25.7316 19.0471 26.4527 16.3561 28.5497 15.1454C30.0829 14.2603 31.9856 14.3786 33.3974 15.4468C33.6555 15.6421 34.023 15.5912 34.2182 15.3331C34.4134 15.075 34.3626 14.7075 34.1045 14.5123C32.3161 13.1591 29.9056 13.0093 27.9637 14.1305C26.6768 14.8735 25.7562 16.0732 25.3716 17.5085C24.987 18.9438 25.1845 20.443 25.9274 21.7299C26.6704 23.0168 27.8701 23.9373 29.3054 24.322C29.7847 24.4504 30.2711 24.5139 30.7543 24.5139C31.7182 24.5139 32.6697 24.2611 33.5268 23.7662C34.743 23.0642 35.6419 21.9395 36.058 20.5992Z" fill="CurrentColor"/>
</g>
<defs>
<clipPath id="clip0_9105_30187">
<rect width="40" height="40" fill="CurrentColor"/>
</clipPath>
</defs>
</svg>
