<svg width="50" height="50" viewBox="0 0 50 50" fill="none" xmlns="http://www.w3.org/2000/svg">
<circle cx="25" cy="25" r="25" fill="#1C2539"/>
<g clip-path="url(#clip0_9088_5524)">
<path d="M37.4444 36.3333C36.7094 36.3333 36.1111 36.9316 36.1111 37.6667C36.1111 38.4017 36.7094 39 37.4444 39C38.1794 39 38.7777 38.4017 38.7777 37.6667C38.7777 36.9316 38.1794 36.3333 37.4444 36.3333ZM37.4444 38.1111C37.1996 38.1111 36.9999 37.9119 36.9999 37.6667C36.9999 37.4214 37.1996 37.2222 37.4444 37.2222C37.6892 37.2222 37.8888 37.4214 37.8888 37.6667C37.8888 37.9119 37.6892 38.1111 37.4444 38.1111ZM12.5555 11C11.8205 11 11.2222 11.5983 11.2222 12.3333C11.2222 13.0684 11.8205 13.6667 12.5555 13.6667C13.2905 13.6667 13.8888 13.0684 13.8888 12.3333C13.8888 11.5983 13.2905 11 12.5555 11ZM12.5555 12.7778C12.3107 12.7778 12.1111 12.5781 12.1111 12.3333C12.1111 12.0885 12.3107 11.8889 12.5555 11.8889C12.8003 11.8889 12.9999 12.0885 12.9999 12.3333C12.9999 12.5781 12.8003 12.7778 12.5555 12.7778ZM36.5555 25.0983V20.0128L34.6972 19.3932C34.5666 19.0132 34.4066 18.6315 34.2204 18.2537L35.0991 16.4965L31.5034 12.9008L29.7463 13.7795C29.3684 13.5933 28.9867 13.4334 28.6067 13.3027L27.9871 11.4444H22.9016L22.2821 13.3027C21.9021 13.4334 21.5203 13.5933 21.1425 13.7795L19.3854 12.9008L15.7897 16.4965L16.6683 18.2537C16.4822 18.6315 16.3222 19.0132 16.1916 19.3932L14.3333 20.0128V25.0979L16.1916 25.7172C16.3213 26.0946 16.4791 26.4729 16.6636 26.8477L16.092 27.8889H13.4444V36.7778H16.5555V35.4444H19.927L21.2604 36.7778H23.6666V37.2222C23.6666 38.2027 24.4639 39 25.4444 39C26.4249 39 27.2222 38.2027 27.2222 37.2222V36.7778H30.3337C31.0687 36.7778 31.667 36.1795 31.667 35.4444C31.667 35.1018 31.5334 34.7921 31.3205 34.5556C31.5338 34.319 31.667 34.0093 31.667 33.6667C31.667 33.324 31.5334 33.0143 31.3205 32.7778C31.4902 32.5894 31.6061 32.3542 31.6466 32.092L35.0983 28.6128L34.2204 26.8574C34.4066 26.4796 34.5661 26.0979 34.6972 25.7179L36.5555 25.0983ZM15.6666 35.8889H14.3333V28.7778H15.6666V35.8889ZM21.6284 35.8889L20.2951 34.5556H16.5555V29.6667H21.184L22.9618 27.8889H28.5555C28.8003 27.8889 28.9999 28.0881 28.9999 28.3333C28.9999 28.5786 28.8003 28.7778 28.5555 28.7778H23.927L22.019 30.6858L22.6475 31.3142L23.6666 30.2951V35.8889H21.6284ZM30.7782 33.6667C30.7782 33.9119 30.5785 34.1111 30.3337 34.1111H26.7777C26.5329 34.1111 26.3333 33.9119 26.3333 33.6667C26.3333 33.4214 26.5329 33.2222 26.7777 33.2222H30.3337C30.5785 33.2222 30.7782 33.4214 30.7782 33.6667ZM26.7777 32.3333C26.5329 32.3333 26.3333 32.1341 26.3333 31.8889C26.3333 31.6437 26.5329 31.4444 26.7777 31.4444H30.3337C30.5785 31.4444 30.7782 31.6437 30.7782 31.8889C30.7782 32.1341 30.5785 32.3333 30.3337 32.3333H26.7777ZM30.3337 30.5556H26.7777C26.5329 30.5556 26.3333 30.3563 26.3333 30.1111C26.3333 29.8659 26.5329 29.6667 26.7777 29.6667H30.3337C30.5785 29.6667 30.7782 29.8659 30.7782 30.1111C30.7782 30.3563 30.5785 30.5556 30.3337 30.5556ZM24.3715 22.5556H26.5173L27.2222 21.8507V19.8889C27.7124 19.8889 28.1111 20.2875 28.1111 20.7778V22.816L26.5937 24.3333H24.2951L22.7777 22.816V20.7778C22.7777 20.2875 23.1764 19.8889 23.6666 19.8889V21.8507L24.3715 22.5556ZM24.5555 25.2222H26.3333V27H24.5555V25.2222ZM27.2222 24.9618L28.9999 23.184V20.7778C28.9999 19.7973 28.2026 19 27.2222 19H26.3333V21.4826L26.1493 21.6667H24.7395L24.5555 21.4826V19H23.6666C22.6861 19 21.8888 19.7973 21.8888 20.7778V23.184L23.6666 24.9618V27H22.5937L22.5657 27.028C21.0483 26.0488 20.1111 24.3702 20.1111 22.5556C20.1111 19.6146 22.5034 17.2222 25.4444 17.2222C28.3854 17.2222 30.7777 19.6146 30.7777 22.5556C30.7777 24.357 29.8778 26.0067 28.3715 27H27.2222V24.9618ZM29.8676 28.1222C29.8168 27.8071 29.656 27.5315 29.4249 27.3312C30.8413 26.1552 31.6666 24.4236 31.6666 22.5556C31.6666 19.1243 28.8756 16.3333 25.4444 16.3333C22.0132 16.3333 19.2222 19.1243 19.2222 22.5556C19.2222 24.6085 20.2434 26.52 21.9186 27.6751L21.2786 28.3151C19.4329 26.9783 18.3333 24.8388 18.3333 22.5556C18.3333 18.6348 21.5236 15.4444 25.4444 15.4444C29.3652 15.4444 32.5555 18.6348 32.5555 22.5556C32.5555 24.752 31.5627 26.7786 29.8676 28.1222ZM25.4444 38.1111C24.9542 38.1111 24.5555 37.7125 24.5555 37.2222V29.6667H25.5262C25.4763 29.8062 25.4444 29.9546 25.4444 30.1111C25.4444 30.4538 25.5781 30.7635 25.791 31C25.5776 31.2365 25.4444 31.5462 25.4444 31.8889C25.4444 32.2316 25.5781 32.5412 25.791 32.7778C25.5776 33.0143 25.4444 33.324 25.4444 33.6667C25.4444 34.0093 25.5781 34.319 25.791 34.5556C25.5776 34.7921 25.4444 35.1018 25.4444 35.4444C25.4444 36.023 25.8172 36.5119 26.3333 36.696V37.2222C26.3333 37.7125 25.9346 38.1111 25.4444 38.1111ZM30.3337 35.8889H26.7777C26.5329 35.8889 26.3333 35.6897 26.3333 35.4444C26.3333 35.1992 26.5329 35 26.7777 35H30.3337C30.5785 35 30.7782 35.1992 30.7782 35.4444C30.7782 35.6897 30.5785 35.8889 30.3337 35.8889ZM34.0182 28.4401L31.3919 31.0866C31.3693 31.0569 31.3452 31.0276 31.3205 31C31.5338 30.7635 31.667 30.4538 31.667 30.1111C31.667 29.4178 31.1332 28.8533 30.4563 28.7901C32.3417 27.2791 33.4444 25.0115 33.4444 22.5556C33.4444 18.1445 29.8554 14.5556 25.4444 14.5556C21.0334 14.5556 17.4444 18.1445 17.4444 22.5556C17.4444 24.9818 18.5475 27.2641 20.4199 28.7778H16.6182L17.6701 26.8613L17.5605 26.6502C17.3159 26.1803 17.1165 25.7031 16.9674 25.232L16.899 25.0161L15.2222 24.4572V20.6534L16.899 20.0946L16.967 19.8783C17.1154 19.4076 17.3151 18.9301 17.5598 18.4605L17.6644 18.2591L16.871 16.6721L19.5605 13.9826L21.1475 14.776L21.3489 14.6717C21.819 14.4266 22.296 14.2272 22.7667 14.0786L22.983 14.0106L23.5427 12.3333H27.3465L27.9053 14.0102L28.1217 14.0781C28.5924 14.2266 29.0698 14.4262 29.5394 14.671L29.7408 14.7756L31.3279 13.9822L34.0173 16.6717L33.2239 18.2587L33.3283 18.4601C33.5733 18.9301 33.7727 19.4071 33.9214 19.8778L33.9893 20.0942L35.6666 20.6539V24.4577L33.9897 25.0165L33.9214 25.2324C33.7723 25.7036 33.5729 26.181 33.3283 26.6506L33.2239 26.852L34.0182 28.4401ZM12.9999 15.8889H12.1111V15H12.9999V15.8889ZM12.9999 18.1111H12.1111V17.2222H12.9999V18.1111ZM12.1111 19.4444H12.9999V20.3333H12.1111V19.4444ZM37.8888 30.5556H36.9999V29.6667H37.8888V30.5556ZM36.9999 31.8889H37.8888V32.7778H36.9999V31.8889ZM36.9999 34.1111H37.8888V35H36.9999V34.1111Z" fill="white"/>
</g>
<defs>
<clipPath id="clip0_9088_5524">
<rect width="28" height="28" fill="white" transform="translate(11 11)"/>
</clipPath>
</defs>
</svg>
