<svg width="8" height="12" viewBox="0 0 8 12" fill="none" xmlns="http://www.w3.org/2000/svg">
<path fill-rule="evenodd" clip-rule="evenodd" d="M0.910711 5.40903C0.754485 5.5653 0.666722 5.77723 0.666722 5.9982C0.666722 6.21917 0.754485 6.43109 0.910711 6.58736L5.62488 11.3015C5.70175 11.3811 5.7937 11.4446 5.89537 11.4883C5.99704 11.532 6.10639 11.5549 6.21704 11.5559C6.32769 11.5569 6.43742 11.5358 6.53984 11.4939C6.64225 11.452 6.7353 11.3901 6.81354 11.3119C6.89178 11.2336 6.95366 11.1406 6.99556 11.0382C7.03746 10.9357 7.05855 10.826 7.05759 10.7154C7.05662 10.6047 7.03364 10.4954 6.98996 10.3937C6.94629 10.292 6.8828 10.2001 6.80321 10.1232L2.67821 5.9982L6.80321 1.8732C6.95501 1.71603 7.039 1.50553 7.03711 1.28703C7.03521 1.06853 6.94757 0.859522 6.79306 0.705015C6.63855 0.550508 6.42954 0.462868 6.21104 0.460969C5.99255 0.45907 5.78205 0.543066 5.62488 0.694864L0.910711 5.40903Z" fill="currentColor"/>
</svg>
