<svg viewBox="0 0 64 64" fill="none" xmlns="http://www.w3.org/2000/svg">
<circle cx="32" cy="32" r="32" fill="#20282D"/>
<path d="M26.1667 39C25.8167 39 25.5833 38.8833 25.35 38.65C24.8833 38.1833 24.8833 37.4833 25.35 37.0167L37.0167 25.35C37.4833 24.8833 38.1833 24.8833 38.65 25.35C39.1167 25.8167 39.1167 26.5167 38.65 26.9833L26.9833 38.65C26.75 38.8833 26.5167 39 26.1667 39Z" fill="white"/>
<path d="M37.8332 37.8333C37.1332 37.8333 36.6665 37.3667 36.6665 36.6667V27.3333H27.3332C26.6332 27.3333 26.1665 26.8667 26.1665 26.1667C26.1665 25.4667 26.6332 25 27.3332 25H37.8332C38.5332 25 38.9998 25.4667 38.9998 26.1667V36.6667C38.9998 37.3667 38.5332 37.8333 37.8332 37.8333Z" fill="white"/>
</svg>
