<svg width="52" height="52" viewBox="0 0 52 52" fill="none" xmlns="http://www.w3.org/2000/svg">
<circle cx="26" cy="26" r="25.5" fill="white" stroke="currentColor"/>
<path d="M32.5 18.2857C32.5 17.5757 31.9179 17 31.2 17H14.3C13.5821 17 13 17.5757 13 18.2857C13 18.9958 13.5821 19.5714 14.3 19.5714H31.2C31.9179 19.5714 32.5 18.9957 32.5 18.2857ZM14.3 24.7143H37.7C38.4179 24.7143 39 25.29 39 26C39 26.7101 38.4179 27.2857 37.7 27.2857H14.3C13.5821 27.2857 13 26.7101 13 26C13 25.29 13.5821 24.7143 14.3 24.7143ZM14.3 32.4286H26C26.7179 32.4286 27.3 33.0042 27.3 33.7143C27.3 34.4243 26.7179 35 26 35H14.3C13.5821 35 13 34.4243 13 33.7143C13 33.0042 13.5821 32.4286 14.3 32.4286Z" fill="currentColor"/>
</svg>
