<svg width="60" height="60" viewBox="0 0 60 60" fill="none" xmlns="http://www.w3.org/2000/svg">
<circle cx="30" cy="30" r="29.5" stroke="#1C2539"/>
<g clip-path="url(#clip0_9088_7881)">
<path d="M30.2367 26.3969C29.9451 26.3727 29.6871 26.591 29.6632 26.8839L29.5444 28.3407C29.3383 28.2575 29.1135 28.2112 28.878 28.2112H28.6278V26.8196C28.6278 26.1923 28.1175 25.6819 27.4902 25.6819H25.3008C23.6635 25.6819 22.0433 25.137 20.7387 24.1476L20.488 23.9575C20.2973 23.8129 20.062 23.7528 19.8255 23.7878C19.5889 23.823 19.3813 23.949 19.241 24.1428C18.5807 25.0547 18.2317 26.1318 18.2317 27.2577V28.2112H17.9815C17.7556 28.2112 17.5394 28.2539 17.3403 28.3307L16.8959 25.1623C16.8345 24.7242 16.852 24.2829 16.948 23.8506C17.0117 23.5639 16.831 23.2797 16.5442 23.216C16.2574 23.1521 15.9732 23.3331 15.9095 23.6198C15.7857 24.1768 15.7632 24.7454 15.8422 25.3101L16.387 29.1942C16.2649 29.4358 16.1956 29.7085 16.1956 29.9972C16.1956 30.9821 16.9968 31.7833 17.9817 31.7833H18.2478C18.3716 33.4531 19.2868 34.9052 20.6197 35.7654V37.1111L16.9487 38.8461C14.3185 40.089 12.6191 42.7718 12.6191 45.6807V47.4674C12.6191 47.7612 12.8573 47.9993 13.1511 47.9993C13.445 47.9993 13.6831 47.7612 13.6831 47.4674V45.6807C13.6831 43.1812 15.1433 40.8761 17.4031 39.808L20.7367 38.2325C21.073 39.3302 22.0957 40.1307 23.3021 40.1307C24.5084 40.1307 25.5312 39.3301 25.8674 38.2325L29.2013 39.8081L29.2547 39.8346C29.3297 39.871 29.4089 39.8882 29.4868 39.8882C29.6842 39.8882 29.8737 39.778 29.9657 39.5886C30.0941 39.3243 29.984 39.0061 29.7198 38.8777L29.7013 38.8686C29.6861 38.8609 29.6709 38.8533 29.6556 38.8461L25.9846 37.1111V35.9201C27.4549 35.0865 28.4803 33.5578 28.6118 31.7834H28.8779C29.8628 31.7834 30.664 30.9821 30.664 29.9973C30.664 29.759 30.6167 29.5318 30.5317 29.3237L30.7236 26.9704C30.7475 26.6775 30.5295 26.4208 30.2367 26.3969ZM17.2593 29.9972C17.2593 29.599 17.5833 29.2751 17.9815 29.2751H18.2316V30.7194H17.9815C17.5833 30.7194 17.2593 30.3954 17.2593 29.9972ZM24.9208 37.4481C24.9208 38.3406 24.1947 39.0668 23.3021 39.0668C22.4095 39.0668 21.6834 38.3406 21.6834 37.4481V36.2914C22.2296 36.4868 22.8173 36.5941 23.4298 36.5941C23.9479 36.5941 24.4482 36.5168 24.9208 36.375V37.4481ZM27.5639 31.3959C27.5639 33.6755 25.7093 35.5301 23.4298 35.5301C21.1502 35.5301 19.2956 33.6755 19.2956 31.3959V27.2577C19.2956 26.4198 19.5373 25.6156 19.9966 24.9201L20.0958 24.9954C21.5842 26.1242 23.4327 26.7458 25.3008 26.7458H27.4902C27.5308 26.7458 27.5639 26.7789 27.5639 26.8196V31.3959ZM28.878 30.7194H28.6278V29.2751H28.878C29.2761 29.2751 29.6001 29.599 29.6001 29.9972C29.6001 30.3954 29.2762 30.7194 28.878 30.7194Z" fill="#1C2539"/>
<path d="M17.4977 22.2682C17.638 22.2682 17.7781 22.213 17.8826 22.1035C18.4046 21.5567 19.0725 21.188 19.8141 21.0374C19.8484 21.0304 19.882 21.02 19.9144 21.0064L21.643 20.2796C24.0632 19.262 26.8038 19.9557 28.462 22.0064C28.6468 22.2348 28.9819 22.2702 29.2102 22.0854C29.4387 21.9007 29.4741 21.5657 29.2894 21.3373C28.3772 20.2094 27.1072 19.3774 25.7135 18.9944C24.2261 18.5858 22.6761 18.691 21.2307 19.2988L19.5492 20.0058C18.6147 20.2065 17.7734 20.6771 17.113 21.3689C16.9101 21.5814 16.9179 21.9182 17.1304 22.121C17.2336 22.2194 17.3657 22.2682 17.4977 22.2682Z" fill="#1C2539"/>
<path d="M30.9625 40.2847C30.757 40.4945 30.7603 40.8313 30.9702 41.0369C32.21 42.2518 32.9211 43.9429 32.9211 45.6767V47.4634C32.9211 47.7572 33.1592 47.9954 33.4531 47.9954C33.7469 47.9954 33.985 47.7572 33.985 47.4634V45.6767C33.985 43.6588 33.1576 41.6906 31.7148 40.277C31.5049 40.0715 31.1682 40.0747 30.9625 40.2847Z" fill="#1C2539"/>
<path d="M17.1511 44.6719C16.8573 44.6719 16.6191 44.9101 16.6191 45.2038V47.4677C16.6191 47.7615 16.8573 47.9997 17.1511 47.9997C17.445 47.9997 17.6831 47.7615 17.6831 47.4677V45.2038C17.6831 44.9101 17.445 44.6719 17.1511 44.6719Z" fill="#1C2539"/>
<path d="M29.4529 44.6719C29.159 44.6719 28.9209 44.9101 28.9209 45.2038V47.4677C28.9209 47.7615 29.159 47.9997 29.4529 47.9997C29.7467 47.9997 29.9848 47.7615 29.9848 47.4677V45.2038C29.9848 44.9101 29.7467 44.6719 29.4529 44.6719Z" fill="#1C2539"/>
<path d="M39.8362 23.1695C39.5837 23.3197 39.5008 23.6462 39.6511 23.8987C39.7506 24.0659 39.9275 24.1586 40.1088 24.1586C40.2013 24.1586 40.2951 24.1345 40.3803 24.0837C41.976 23.1341 42.9672 21.3925 42.9672 19.5386C42.9672 19.3859 42.9598 19.2301 42.9449 19.0625C42.9187 18.7699 42.6601 18.5545 42.3675 18.5802C42.0748 18.6065 41.8589 18.865 41.8852 19.1576C41.8974 19.2933 41.9033 19.4179 41.9033 19.5387C41.9033 21.0194 41.1112 22.4106 39.8362 23.1695Z" fill="#1C2539"/>
<path d="M37.6812 15.314C38.3764 15.314 39.0658 15.4869 39.6749 15.8138C39.9337 15.9527 40.2561 15.8556 40.3951 15.5967C40.5341 15.3378 40.4369 15.0153 40.178 14.8764C39.4147 14.4666 38.5513 14.25 37.6812 14.25C34.7661 14.25 32.3945 16.6216 32.3945 19.5366C32.3945 22.4517 34.7661 24.8233 37.6812 24.8233C37.7694 24.8233 37.8598 24.821 37.9499 24.8165C38.2434 24.8018 38.4693 24.552 38.4546 24.2585C38.4399 23.9651 38.1918 23.7386 37.8967 23.7538C37.8243 23.7574 37.7517 23.7593 37.6812 23.7593C35.3528 23.7593 33.4585 21.865 33.4585 19.5366C33.4585 17.2082 35.3528 15.314 37.6812 15.314Z" fill="#1C2539"/>
<path d="M46.9867 15.1394L45.5427 14.3323L45.3644 12.6877C45.3352 12.4185 45.1714 12.189 44.9264 12.0738C44.6811 11.9587 44.4001 11.9792 44.1742 12.1286L41.7744 13.7166C41.5333 13.8762 41.4028 14.1539 41.4339 14.4415L41.6333 16.2811L39.7795 17.5078C39.2483 16.9579 38.5042 16.6149 37.6811 16.6149C36.0714 16.6149 34.7617 17.9246 34.7617 19.5343C34.7617 21.144 36.0714 22.4536 37.6811 22.4536C39.2908 22.4536 40.6004 21.144 40.6004 19.5343C40.6004 19.1299 40.5176 18.7445 40.3683 18.394L42.2204 17.1684L43.8357 18.0713C43.9532 18.137 44.0825 18.1696 44.2114 18.1696C44.3594 18.1696 44.5071 18.1266 44.6361 18.0413L47.0358 16.4533C47.2617 16.304 47.3905 16.0532 47.3803 15.7826C47.3703 15.512 47.2231 15.2716 46.9867 15.1394ZM39.5365 19.5344C39.5365 20.5574 38.7043 21.3897 37.6812 21.3897C36.6581 21.3897 35.8257 20.5574 35.8257 19.5344C35.8257 18.5113 36.6581 17.6789 37.6812 17.6789C38.1327 17.6789 38.547 17.8413 38.8691 18.1104L37.3877 19.0907C37.1427 19.2528 37.0755 19.5829 37.2376 19.8279C37.3399 19.9826 37.5092 20.0664 37.6817 20.0664C37.7825 20.0664 37.8845 20.0378 37.9748 19.978L39.457 18.9972C39.5085 19.1674 39.5365 19.3476 39.5365 19.5344ZM42.511 14.5051L44.3587 13.2824L44.4797 14.3979L42.632 15.6205L42.511 14.5051ZM44.1985 17.0552L43.219 16.5078L43.9407 16.0303L45.0668 15.2851L46.0462 15.8326L44.1985 17.0552Z" fill="#1C2539"/>
<path d="M44.6027 19.2041C44.307 19.1948 44.0641 19.427 44.0558 19.7207C44.009 21.3665 43.3296 22.9146 42.1428 24.0802C40.9554 25.2464 39.3937 25.8976 37.7454 25.914C36.1035 25.9302 34.5416 25.325 33.3412 24.21C33.2333 24.1097 33.0883 24.0588 32.9417 24.0691L30.3382 24.2528L31.6639 22.3008C31.7617 22.157 31.7829 21.9744 31.7208 21.812C31.4215 21.0291 31.2816 20.203 31.3048 19.3568C31.399 15.9267 34.2539 13.1578 37.6819 13.1578C37.7007 13.1578 37.72 13.1578 37.7387 13.158C38.5193 13.165 39.281 13.3117 40.0031 13.5941C40.2767 13.7011 40.5854 13.5662 40.6923 13.2925C40.7993 13.019 40.6643 12.7103 40.3907 12.6033C39.5477 12.2735 38.6586 12.1022 37.7483 12.094C37.7261 12.0938 37.7041 12.0938 37.6819 12.0938C33.6826 12.0938 30.3512 15.3251 30.2413 19.3275C30.2168 20.2193 30.3481 21.0925 30.6316 21.9272L29.2334 23.9857C29.0447 24.2636 29.0315 24.6172 29.1992 24.9084C29.3667 25.1996 29.6794 25.3658 30.0142 25.3421L32.7912 25.1461C34.1487 26.3307 35.8733 26.9781 37.6809 26.9781C37.7058 26.9781 37.7309 26.978 37.756 26.9778C39.6809 26.9587 41.5036 26.1992 42.8884 24.8392C44.2723 23.48 45.0646 21.6729 45.1193 19.7509C45.1277 19.4572 44.8963 19.2124 44.6027 19.2041Z" fill="#1C2539"/>
</g>
<defs>
<clipPath id="clip0_9088_7881">
<rect width="36" height="36" fill="white" transform="translate(12 12)"/>
</clipPath>
</defs>
</svg>
