<svg width="40" height="40" viewBox="0 0 40 40" fill="none" xmlns="http://www.w3.org/2000/svg">
<g clip-path="url(#clip0_9088_5440)">
<path d="M31.2904 35.4839H36.4517V30.3226H35.1614V27.6311C35.1614 27.3645 35.2149 27.1053 35.3195 26.8599L36.8351 23.325C37.0084 22.918 37.0969 22.4877 37.0969 22.0464V15.453C37.0969 14.9509 36.9781 14.4484 36.7544 14.0008C36.4511 13.3956 35.9763 12.9076 35.38 12.5892L32.6712 11.1445L36.5072 7.30847C36.8877 6.92824 37.0969 6.42263 37.0969 5.88458C37.0969 4.77413 36.1937 3.87097 35.0833 3.87097C34.5531 3.87097 34.0342 4.08581 33.6594 4.46069L31.2904 6.82964V0H2.90332V40H31.2904V35.4839ZM34.7717 13.727C35.1311 13.9189 35.4169 14.2128 35.5996 14.5782C35.735 14.8478 35.8059 15.1503 35.8059 15.453V22.0464C35.8059 22.3129 35.7524 22.5721 35.6478 22.8175L34.1322 26.3524C33.9596 26.7594 33.8711 27.1897 33.8711 27.6311V30.3226H28.7098V27.7876C28.7098 27.2237 28.562 26.6671 28.282 26.1763L26.3865 22.8607C26.2189 22.5652 26.1291 22.2297 26.1291 21.8898V13.5484C27.1961 13.5484 28.0646 14.4169 28.0646 15.4839V19.4156C28.0646 20.8052 29.1949 21.9355 30.5838 21.9355C31.6703 21.9355 32.6311 21.2431 32.9742 20.213L33.4782 18.7034C33.7388 17.9199 33.8711 17.1053 33.8711 16.2812C33.8711 15.5431 33.4606 14.8806 32.8013 14.5505L30.444 13.3717L31.7176 12.098L34.7717 13.727ZM24.8388 17.1522L21.9277 20.0627L20.564 20.4032L20.9051 19.0395L24.8388 15.1058V17.1522ZM13.8711 25.1285C10.6156 24.8037 8.06461 22.0489 8.06461 18.7097C8.06461 15.3705 10.6156 12.6156 13.8711 12.2908V25.1285ZM19.4964 19.3548H15.1614V12.2845C17.8904 12.5098 20.2912 14.1561 21.4867 16.6337L19.7402 18.3799L19.4964 19.3548ZM15.1614 20.6452H19.1738L18.791 22.1774L22.1362 21.3407C21.5349 24.7653 18.6808 27.4231 15.1614 27.7148V20.6452ZM26.6473 11.473L25.3387 10.8187C25.0303 10.6644 24.8388 10.3547 24.8388 10.011V9.93542C24.8388 9.43738 25.2439 9.03226 25.742 9.03226C25.8897 9.03226 26.0362 9.06912 26.1666 9.13874L28.0019 10.1175L26.6473 11.473ZM29.4819 14.3334L32.2238 15.7044C32.444 15.8143 32.5807 16.0355 32.5807 16.2812C32.5807 16.9664 32.4711 17.6446 32.2544 18.2948L31.751 19.8044C31.5834 20.3078 31.1143 20.6452 30.5838 20.6452C29.9059 20.6452 29.3549 20.0936 29.3549 19.4156V15.4839C29.3549 15.1748 29.2976 14.8825 29.2163 14.5993L29.4819 14.3334ZM34.5717 5.37298C34.7065 5.23879 34.893 5.16129 35.0833 5.16129C35.4821 5.16129 35.8065 5.48576 35.8065 5.88458C35.8065 6.078 35.7316 6.25945 35.5949 6.39617L28.58 13.411C28.2628 13.0362 27.8712 12.7284 27.4157 12.529L34.5717 5.37298ZM30.0001 35.4839V38.7097H4.19364V1.29032H30.0001V8.11996L28.9561 9.16394L26.7737 7.99994C26.4567 7.83109 26.1001 7.74194 25.742 7.74194C24.5323 7.74194 23.5485 8.72574 23.5485 9.93542V10.011C23.5485 10.8471 24.0138 11.5987 24.7613 11.9736L25.5832 12.3844C25.2364 12.5485 24.9749 12.8607 24.8807 13.2406L22.4434 15.6779C20.8711 12.7904 17.8561 10.9677 14.5162 10.9677H13.8711V11.0005C9.90338 11.3303 6.77429 14.6588 6.77429 18.7097C6.77429 22.7605 9.90338 26.089 13.8711 26.4189V29.0323H14.5162C19.4012 29.0323 23.3834 25.1311 23.5343 20.2819L24.8388 18.9768V21.8892C24.8388 22.4527 24.9865 23.0097 25.2666 23.5005L27.1621 26.8161C27.3297 27.1122 27.4195 27.4477 27.4195 27.7876V30.3226H26.1291V35.4839H28.7098V34.1936H27.4195V31.6129H35.1614V34.1936H31.2904C30.5788 34.1936 30.0001 34.7722 30.0001 35.4839ZM16.4517 22.5806H17.742V23.871H16.4517V22.5806ZM20.3227 23.871H19.0324V22.5806H20.3227V23.871ZM9.35493 16.7742H12.5807V18.0645H9.35493V16.7742ZM9.35493 19.3548H12.5807V20.6452H9.35493V19.3548ZM14.5162 36.129H15.8065V37.4194H5.48397V27.7419H6.77429V36.129H8.06461V29.6774H9.35493V36.129H10.6453V31.6129H11.9356V36.129H13.2259V32.9032H14.5162V36.129ZM21.613 29.0323H24.8388V32.2581H23.5485V31.2349L20.9678 33.8155L19.6775 32.5252L16.9079 35.2949L15.9956 34.3826L19.6775 30.7006L20.9678 31.9909L22.6362 30.3226H21.613V29.0323ZM6.77429 3.87097H5.48397V2.58065H6.77429V3.87097ZM17.0969 3.87097H8.06461V2.58065H17.0969V3.87097ZM6.77429 6.45161H5.48397V5.16129H6.77429V6.45161ZM17.0969 6.45161H8.06461V5.16129H17.0969V6.45161ZM6.77429 9.03226H5.48397V7.74194H6.77429V9.03226ZM17.0969 9.03226H8.06461V7.74194H17.0969V9.03226ZM23.5485 3.87097H22.2582V2.58065H23.5485V3.87097ZM26.1291 3.87097H24.8388V2.58065H26.1291V3.87097ZM28.7098 3.87097H27.4195V2.58065H28.7098V3.87097Z" fill="#1C2539"/>
</g>
<defs>
<clipPath id="clip0_9088_5440">
<rect width="40" height="40" fill="white"/>
</clipPath>
</defs>
</svg>
