<svg width="50" height="50" viewBox="0 0 50 50" fill="none" xmlns="http://www.w3.org/2000/svg">
<path fill-rule="evenodd" clip-rule="evenodd" d="M43.2812 13.875L33.0312 3.5625L31.9375 3.125H7.8125L6.25 4.6875V21.875H9.375V6.25H28.125V17.1875L29.6875 18.75H40.625V21.875H43.75V15L43.2812 13.875ZM31.25 15.625V6.25L40.625 15.625H31.25ZM7.8125 25L6.25 26.5625V45.3125L7.8125 46.875H42.1875L43.75 45.3125V26.5625L42.1875 25H7.8125ZM40.625 40.625V43.75H9.375V28.125H40.625V40.625ZM15.625 37.5H14.625V40.625H12.5V31.25H15.8125C18.1562 31.25 19.3438 32.375 19.3438 34.375C19.3498 34.8001 19.2635 35.2214 19.0909 35.6098C18.9182 35.9983 18.6633 36.3447 18.3438 36.625C17.5693 37.2287 16.6062 37.5386 15.625 37.5ZM15.4375 32.9688H14.625V35.875H15.4375C16.5625 35.875 17.125 35.375 17.125 34.4062C17.125 33.4375 16.5625 32.9688 15.4375 32.9688ZM28.125 39.3125C28.5865 38.8579 28.9474 38.3115 29.1843 37.7085C29.4211 37.1056 29.5287 36.4597 29.5 35.8125C29.5 32.6875 27.8438 31.25 24.5 31.25H21.1875V40.625H24.5C25.161 40.657 25.8218 40.5575 26.4441 40.3322C27.0664 40.1069 27.6377 39.7603 28.125 39.3125ZM23.2812 38.9062V32.9688H24.3125C24.7111 32.9434 25.1106 32.9996 25.4868 33.134C25.8629 33.2683 26.2076 33.4779 26.5 33.75C26.7649 34.0281 26.9706 34.3571 27.1049 34.7169C27.2392 35.0768 27.2992 35.4601 27.2812 35.8438C27.3281 36.6675 27.0472 37.4763 26.5 38.0938C26.2139 38.3675 25.8754 38.5806 25.5049 38.7202C25.1343 38.8599 24.7394 38.9231 24.3438 38.9062H23.2812ZM37.1875 37H34.1562V40.625H32.0312V31.25H37.4688V32.9688H34.1562V35.2812H37.1875V37Z" fill="CurrentColor"/>
</svg>
