<svg width="44" height="44" viewBox="0 0 44 44" fill="none" xmlns="http://www.w3.org/2000/svg">
<path d="M23.8337 3.67188C28.2097 3.67188 32.4066 5.41026 35.5009 8.50461C38.5953 11.599 40.3337 15.7958 40.3337 20.1719M23.8337 11.0052C26.2648 11.0052 28.5964 11.971 30.3155 13.6901C32.0346 15.4091 33.0003 17.7407 33.0003 20.1719M25.359 30.3799C25.7376 30.5538 26.1642 30.5935 26.5684 30.4925C26.9727 30.3915 27.3304 30.1559 27.5828 29.8244L28.2337 28.9719C28.5752 28.5165 29.0181 28.1469 29.5272 27.8923C30.0363 27.6377 30.5978 27.5052 31.167 27.5052H36.667C37.6395 27.5052 38.5721 27.8915 39.2597 28.5791C39.9473 29.2668 40.3337 30.1994 40.3337 31.1719V36.6719C40.3337 37.6443 39.9473 38.577 39.2597 39.2646C38.5721 39.9522 37.6395 40.3385 36.667 40.3385C27.9148 40.3385 19.5212 36.8618 13.3325 30.6731C7.14377 24.4844 3.66699 16.0907 3.66699 7.33854C3.66699 6.36608 4.0533 5.43345 4.74093 4.74582C5.42857 4.05818 6.3612 3.67188 7.33366 3.67188H12.8337C13.8061 3.67188 14.7387 4.05818 15.4264 4.74582C16.114 5.43345 16.5003 6.36608 16.5003 7.33854V12.8385C16.5003 13.4078 16.3678 13.9692 16.1132 14.4783C15.8587 14.9875 15.489 15.4303 15.0337 15.7719L14.1757 16.4154C13.8391 16.6724 13.6019 17.0379 13.5043 17.45C13.4067 17.8621 13.4548 18.2952 13.6403 18.6759C16.1459 23.765 20.2668 27.8807 25.359 30.3799Z" stroke="#20282D" stroke-width="2" stroke-linecap="round" stroke-linejoin="round"/>
</svg>
