<svg width="40" height="40" viewBox="0 0 40 40" fill="none" xmlns="http://www.w3.org/2000/svg">
<g clip-path="url(#clip0_9088_5460)">
<path d="M9.67742 3.87097C6.47548 3.87097 3.87097 6.47613 3.87097 9.67742C3.87097 12.8787 6.47548 15.4839 9.67742 15.4839C12.8794 15.4839 15.4839 12.8787 15.4839 9.67742C15.4839 6.47613 12.8794 3.87097 9.67742 3.87097ZM9.67742 14.1935C7.18774 14.1935 5.16129 12.1677 5.16129 9.67742C5.16129 7.1871 7.18774 5.16129 9.67742 5.16129C12.1671 5.16129 14.1935 7.1871 14.1935 9.67742C14.1935 12.1677 12.1671 14.1935 9.67742 14.1935ZM9.67742 6.45161C7.89871 6.45161 6.45161 7.89871 6.45161 9.67742C6.45161 11.4561 7.89871 12.9032 9.67742 12.9032C11.4561 12.9032 12.9032 11.4561 12.9032 9.67742C12.9032 7.89871 11.4561 6.45161 9.67742 6.45161ZM9.67742 11.6129C8.61032 11.6129 7.74194 10.7445 7.74194 9.67742C7.74194 8.61032 8.61032 7.74194 9.67742 7.74194C10.7445 7.74194 11.6129 8.61032 11.6129 9.67742C11.6129 10.7445 10.7445 11.6129 9.67742 11.6129ZM38.7097 0H29.6774C28.9658 0 28.3871 0.57871 28.3871 1.29032V2.58065H23.2258C22.5142 2.58065 21.9355 3.15935 21.9355 3.87097V9.03226H19.3548V7.09677H17.4652C17.0652 7.09677 16.9077 6.79161 16.8684 6.69806C16.8297 6.60452 16.7258 6.27806 17.009 5.99548L18.3445 4.65935L14.6955 1.00968L13.3594 2.34581C13.0781 2.62839 12.751 2.52452 12.6561 2.48581C12.5632 2.4471 12.2581 2.28968 12.2581 1.88968V0H7.09677V1.88968C7.09677 2.28968 6.79161 2.4471 6.69871 2.48581C6.60452 2.52452 6.27677 2.62839 5.99548 2.34581L4.65935 1.00968L1.00968 4.65935L2.34516 5.99613C2.62774 6.27871 2.52387 6.60516 2.48581 6.69871C2.4471 6.79161 2.28968 7.09677 1.88968 7.09677H0V12.2581H1.88968C2.28968 12.2581 2.4471 12.5632 2.48645 12.6568C2.52516 12.7503 2.62903 13.0768 2.34581 13.3594L1.01032 14.6955L3.87097 17.5568V30.5768C3.87097 30.9594 3.98323 31.3303 4.19613 31.6503L9.67742 39.8729L15.1587 31.6503C15.2981 31.4413 15.389 31.2097 15.4394 30.9677H21.9355V36.129C21.9355 36.8406 22.5142 37.4194 23.2258 37.4194H28.3871V38.7097C28.3871 39.4213 28.9658 40 29.6774 40H38.7097C39.4213 40 40 39.4213 40 38.7097V34.8387C40 34.1271 39.4213 33.5484 38.7097 33.5484H29.6774C28.9658 33.5484 28.3871 34.1271 28.3871 34.8387V36.129H23.2258V30.9677C23.2258 30.2561 22.6471 29.6774 21.9355 29.6774H15.4839V25.8064H24.5161V27.7419C24.5161 28.4535 25.0948 29.0323 25.8064 29.0323H30.9677V29.6774C30.9677 30.389 31.5465 30.9677 32.2581 30.9677H36.129C36.8406 30.9677 37.4194 30.389 37.4194 29.6774V27.0968C37.4194 26.3852 36.8406 25.8064 36.129 25.8064H32.2581C31.5465 25.8064 30.9677 26.3852 30.9677 27.0968V27.7419H25.8064V25.8064C25.8064 25.0948 25.2277 24.5161 24.5161 24.5161H15.4839V20.6452H28.3871V21.9355C28.3871 22.6471 28.9658 23.2258 29.6774 23.2258H38.7097C39.4213 23.2258 40 22.6471 40 21.9355V18.0645C40 17.3529 39.4213 16.7742 38.7097 16.7742H29.6774C28.9658 16.7742 28.3871 17.3529 28.3871 18.0645V19.3548H15.4839V17.5568L17.5568 15.4839H24.5161C25.2277 15.4839 25.8064 14.9052 25.8064 14.1935V12.2581H30.9677V12.9032C30.9677 13.6148 31.5465 14.1935 32.2581 14.1935H36.129C36.8406 14.1935 37.4194 13.6148 37.4194 12.9032V10.3226C37.4194 9.61097 36.8406 9.03226 36.129 9.03226H32.2581C31.5465 9.03226 30.9677 9.61097 30.9677 10.3226V10.9677H25.8064C25.0948 10.9677 24.5161 11.5465 24.5161 12.2581V14.1935H17.8432L17.009 13.3594C16.7265 13.0768 16.8303 12.7503 16.8684 12.6568C16.9077 12.5632 17.0652 12.2581 17.4652 12.2581H19.3548V10.3226H21.9355C22.6471 10.3226 23.2258 9.74387 23.2258 9.03226V3.87097H28.3871V5.16129C28.3871 5.8729 28.9658 6.45161 29.6774 6.45161H38.7097C39.4213 6.45161 40 5.8729 40 5.16129V1.29032C40 0.57871 39.4213 0 38.7097 0ZM29.6774 34.8387H38.7097L38.7103 38.7097H29.6774V34.8387ZM32.2581 27.0968H36.129L36.1297 29.6774H32.2581V27.0968ZM29.6774 18.0645H38.7097L38.7103 21.9355H29.6774V18.0645ZM32.2581 10.3226H36.129V12.9032H32.2581V10.3226ZM5.29097 30.9677H14.0632L12.3426 33.5484H7.01161L5.29097 30.9677ZM12.2581 29.6774V19.3548V18.7097V17.4652C12.2581 17.0652 12.5632 16.9077 12.6561 16.869C12.7503 16.8297 13.0774 16.7258 13.3594 17.009L14.1935 17.8432V29.6774H12.2581ZM10.9677 29.6774H8.3871V19.3548H10.9677V29.6774ZM7.09677 18.7097V19.3548V29.6774H5.16129V17.8432L5.99548 17.009C6.27742 16.7265 6.60516 16.831 6.69871 16.869C6.79161 16.9077 7.09677 17.0652 7.09677 17.4652V18.7097ZM7.87226 34.8387H11.4826L9.67742 37.5464L7.87226 34.8387ZM18.0645 10.9677H17.4652C16.6671 10.9677 15.9819 11.4258 15.6768 12.1632C15.3716 12.9 15.5329 13.7084 16.0968 14.2723L16.52 14.6961L14.6955 16.5213L14.2716 16.0974C13.7084 15.5335 12.9006 15.3723 12.1619 15.6781C11.4258 15.9819 10.9677 16.6671 10.9677 17.4652V18.0645H8.3871V17.4652C8.3871 16.6677 7.92903 15.9826 7.19226 15.6774C6.45419 15.3723 5.64645 15.5335 5.08258 16.0968L4.65871 16.5206L2.83419 14.6955L3.25742 14.2716C3.82129 13.7077 3.98258 12.8994 3.67742 12.1626C3.3729 11.4258 2.68774 10.9677 1.88968 10.9677H1.29032V8.3871H1.88968C2.68774 8.3871 3.3729 7.92903 3.67806 7.19161C3.98323 6.45484 3.82194 5.64645 3.25806 5.08258L2.83484 4.65935L4.65935 2.83419L5.08323 3.25806C5.6471 3.82258 6.45484 3.98387 7.1929 3.67742C7.92903 3.3729 8.3871 2.68774 8.3871 1.88968V1.29032H10.9677V1.88968C10.9677 2.6871 11.4258 3.37226 12.1626 3.67742C12.9013 3.98387 13.7084 3.82194 14.2723 3.25806L14.6961 2.83419L16.5206 4.65935L16.0968 5.08258C15.5329 5.64645 15.3716 6.45484 15.6768 7.19161C15.9819 7.92903 16.6671 8.3871 17.4652 8.3871H18.0645V10.9677ZM38.7097 5.16129H29.6774V1.29032H38.7097V5.16129Z" fill="#1C2539"/>
</g>
<defs>
<clipPath id="clip0_9088_5460">
<rect width="40" height="40" fill="white"/>
</clipPath>
</defs>
</svg>
