<svg width="17" height="16" viewBox="0 0 17 16" fill="none" xmlns="http://www.w3.org/2000/svg">
<path d="M3.78357 2.16742C3.78326 2.84601 3.37157 3.45666 2.74262 3.71142C2.11367 3.96619 1.39306 3.81419 0.920587 3.32711C0.448112 2.84001 0.318129 2.11511 0.59192 1.49421C0.86572 0.873305 1.48862 0.480397 2.1669 0.500755C3.0678 0.527797 3.78398 1.26612 3.78357 2.16742ZM3.83357 5.06742H0.500237V15.5007H3.83357V5.06742ZM9.10025 5.06742H5.78357V15.5007H9.06692V10.0257C9.06692 6.97573 13.0419 6.6924 13.0419 10.0257V15.5007H16.3336V8.8924C16.3336 3.75075 10.4503 3.94242 9.06692 6.4674L9.10025 5.06742Z" fill="currentColor"/>
</svg>
