<svg width="18" height="20" viewBox="0 0 18 20" fill="none" xmlns="http://www.w3.org/2000/svg">
<path d="M9.00098 0.650391C11.499 0.650391 13.5437 2.69437 13.5439 5.19238C13.5439 7.69056 11.4992 9.73535 9.00098 9.73535C6.50299 9.73517 4.45898 7.69045 4.45898 5.19238C4.45919 2.69448 6.50308 0.650569 9.00098 0.650391Z" stroke="currentColor" stroke-width="1.3"/>
<path d="M5.2041 11.4092C5.22954 11.4041 5.2933 11.4126 5.34375 11.4502L5.34863 11.4531C6.41552 12.2405 7.68474 12.6464 8.99902 12.6465C10.3135 12.6465 11.5834 12.2407 12.6504 11.4531L12.6553 11.4502C12.6717 11.4383 12.7412 11.4086 12.8506 11.418C14.4691 11.6454 15.9118 12.559 16.8516 13.9482L16.8555 13.9531C17.0155 14.1843 17.152 14.4246 17.2607 14.6719C17.1428 14.8756 17.0147 15.073 16.8711 15.2705L16.7158 15.4775L16.708 15.4883C16.4195 15.8798 16.0836 16.2387 15.7285 16.5938C15.4317 16.8905 15.0922 17.1871 14.7559 17.4395C13.0785 18.6922 11.0607 19.3506 8.97656 19.3506C6.89732 19.3505 4.88498 18.6944 3.20996 17.4473C2.84577 17.1514 2.51261 16.8807 2.22559 16.5938L2.21875 16.5859L2.21094 16.5801L1.95215 16.3242C1.69963 16.0639 1.46736 15.7886 1.24609 15.4883L1.24316 15.4834L0.944336 15.0703C0.86428 14.9535 0.788425 14.8348 0.71875 14.7178C0.835661 14.4569 0.982086 14.185 1.14258 13.9531L1.14355 13.9541L1.15137 13.9424C2.06835 12.5567 3.53571 11.6401 5.16504 11.416L5.18457 11.4131L5.2041 11.4092Z" stroke="currentColor" stroke-width="1.3"/>
</svg>
