<svg width="16" height="18" viewBox="0 0 16 18" fill="none" xmlns="http://www.w3.org/2000/svg">
<path fill-rule="evenodd" clip-rule="evenodd" d="M8.0007 0.046875C6.95088 0.046875 5.94406 0.463912 5.20173 1.20624C4.4594 1.94858 4.04236 2.95539 4.04236 4.00521C4.04236 5.05502 4.4594 6.06184 5.20173 6.80417C5.94406 7.5465 6.95088 7.96354 8.0007 7.96354C9.05051 7.96354 10.0573 7.5465 10.7997 6.80417C11.542 6.06184 11.959 5.05502 11.959 4.00521C11.959 2.95539 11.542 1.94858 10.7997 1.20624C10.0573 0.463912 9.05051 0.046875 8.0007 0.046875ZM5.29236 4.00521C5.29236 3.28691 5.57771 2.59804 6.08562 2.09013C6.59353 1.58222 7.2824 1.29688 8.0007 1.29688C8.71899 1.29688 9.40787 1.58222 9.91578 2.09013C10.4237 2.59804 10.709 3.28691 10.709 4.00521C10.709 4.7235 10.4237 5.41238 9.91578 5.92029C9.40787 6.4282 8.71899 6.71354 8.0007 6.71354C7.2824 6.71354 6.59353 6.4282 6.08562 5.92029C5.57771 5.41238 5.29236 4.7235 5.29236 4.00521ZM8.0007 9.21354C6.0732 9.21354 4.29653 9.65187 2.9807 10.3919C1.68403 11.1219 0.709031 12.2269 0.709031 13.5885V13.6735C0.708198 14.6419 0.707364 15.8569 1.7732 16.7252C2.29736 17.1519 3.03153 17.456 4.0232 17.656C5.01653 17.8577 6.31236 17.9635 8.0007 17.9635C9.68903 17.9635 10.984 17.8577 11.979 17.656C12.9707 17.456 13.704 17.1519 14.229 16.7252C15.2949 15.8569 15.2932 14.6419 15.2924 13.6735V13.5885C15.2924 12.2269 14.3174 11.1219 13.0215 10.3919C11.7049 9.65187 9.92903 9.21354 8.0007 9.21354ZM1.95903 13.5885C1.95903 12.8794 2.47736 12.1094 3.5932 11.4819C4.68986 10.8652 6.24653 10.4635 8.00153 10.4635C9.75486 10.4635 11.3115 10.8652 12.4082 11.4819C13.5249 12.1094 14.0424 12.8794 14.0424 13.5885C14.0424 14.6785 14.009 15.2919 13.439 15.7552C13.1307 16.0069 12.614 16.2527 11.7307 16.431C10.8499 16.6094 9.6457 16.7135 8.0007 16.7135C6.3557 16.7135 5.1507 16.6094 4.2707 16.431C3.38736 16.2527 2.8707 16.0069 2.56236 15.756C1.99236 15.2919 1.95903 14.6785 1.95903 13.5885Z" fill="#1C2539"/>
</svg>
