<svg width="80" height="80" viewBox="0 0 80 80" fill="none" xmlns="http://www.w3.org/2000/svg">
<rect width="80" height="80" rx="10" fill="#20282D"/>
<path d="M40.7812 51.7188C40.7812 52.1503 40.4315 52.5 40 52.5C39.5685 52.5 39.2188 52.1503 39.2188 51.7188C39.2188 51.2872 39.5685 50.9375 40 50.9375C40.4315 50.9375 40.7812 51.2872 40.7812 51.7188Z" fill="white"/>
<path d="M57.4219 44.6875C57.4219 42.1027 55.3192 40 52.7344 40C50.1495 40 48.0469 42.1027 48.0469 44.6875C48.0469 47.2723 50.1495 49.375 52.7344 49.375C55.3192 49.375 57.4219 47.2723 57.4219 44.6875ZM52.7344 47.8125C51.0114 47.8125 49.6094 46.4105 49.6094 44.6875C49.6094 42.9645 51.0114 41.5625 52.7344 41.5625C54.4574 41.5625 55.8594 42.9645 55.8594 44.6875C55.8594 46.4105 54.4574 47.8125 52.7344 47.8125Z" fill="white"/>
<path d="M52.7344 49.375C50.7657 49.375 48.8025 50.1923 47.4652 51.5173C45.705 49.2041 42.9907 47.8125 40 47.8125C37.1359 47.8125 34.3607 49.1193 32.5351 51.5173C31.1975 50.1926 29.2346 49.375 27.2656 49.375C23.3273 49.375 20 52.5949 20 56.4062V57.9688C20 58.4003 20.3497 58.75 20.7812 58.75H59.2188C59.6503 58.75 60 58.4003 60 57.9688V56.4062C60 52.5949 56.6727 49.375 52.7344 49.375ZM21.5625 56.4062C21.5625 53.4418 24.1742 50.9375 27.2656 50.9375C28.9572 50.9375 30.6348 51.687 31.6733 52.8784C30.9866 54.2047 30.625 55.683 30.625 57.1875H21.5625V56.4062ZM40 49.375C44.3472 49.375 47.8125 52.9022 47.8125 57.1875H32.1875C32.1875 52.8452 35.7236 49.375 40 49.375ZM58.4375 57.1875H49.375C49.375 55.683 49.0134 54.2047 48.3267 52.8784C49.3652 51.687 51.0428 50.9375 52.7344 50.9375C55.8258 50.9375 58.4375 53.4418 58.4375 56.4062V57.1875Z" fill="white"/>
<path d="M31.9531 44.6875C31.9531 42.1027 29.8505 40 27.2656 40C24.6808 40 22.5781 42.1027 22.5781 44.6875C22.5781 47.2723 24.6808 49.375 27.2656 49.375C29.8505 49.375 31.9531 47.2723 31.9531 44.6875ZM27.2656 47.8125C25.5426 47.8125 24.1406 46.4105 24.1406 44.6875C24.1406 42.9645 25.5426 41.5625 27.2656 41.5625C28.9886 41.5625 30.3906 42.9645 30.3906 44.6875C30.3906 46.4105 28.9886 47.8125 27.2656 47.8125Z" fill="white"/>
<path d="M46.25 41.5625C46.25 38.1161 43.4464 35.3125 40 35.3125C36.5536 35.3125 33.75 38.1161 33.75 41.5625C33.75 45.0089 36.5536 47.8125 40 47.8125C43.4464 47.8125 46.25 45.0089 46.25 41.5625ZM40 46.25C37.4152 46.25 35.3125 44.1473 35.3125 41.5625C35.3125 38.9777 37.4152 36.875 40 36.875C42.5848 36.875 44.6875 38.9777 44.6875 41.5625C44.6875 44.1473 42.5848 46.25 40 46.25Z" fill="white"/>
<path d="M46.1828 25.7938C46.0909 25.5109 45.8465 25.3049 45.552 25.2621L42.1822 24.7729L40.6734 21.6882C40.5425 21.42 40.2703 21.25 39.9718 21.25C39.6734 21.25 39.4012 21.42 39.2699 21.6879L37.7614 24.7729L34.3917 25.2618C34.0972 25.3046 33.8528 25.5109 33.7609 25.7938C33.669 26.0767 33.7456 26.387 33.9587 26.5945L36.3988 28.9728L35.823 32.3312C35.7726 32.6242 35.8932 32.9205 36.1339 33.0951C36.3732 33.269 36.6918 33.2938 36.9567 33.1546L39.9718 31.5692L42.9882 33.1546C43.2513 33.2932 43.5702 33.27 43.8109 33.0951C44.0514 32.9202 44.172 32.6242 44.1216 32.3309L43.5451 28.9728L45.985 26.5945C46.198 26.387 46.2746 26.0767 46.1828 25.7938ZM42.1599 28.1406C41.9759 28.32 41.8917 28.5788 41.9353 28.8321L42.3135 31.0352L40.3353 29.9951C40.1076 29.8755 39.8357 29.8755 39.6081 29.9951L37.6305 31.0352L38.0083 28.8321C38.0517 28.5785 37.9674 28.32 37.7834 28.1406L36.1831 26.5808L38.3941 26.2598C38.6498 26.2228 38.8705 26.0617 38.9837 25.8298L39.9718 23.8095L40.9597 25.8298C41.0732 26.062 41.2939 26.2228 41.5493 26.2598L43.7606 26.5808L42.1599 28.1406Z" fill="white"/>
<path d="M57.8602 31.6492C57.7683 31.3663 57.5238 31.1603 57.2294 31.1176L54.9463 30.7858L53.9255 28.7167C53.794 28.45 53.5227 28.2812 53.2251 28.2812C53.2251 28.2812 53.2251 28.2812 53.2248 28.2812C52.9276 28.2812 52.656 28.45 52.5245 28.7167L51.503 30.7858L49.2197 31.1176C48.9255 31.1603 48.6811 31.3663 48.5892 31.6492C48.4971 31.9321 48.5737 32.2424 48.7867 32.45L50.4386 34.061L50.0486 36.3345C49.9985 36.6275 50.1188 36.9235 50.3595 37.0984C50.6 37.2733 50.9189 37.2964 51.182 37.1582L53.2248 36.0849L55.2671 37.1582C55.5301 37.2964 55.8493 37.2733 56.0898 37.0984C56.3303 36.9238 56.4505 36.6275 56.4005 36.3345L56.0105 34.061L57.6627 32.45C57.8757 32.2424 57.952 31.9321 57.8602 31.6492ZM54.6259 33.2291C54.4416 33.4085 54.3576 33.667 54.4013 33.9203L54.5929 35.0385L53.5886 34.5108C53.3609 34.3912 53.089 34.3912 52.8617 34.5108L51.8564 35.0388L52.0484 33.9203C52.0917 33.667 52.0078 33.4085 51.8238 33.2291L51.0108 32.4362L52.1341 32.2733C52.3887 32.2363 52.6087 32.0764 52.7225 31.846L53.2248 30.8282L53.7268 31.8457C53.8407 32.0764 54.0607 32.2363 54.3152 32.2733L55.4386 32.4362L54.6259 33.2291Z" fill="white"/>
<path d="M31.2977 31.6492C31.2058 31.3663 30.9613 31.1603 30.6669 31.1176L28.3838 30.7858L27.363 28.7167C27.2315 28.45 26.9602 28.2812 26.6626 28.2812C26.3651 28.2812 26.0935 28.45 25.962 28.7167L24.9405 30.7858L22.6572 31.1176C22.363 31.1603 22.1186 31.3663 22.0267 31.6492C21.9346 31.9321 22.0112 32.2424 22.2242 32.45L23.8761 34.061L23.4864 36.3345C23.436 36.6275 23.5566 36.9235 23.797 37.0984C24.0375 37.2733 24.3564 37.2964 24.6198 37.1582L26.6623 36.0849L28.7046 37.1582C28.9695 37.2974 29.2881 37.2723 29.5273 37.0984C29.7678 36.9238 29.8883 36.6275 29.838 36.3345L29.448 34.061L31.1002 32.45C31.3132 32.2424 31.3895 31.9321 31.2977 31.6492ZM28.0631 33.2291C27.8791 33.4085 27.7951 33.667 27.8385 33.9203L28.0304 35.0385L27.0258 34.5108C26.7984 34.3912 26.5265 34.3912 26.2992 34.5108L25.2936 35.0388L25.4856 33.9203C25.5292 33.667 25.445 33.4085 25.261 33.2291L24.448 32.4362L25.5716 32.2733C25.8258 32.2363 26.0459 32.0764 26.1597 31.846L26.662 30.8282L27.164 31.8457C27.2779 32.0764 27.4979 32.2363 27.7524 32.2733L28.8758 32.4362L28.0631 33.2291Z" fill="white"/>
<path d="M43.4232 51.9566C43.0625 51.7195 42.5782 51.8199 42.3414 52.1806C42.1043 52.541 42.2047 53.0254 42.5654 53.2625C43.2877 53.737 43.8651 54.3986 44.235 55.1756C44.4199 55.5647 44.8856 55.731 45.276 55.5452C45.6657 55.36 45.8311 54.8936 45.6458 54.5042C45.1533 53.4691 44.3845 52.588 43.4232 51.9566Z" fill="white"/>
</svg>
