<svg width="80" height="80" viewBox="0 0 80 80" fill="none" xmlns="http://www.w3.org/2000/svg">
<rect width="80" height="80" rx="10" fill="#20282D"/>
<path d="M47.7344 18C47.2598 18 46.875 18.3848 46.875 18.8594V22.8125C46.875 23.287 47.2598 23.6719 47.7344 23.6719C48.2089 23.6719 48.5938 23.287 48.5938 22.8125V18.8594C48.5938 18.3848 48.2089 18 47.7344 18Z" fill="white"/>
<path d="M27.9688 44.8125C27.4944 44.8125 27.1094 45.1975 27.1094 45.6719C27.1094 46.1463 27.4944 46.5312 27.9688 46.5312C28.4431 46.5312 28.8281 46.1463 28.8281 45.6719C28.8281 45.1975 28.4431 44.8125 27.9688 44.8125Z" fill="white"/>
<path d="M59.7656 43.0938C59.7656 41.1983 58.2236 39.6562 56.3281 39.6562H49.9127C50.9059 37.1122 51.3079 34.1178 51.2304 31.4523C51.2156 30.9436 51.1961 30.6495 51.1697 30.4643C51.1253 28.6074 49.6006 27.1094 47.7344 27.1094C45.8389 27.1094 44.2969 28.6514 44.2969 30.5469V31.4062C44.2969 36.8415 37.3175 39.8952 32.0504 41.2048C31.6522 40.2943 30.7432 39.6562 29.6875 39.6562H21.0938C20.6192 39.6562 20.2344 40.0411 20.2344 40.5156V61.1406C20.2344 61.6152 20.6192 62 21.0938 62H29.6875C30.7361 62 31.6399 61.3703 32.0423 60.4695C32.4784 60.5814 32.8833 60.6871 33.257 60.7848C36.2575 61.5684 37.9103 62 41.9302 62H51.1719C53.0673 62 54.6094 60.4579 54.6094 58.5625C54.6094 57.8557 54.3948 57.1983 54.0276 56.6514C55.3551 56.1871 56.3281 54.9187 56.3281 53.4062C56.3281 52.7021 56.1188 52.0425 55.7527 51.4931C57.0744 51.028 58.0469 49.7625 58.0469 48.25C58.0469 47.5432 57.8323 46.8858 57.4651 46.3389C58.7926 45.8746 59.7656 44.6062 59.7656 43.0938ZM30.5469 59.4219C30.5469 59.8957 30.1614 60.2812 29.6875 60.2812H21.9531V41.375H29.6875C30.1614 41.375 30.5469 41.7605 30.5469 42.2344V59.4219ZM56.3281 44.8125C54.4849 44.8125 54.0455 44.8125 52.0312 44.8125C51.5567 44.8125 51.1719 45.1973 51.1719 45.6719C51.1719 46.1464 51.5567 46.5312 52.0312 46.5312H54.6094C55.5571 46.5312 56.3281 47.3023 56.3281 48.25C56.3281 49.1993 55.5586 49.9688 54.6094 49.9688H50.3125C49.838 49.9688 49.4531 50.3536 49.4531 50.8281C49.4531 51.3027 49.838 51.6875 50.3125 51.6875H52.8906C53.8271 51.6875 54.6094 52.4356 54.6094 53.4062C54.6094 54.3555 53.8399 55.125 52.8906 55.125C51.0474 55.125 50.608 55.125 48.5938 55.125C48.1192 55.125 47.7344 55.5098 47.7344 55.9844C47.7344 56.4589 48.1192 56.8438 48.5938 56.8438H51.1719C52.1196 56.8438 52.8906 57.6148 52.8906 58.5625C52.8906 59.5102 52.1196 60.2812 51.1719 60.2812H41.9302C38.1311 60.2812 36.6473 59.8938 33.6913 59.1218C33.2583 59.0087 32.7833 58.8847 32.2656 58.7527V42.924C38.4847 41.4426 46.0156 37.8267 46.0156 31.4062V30.5469C46.0156 29.5992 46.7867 28.8281 47.7344 28.8281C48.6804 28.8281 49.4513 29.598 49.4531 30.5442V30.5469C49.4531 30.9204 49.9193 35.504 48.0501 39.6562H45.1562C44.6817 39.6562 44.2969 40.0411 44.2969 40.5156C44.2969 40.9902 44.6817 41.375 45.1562 41.375C45.7564 41.375 55.3486 41.375 56.3281 41.375C57.2758 41.375 58.0469 42.146 58.0469 43.0938C58.0469 44.043 57.2774 44.8125 56.3281 44.8125Z" fill="white"/>
<path d="M27.9688 48.25C27.4942 48.25 27.1094 48.6348 27.1094 49.1094V55.9844C27.1094 56.4589 27.4942 56.8438 27.9688 56.8438C28.4433 56.8438 28.8281 56.4589 28.8281 55.9844V49.1094C28.8281 48.6348 28.4433 48.25 27.9688 48.25Z" fill="white"/>
<path d="M40.8594 28.8281H37.4219C36.9473 28.8281 36.5625 29.213 36.5625 29.6875C36.5625 30.162 36.9473 30.5469 37.4219 30.5469H40.8594C41.3339 30.5469 41.7188 30.162 41.7188 29.6875C41.7188 29.213 41.3339 28.8281 40.8594 28.8281Z" fill="white"/>
<path d="M58.0469 28.8281H54.6094C54.1348 28.8281 53.75 29.213 53.75 29.6875C53.75 30.162 54.1348 30.5469 54.6094 30.5469H58.0469C58.5214 30.5469 58.9062 30.162 58.9062 29.6875C58.9062 29.213 58.5214 28.8281 58.0469 28.8281Z" fill="white"/>
<path d="M55.6337 21.7907C55.298 21.4552 54.754 21.4552 54.4182 21.7907L51.988 24.2209C51.6524 24.5565 51.6524 25.1007 51.988 25.4363C52.3238 25.7719 52.8677 25.7718 53.2034 25.4363L55.6337 23.0061C55.9692 22.6705 55.9692 22.1264 55.6337 21.7907Z" fill="white"/>
<path d="M43.4813 24.2209L41.0511 21.7907C40.7154 21.4552 40.1714 21.4552 39.8357 21.7907C39.5001 22.1263 39.5001 22.6704 39.8357 23.0061L42.2659 25.4363C42.6017 25.7719 43.1456 25.7718 43.4813 25.4363C43.8169 25.1007 43.8169 24.5566 43.4813 24.2209Z" fill="white"/>
</svg>
