<svg width="70" height="70" viewBox="0 0 70 70" fill="none" xmlns="http://www.w3.org/2000/svg">
<rect width="70" height="70" rx="10" fill="white"/>
<g clip-path="url(#clip0_9088_8914)">
<path d="M39.4445 26.2037C39.5971 26.3562 39.797 26.4325 39.9969 26.4325C40.1969 26.4325 40.3969 26.3562 40.5494 26.2037C40.8544 25.8986 40.8544 25.4039 40.5494 25.0987L40.5388 25.0882C40.2337 24.7831 39.739 24.7831 39.4339 25.0882C39.1288 25.3933 39.1288 25.8879 39.4339 26.1931L39.4445 26.2037Z" fill="#20282D"/>
<path d="M52.0481 33.5938L54.7712 30.8707C54.9946 30.6473 55.0614 30.3112 54.9405 30.0193C54.8195 29.7273 54.5347 29.537 54.2187 29.537H48.5741C47.8363 26.5167 46.2877 23.7646 44.0741 21.5509C40.8574 18.3341 36.5805 16.5625 32.0313 16.5625C27.482 16.5625 23.2051 18.3341 19.9884 21.5509C16.7716 24.7677 15 29.0445 15 33.5938C15 38.143 16.7716 42.4199 19.9884 45.6366C20.9449 46.5932 21.9958 47.4209 23.1191 48.1132L20.7655 52.2714C20.6286 52.5133 20.6305 52.8097 20.7705 53.0497C20.9104 53.2898 21.1673 53.4375 21.4453 53.4375H25.4688C25.7502 53.4375 26.01 53.2861 26.1487 53.0411L27.8129 50.1009C29.175 50.4464 30.5894 50.625 32.0313 50.625C33.4731 50.625 34.8875 50.4464 36.2496 50.1009L37.9138 53.0411C38.0525 53.2861 38.3123 53.4375 38.5938 53.4375H42.6172C42.8952 53.4375 43.1521 53.2898 43.2921 53.0498C43.4321 52.8097 43.434 52.5133 43.2971 52.2715L40.9434 48.1133C42.0668 47.4209 43.1177 46.5933 44.0742 45.6367C46.287 43.4239 47.8363 40.6706 48.5741 37.6505H54.2188C54.5347 37.6505 54.8196 37.4602 54.9406 37.1683C55.0615 36.8764 54.9946 36.5403 54.7713 36.3169L52.0481 33.5938ZM50.6196 32.8125H45.1673L46.8803 31.0995H52.3327L50.6196 32.8125ZM25.0132 51.875H22.7852L24.4857 48.8709C25.0693 49.1598 25.6684 49.4153 26.2814 49.6345L25.0132 51.875ZM41.2773 51.875H39.0493L37.7811 49.6345C38.3941 49.4153 38.9932 49.1598 39.5768 48.8709L41.2773 51.875ZM42.9693 44.5318C41.9373 45.5638 40.7846 46.4312 39.5438 47.1226C39.5285 47.13 39.5131 47.137 39.498 47.1455C39.4885 47.1509 39.4799 47.1571 39.4708 47.1628C38.519 47.6864 37.516 48.1068 36.4753 48.4173C36.4344 48.4254 36.3939 48.4374 36.354 48.4524C34.967 48.8538 33.5152 49.0625 32.0313 49.0625C30.5473 49.0625 29.0955 48.8538 27.7085 48.4525C27.6685 48.4375 27.628 48.4255 27.587 48.4173C26.5464 48.1069 25.5434 47.6865 24.5917 47.1629C24.5826 47.1572 24.574 47.151 24.5645 47.1456C24.5495 47.1371 24.5341 47.1301 24.5188 47.1227C23.278 46.4313 22.1253 45.5639 21.0933 44.5318C18.1716 41.6102 16.5625 37.7256 16.5625 33.5938C16.5625 29.4619 18.1716 25.5773 21.0932 22.6557C24.0148 19.7341 27.8994 18.125 32.0313 18.125C36.1631 18.125 40.0477 19.7341 42.9693 22.6557C44.8891 24.5755 46.2583 26.9404 46.9613 29.537H46.5568C46.3496 29.537 46.1509 29.6194 46.0044 29.7659L43.9309 31.8394C43.7216 30.419 43.2624 29.0379 42.569 27.7819C42.3605 27.4041 41.8852 27.2671 41.5074 27.4755C41.1297 27.6841 40.9926 28.1594 41.2011 28.5371C41.9427 29.8804 42.357 31.3409 42.4631 32.8126H39.0184C38.8445 31.2301 38.1452 29.7641 37.0031 28.622C35.6751 27.2939 33.9094 26.5625 32.0313 26.5625C30.1531 26.5625 28.3874 27.2939 27.0595 28.6219C25.7314 29.95 25 31.7156 25 33.5938C25 35.4719 25.7314 37.2376 27.0594 38.5655C28.3874 39.8936 30.1531 40.625 32.0313 40.625C33.9094 40.625 35.6751 39.8936 37.003 38.5656C38.1451 37.4236 38.8444 35.9576 39.0183 34.375H42.4596C42.2733 36.8172 41.2427 39.1872 39.4338 40.9963C37.4565 42.9736 34.8275 44.0625 32.0313 44.0625C29.235 44.0625 26.606 42.9736 24.6288 40.9963C22.6514 39.019 21.5625 36.3901 21.5625 33.5938C21.5625 30.7974 22.6514 28.1685 24.6288 26.1912C27.9086 22.9114 33.032 22.1847 37.088 24.424C37.4656 24.6324 37.9409 24.4954 38.1495 24.1177C38.358 23.7399 38.2209 23.2647 37.8432 23.0561C35.6053 21.8205 32.9702 21.3281 30.4236 21.6698C27.792 22.0228 25.406 23.2042 23.5239 25.0864C21.2515 27.3588 20 30.3801 20 33.5938C20 36.8074 21.2515 39.8288 23.5238 42.1011C25.7963 44.3735 28.8176 45.625 32.0313 45.625C35.2449 45.625 38.2663 44.3735 40.5386 42.1012C42.3851 40.2548 43.5565 37.9234 43.9336 35.351L46.0043 37.4217C46.1508 37.5682 46.3495 37.6505 46.5567 37.6505H46.9611C46.258 40.247 44.8883 42.6128 42.9693 44.5318ZM34.5828 32.1206C34.3671 31.7469 33.8893 31.6189 33.5156 31.8347L31.6406 32.9172C31.3989 33.0567 31.25 33.3146 31.25 33.5938C31.25 33.8729 31.3989 34.1308 31.6406 34.2703L33.5156 35.3528C33.6387 35.4238 33.773 35.4576 33.9055 35.4576C34.1755 35.4576 34.4381 35.3175 34.5828 35.0669C34.7096 34.8473 34.7169 34.5921 34.6262 34.375H37.4443C37.2788 35.5393 36.7446 36.6144 35.8982 37.4607C34.8653 38.4937 33.492 39.0625 32.0313 39.0625C30.5705 39.0625 29.1972 38.4937 28.1642 37.4607C27.1313 36.4278 26.5625 35.0545 26.5625 33.5938C26.5625 32.133 27.1313 30.7597 28.1643 29.7267C29.1972 28.6938 30.5705 28.125 32.0313 28.125C33.492 28.125 34.8653 28.6938 35.8983 29.7268C36.7446 30.5731 37.2788 31.6482 37.4444 32.8125H34.6263C34.7169 32.5953 34.7096 32.3402 34.5828 32.1206ZM46.8803 36.088L45.1673 34.375H50.6196L52.3327 36.088H46.8803Z" fill="#20282D"/>
</g>
<defs>
<clipPath id="clip0_9088_8914">
<rect width="40" height="40" fill="white" transform="translate(15 15)"/>
</clipPath>
</defs>
</svg>
