<svg width="70" height="70" viewBox="0 0 70 70" fill="none" xmlns="http://www.w3.org/2000/svg">
<rect width="70" height="70" rx="10" fill="white"/>
<g clip-path="url(#clip0_9088_8924)">
<path d="M35 27.0312C30.606 27.0312 27.0312 30.606 27.0312 35C27.0312 39.394 30.606 42.9688 35 42.9688C39.394 42.9688 42.9688 39.394 42.9688 35C42.9688 30.606 39.394 27.0312 35 27.0312ZM35 41.4062C31.4676 41.4062 28.5938 38.5324 28.5938 35C28.5938 31.4676 31.4676 28.5938 35 28.5938C38.5324 28.5938 41.4062 31.4676 41.4062 35C41.4062 38.5324 38.5324 41.4062 35 41.4062Z" fill="#1C2539"/>
<path d="M34.9998 34.2784C34.4895 34.2784 34.0742 33.9339 34.0742 33.5105C34.0742 33.0872 34.4895 32.7427 34.9998 32.7427C35.5102 32.7427 35.9255 33.0872 35.9255 33.5105C35.9255 33.942 36.2753 34.2918 36.7067 34.2918C37.1381 34.2918 37.488 33.942 37.488 33.5105C37.488 32.4812 36.7714 31.6062 35.7811 31.2986V31.2578C35.7811 30.8263 35.4313 30.4766 34.9998 30.4766C34.5684 30.4766 34.2186 30.8263 34.2186 31.2578V31.2986C33.2284 31.6062 32.5117 32.4812 32.5117 33.5105C32.5117 34.7955 33.6279 35.8409 34.9998 35.8409C35.5102 35.8409 35.9255 36.1853 35.9255 36.6087C35.9255 37.032 35.5103 37.3765 34.9998 37.3765C34.4894 37.3765 34.0742 37.032 34.0742 36.6087C34.0742 36.1772 33.7244 35.8274 33.293 35.8274C32.8616 35.8274 32.5117 36.1772 32.5117 36.6087C32.5117 37.6384 33.2287 38.5136 34.2195 38.8209C34.2296 39.2436 34.5748 39.5833 34.9998 39.5833C35.4249 39.5833 35.77 39.2436 35.7802 38.8209C36.7709 38.5136 37.488 37.6384 37.488 36.6087C37.488 35.3237 36.3718 34.2784 34.9998 34.2784Z" fill="#1C2539"/>
<path d="M50.1774 21.7288L50.1619 21.7132C49.8567 21.4081 49.3622 21.4081 49.0569 21.7132C48.7519 22.0183 48.7519 22.5129 49.0569 22.8181L49.0726 22.8337C49.2251 22.9863 49.4251 23.0626 49.625 23.0626C49.8249 23.0626 50.0248 22.9863 50.1774 22.8337C50.4825 22.5287 50.4825 22.034 50.1774 21.7288Z" fill="#1C2539"/>
<path d="M20.2593 46.4008C20.1141 46.2554 19.9125 46.1719 19.707 46.1719C19.5016 46.1719 19.3 46.2555 19.1547 46.4008C19.0094 46.5461 18.9258 46.7477 18.9258 46.9531C18.9258 47.1586 19.0093 47.3602 19.1547 47.5055C19.3001 47.6508 19.5016 47.7344 19.707 47.7344C19.9125 47.7344 20.1141 47.6508 20.2593 47.5055C20.4046 47.3602 20.4883 47.1586 20.4883 46.9531C20.4883 46.7477 20.4047 46.5461 20.2593 46.4008Z" fill="#1C2539"/>
<path d="M54.9973 34.8982C54.9752 31.2386 53.9524 27.6184 52.0317 24.5065C51.8052 24.1393 51.3238 24.0253 50.9566 24.252C50.5894 24.4786 50.4755 24.9599 50.702 25.3271C52.0945 27.5834 52.9512 30.0347 53.2916 32.5243C52.997 32.1788 52.6552 31.7909 52.2684 31.372C50.785 29.7656 48.4005 27.4532 45.4647 25.5604C45.1936 25.3856 44.8552 25.4 44.6039 25.5696L43.1139 26.4299C41.7634 25.1499 40.1406 24.2121 38.364 23.6852V21.9129C38.364 21.4814 38.0141 21.1316 37.5827 21.1316H32.4172C31.9858 21.1316 31.6359 21.4814 31.6359 21.9129V23.6852C29.8593 24.212 28.2366 25.1498 26.886 26.4299L25.4788 25.6174C25.2237 25.3892 24.8388 25.3479 24.5366 25.5419C21.5888 27.4337 19.2089 29.7383 17.7315 31.3385C17.3441 31.7581 17.0035 32.1452 16.7109 32.4893C17.2448 28.6068 19.0252 24.8991 21.9627 21.9617C28.0354 15.889 37.3733 14.7928 44.6706 19.2961C45.0377 19.5226 45.5191 19.4087 45.7458 19.0415C45.9724 18.6743 45.8584 18.193 45.4912 17.9663C41.7249 15.6422 37.2141 14.6313 32.7907 15.1205C30.5803 15.3648 28.4446 15.9689 26.443 16.9161C24.3718 17.8962 22.4927 19.222 20.858 20.8567C17.781 23.9337 15.8268 27.8301 15.2064 32.1248C15.074 33.0413 15.007 33.9661 15.0037 34.8906C15.0001 34.927 15 34.9616 15 34.9988C15 35.0414 15.0001 35.0796 15.0047 35.1195C15.0291 38.3063 15.8087 41.4812 17.2852 44.2934C17.4249 44.5595 17.6966 44.7116 17.9776 44.7116C18.0999 44.7116 18.2241 44.6827 18.3401 44.6219C18.7221 44.4213 18.8691 43.949 18.6686 43.567C17.6452 41.618 16.998 39.5584 16.7116 37.477C17.0055 37.8216 17.3463 38.2084 17.7316 38.6257C19.215 40.2322 21.5995 42.5445 24.5353 44.4374C24.6663 44.5218 24.813 44.5621 24.9579 44.562C25.1048 44.562 25.2492 44.5194 25.3745 44.4406L26.8861 43.5678C28.2366 44.8479 29.8594 45.7856 31.636 46.3125V48.0848C31.636 48.5163 31.9859 48.866 32.4173 48.866H37.5828C38.0142 48.866 38.3641 48.5163 38.3641 48.0848V46.3125C40.1407 45.7856 41.7634 44.8479 43.114 43.5678L44.5187 44.3788C44.6638 44.5098 44.8514 44.5799 45.0422 44.5799C45.1866 44.5799 45.3328 44.5398 45.4634 44.456C48.4113 42.5642 50.7912 40.2596 52.2685 38.6593C52.6559 38.2397 52.9965 37.8526 53.2891 37.5085C52.7549 41.382 50.9807 45.0925 48.0372 48.0359C42.2243 53.8488 33.1612 55.1066 25.9976 51.0945C25.6213 50.8839 25.1452 51.018 24.9342 51.3945C24.7234 51.7709 24.8577 52.247 25.2341 52.4578C28.209 54.1239 31.6112 54.9964 35.0288 54.9964C35.892 54.9964 36.7563 54.9407 37.6149 54.8281C42.0122 54.2513 45.9983 52.2847 49.1422 49.1409C50.777 47.506 52.1028 45.6269 53.0829 43.5556C54.0301 41.5538 54.6341 39.4181 54.8784 37.2076C54.9565 36.5011 54.9959 35.7924 54.9982 35.0849C55 35.0564 55 35.0284 55 34.9988C55 34.9634 54.9999 34.931 54.9973 34.8982ZM16.7149 34.9893C17.4036 34.033 19.4798 31.4644 22.4433 29.0134L21.6993 30.302C21.5957 30.4814 21.5676 30.6946 21.6213 30.8948C21.6749 31.0949 21.8058 31.2656 21.9852 31.3692L23.5205 32.2556C23.307 33.1516 23.199 34.0716 23.199 34.9988C23.199 35.926 23.307 36.846 23.5205 37.7421L21.9852 38.6285C21.8058 38.7321 21.6748 38.9027 21.6213 39.1029C21.5676 39.3031 21.5957 39.5163 21.6993 39.6957L22.4101 40.9269C19.5066 38.5061 17.4269 35.9595 16.7149 34.9893ZM44.7553 42.7113L43.3766 41.9152C43.0644 41.7349 42.6688 41.792 42.42 42.0534C41.0534 43.4903 39.3176 44.4932 37.4003 44.9538C37.0491 45.0381 36.8016 45.3523 36.8016 45.7134V47.3035H33.1984V45.7134C33.1984 45.3523 32.9509 45.0381 32.5997 44.9538C30.6824 44.4932 28.9466 43.4904 27.58 42.0534C27.3312 41.792 26.9358 41.7348 26.6233 41.9152L25.2446 42.7113L23.443 39.5909L24.8198 38.7961C25.1323 38.6157 25.2805 38.2448 25.1786 37.8987C24.9018 36.9596 24.7615 35.984 24.7615 34.9988C24.7615 34.0137 24.9018 33.038 25.1786 32.099C25.2806 31.7529 25.1323 31.382 24.8198 31.2016L23.443 30.4067L25.2446 27.2864L26.6233 28.0824C26.9358 28.2629 27.3313 28.2058 27.58 27.9442C28.9466 26.5074 30.6824 25.5045 32.5997 25.0439C32.9509 24.9595 33.1984 24.6454 33.1984 24.2842V22.6941H36.8015V24.2842C36.8015 24.6454 37.0491 24.9595 37.4002 25.0439C39.3175 25.5045 41.0533 26.5073 42.4199 27.9442C42.6688 28.2057 43.0641 28.2629 43.3766 28.0824L44.7553 27.2864L46.5569 30.4067L45.1801 31.2016C44.8676 31.382 44.7194 31.7529 44.8213 32.099C45.0981 33.0381 45.2384 34.0137 45.2384 34.9988C45.2384 35.984 45.0981 36.9597 44.8213 37.8987C44.7193 38.2448 44.8676 38.6157 45.1801 38.7961L46.5569 39.5909L44.7553 42.7113ZM47.5565 40.9847L48.3007 39.6956C48.4043 39.5162 48.4324 39.303 48.3787 39.1028C48.3251 38.9027 48.1942 38.732 48.0148 38.6284L46.4795 37.742C46.693 36.8459 46.801 35.9259 46.801 34.9988C46.801 34.0716 46.693 33.1516 46.4795 32.2555L48.0148 31.3691C48.1942 31.2655 48.3252 31.0949 48.3787 30.8947C48.4324 30.6945 48.4043 30.4813 48.3007 30.3019L47.5899 29.0708C50.4934 31.4915 52.5731 34.0381 53.2852 35.0083C52.5964 35.9647 50.5202 38.5335 47.5565 40.9847Z" fill="#1C2539"/>
</g>
<defs>
<clipPath id="clip0_9088_8924">
<rect width="40" height="40" fill="white" transform="translate(15 15)"/>
</clipPath>
</defs>
</svg>
