<svg width="70" height="70" viewBox="0 0 70 70" fill="none" xmlns="http://www.w3.org/2000/svg">
<rect width="70" height="70" rx="10" fill="white"/>
<g clip-path="url(#clip0_9088_8945)">
<path d="M24.8815 28.0246C24.8815 27.5897 25.2341 27.237 25.6691 27.237C26.1041 27.237 26.4567 27.5896 26.4567 28.0246C26.4567 28.4596 26.1041 28.8122 25.6691 28.8122C25.2341 28.8122 24.8815 28.4595 24.8815 28.0246ZM49.1647 38.5557L40.3842 37.7579L37.9433 44.6052H42.2836C42.7185 44.6052 43.0711 44.9578 43.0711 45.3927V47.7551H44.6461C45.0809 47.7551 45.4336 48.1078 45.4336 48.5426V53.4251H45.8273C46.2622 53.4251 46.6148 53.7777 46.6148 54.2126C46.6148 54.6474 46.2622 55.0001 45.8273 55.0001H24.565C24.1302 55.0001 23.7775 54.6474 23.7775 54.2126C23.7775 53.7777 24.1302 53.4251 24.565 53.4251H24.9588V48.5426C24.9588 48.1078 25.3114 47.7551 25.7463 47.7551H27.3212V45.3927C27.3212 44.9578 27.6739 44.6052 28.1087 44.6052H32.6204L29.6215 35.4017L20.4558 31.7982C19.9565 31.6522 19.7029 30.8291 20.3306 30.3949L22.2395 29.216C22.2403 29.216 22.2411 29.216 22.2411 29.2151C23.1182 28.6749 23.9442 30.016 23.0671 30.5562L22.4971 30.9082L30.5437 34.0717C30.7626 34.1583 30.9311 34.3362 31.0043 34.5607L34.2773 44.6052H36.2716L39.1052 36.6538C39.225 36.3183 39.5628 36.1017 39.9187 36.134L47.755 36.8459L43.3191 29.5222C43.1947 29.3167 43.1719 29.06 43.2569 28.8348L46.362 20.6574L38.2295 22.9231C37.987 22.9901 37.7169 22.9342 37.5216 22.7751L30.865 17.3602L30.3499 25.6675C30.3342 25.9226 30.1956 26.1549 29.9782 26.2889L29.0977 26.833C28.2048 27.3844 27.3772 26.044 28.2701 25.4926L28.8032 25.1635L29.3876 15.734C29.4347 15.1529 30.1435 14.7566 30.6704 15.1718L38.1996 21.2961L47.44 18.7226C48.1288 18.5747 48.6165 19.1843 48.3874 19.7612L44.8657 29.0347L49.9096 37.364C50.2779 37.8709 49.8207 38.6024 49.1647 38.5557ZM29.8412 49.3301H26.5337V53.4251H29.8412V49.3301ZM38.9761 49.3301H31.4162V53.4251H38.9761V49.3301ZM40.5511 49.3301V53.4251H43.8586V49.3301H40.5511ZM41.4961 46.1802H28.8962V47.7551H41.4961V46.1802Z" fill="#1C2539"/>
</g>
<defs>
<clipPath id="clip0_9088_8945">
<rect width="40" height="40" fill="white" transform="translate(15 15)"/>
</clipPath>
</defs>
</svg>
