<svg width="179" height="179" viewBox="0 0 179 179" fill="none" xmlns="http://www.w3.org/2000/svg">
<circle cx="89" cy="89" r="60" fill="#20282D"/>
<path d="M91.0124 2.86574L92.831 3.02346L95.9373 9.46067L96.0909 9.474L100.259 3.66768L102.078 3.8254L96.6704 11.1243L96.2017 16.5288L94.6136 16.3911L95.0823 10.9865L91.0124 2.86574Z" fill="#1C2539"/>
<path d="M103.538 17.5069L106.792 4.75175L114.49 6.71559L114.14 8.08577L107.987 6.51597L106.887 10.8258L112.642 12.2939L112.292 13.6641L106.538 12.196L105.432 16.5307L111.685 18.1259L111.335 19.4961L103.538 17.5069Z" fill="#1C2539"/>
<path d="M114.855 20.7268L113.326 20.0524L123.061 9.9592L124.566 10.6233L123.676 24.618L122.147 23.9435L123.02 12.2174L122.926 12.1759L114.855 20.7268ZM117.495 16.2712L123.658 18.9898L123.087 20.2836L116.924 17.565L117.495 16.2712Z" fill="#1C2539"/>
<path d="M125.988 26.0094L133.267 15.0416L136.973 17.5012C137.83 18.0699 138.436 18.6831 138.792 19.3407C139.15 19.9948 139.293 20.6631 139.22 21.3454C139.148 22.0277 138.898 22.692 138.469 23.3382C138.04 23.9844 137.527 24.4698 136.931 24.7942C136.335 25.1187 135.67 25.2425 134.934 25.1656C134.2 25.0851 133.409 24.7629 132.559 24.1989L129.56 22.2085L130.356 21.0089L133.312 22.9709C133.898 23.3595 134.426 23.5866 134.897 23.6522C135.371 23.7201 135.793 23.6503 136.162 23.4428C136.537 23.234 136.87 22.9101 137.162 22.4709C137.453 22.0318 137.626 21.5935 137.68 21.156C137.734 20.7186 137.639 20.2909 137.397 19.8731C137.157 19.4517 136.741 19.0443 136.149 18.6509L133.814 17.1012L127.316 26.8909L125.988 26.0094ZM134.421 24.5088L133.85 31.2272L132.308 30.2035L132.921 23.5136L134.421 24.5088Z" fill="#1C2539"/>
<path d="M147.828 30.569C148.215 30.0396 148.33 29.4563 148.174 28.8192C148.018 28.1821 147.648 27.5921 147.064 27.0492C146.637 26.6523 146.2 26.374 145.751 26.2143C145.306 26.0576 144.882 26.0168 144.478 26.092C144.078 26.1701 143.734 26.3629 143.448 26.6704C143.209 26.9277 143.064 27.2058 143.015 27.5047C142.971 27.8034 142.989 28.1044 143.07 28.4077C143.154 28.7079 143.266 28.9964 143.406 29.2733C143.549 29.5471 143.688 29.7907 143.823 30.0041L144.557 31.1783C144.747 31.4777 144.941 31.8284 145.141 32.2305C145.343 32.6356 145.493 33.0698 145.588 33.5333C145.69 33.9965 145.689 34.4696 145.585 34.9524C145.481 35.4352 145.219 35.9024 144.799 36.3542C144.314 36.875 143.74 37.2187 143.076 37.3851C142.415 37.5545 141.709 37.5209 140.957 37.2843C140.209 37.0505 139.465 36.5893 138.724 35.9005C138.034 35.2584 137.54 34.591 137.242 33.8983C136.947 33.2086 136.841 32.5302 136.923 31.8633C137.008 31.1992 137.277 30.5862 137.73 30.0241L138.935 31.1448C138.627 31.5379 138.47 31.953 138.461 32.3899C138.459 32.8266 138.568 33.2562 138.79 33.6787C139.017 34.101 139.322 34.4902 139.705 34.8463C140.151 35.2608 140.618 35.5607 141.106 35.7462C141.598 35.9286 142.069 35.9859 142.518 35.9181C142.97 35.8472 143.36 35.6361 143.687 35.2847C143.984 34.9647 144.137 34.6211 144.145 34.2539C144.153 33.8868 144.07 33.5047 143.895 33.1078C143.72 32.7109 143.506 32.3077 143.255 31.8984L142.384 30.4563C141.833 29.5394 141.524 28.6758 141.459 27.8656C141.393 27.0554 141.662 26.3256 142.266 25.6762C142.768 25.1365 143.352 24.8016 144.017 24.6715C144.689 24.5411 145.376 24.5952 146.079 24.8336C146.788 25.0717 147.45 25.4769 148.065 26.0489C148.686 26.6268 149.135 27.2519 149.411 27.9241C149.689 28.5932 149.792 29.2504 149.718 29.8959C149.648 30.5442 149.394 31.1189 148.957 31.6197L147.828 30.569Z" fill="#1C2539"/>
<path d="M159.334 51.1204C158.166 51.8712 157.021 52.3092 155.9 52.4344C154.778 52.5595 153.75 52.4028 152.816 51.9641C151.882 51.5254 151.111 50.8339 150.504 49.8895C149.897 48.9452 149.588 47.9571 149.576 46.9251C149.565 45.8932 149.849 44.893 150.428 43.9244C151.008 42.9558 151.882 42.0961 153.049 41.3453C154.217 40.5945 155.362 40.1565 156.484 40.0313C157.606 39.9062 158.634 40.0629 159.568 40.5016C160.502 40.9403 161.272 41.6318 161.879 42.5762C162.487 43.5205 162.796 44.5087 162.807 45.5406C162.819 46.5725 162.534 47.5727 161.955 48.5413C161.375 49.5099 160.502 50.3696 159.334 51.1204ZM158.5 49.8228C159.459 49.2064 160.165 48.5258 160.618 47.781C161.074 47.0397 161.296 46.288 161.285 45.5259C161.276 44.7675 161.056 44.053 160.625 43.3826C160.194 42.7122 159.634 42.2137 158.946 41.8873C158.259 41.5645 157.483 41.4547 156.617 41.558C155.754 41.6648 154.842 42.0265 153.884 42.6429C152.925 43.2593 152.218 43.9381 151.762 44.6794C151.309 45.4242 151.086 46.1759 151.095 46.9344C151.106 47.6965 151.327 48.4127 151.758 49.0831C152.189 49.7535 152.748 50.2502 153.434 50.573C154.123 50.8994 154.899 51.0092 155.763 50.9023C156.629 50.7991 157.541 50.4392 158.5 49.8228Z" fill="#1C2539"/>
<path d="M155.107 57.5428L167.242 52.4433L170.3 59.7201L168.996 60.2679L166.556 54.4607L162.456 56.1838L164.667 61.4458L163.363 61.9935L161.152 56.7315L155.724 59.0124L155.107 57.5428Z" fill="#1C2539"/>
<path d="M160.489 72.8657L173.457 70.6044L174.822 78.4308L173.429 78.6737L172.338 72.4177L167.956 73.1818L168.976 79.0325L167.583 79.2754L166.563 73.4247L162.156 74.1931L163.265 80.5505L161.872 80.7934L160.489 72.8657Z" fill="#1C2539"/>
<path d="M175.362 84.6501L169.918 88.0959L169.919 88.1988L175.428 91.5401L175.446 93.4169L168.825 89.3405L162.283 93.5424L162.265 91.6657L167.606 88.2208L167.605 88.118L162.199 84.7756L162.181 82.8989L168.803 87.0781L175.344 82.7733L175.362 84.6501Z" fill="#1C2539"/>
<path d="M161.98 96.7832L174.979 98.8608L174.277 103.253C174.114 104.273 173.797 105.077 173.325 105.665C172.857 106.259 172.287 106.662 171.615 106.876C170.943 107.09 170.224 107.135 169.458 107.013C168.692 106.891 168.021 106.623 167.445 106.21C166.868 105.801 166.445 105.243 166.176 104.536C165.912 103.83 165.86 102.971 166.022 101.96L166.525 98.8114L167.921 99.0346L167.426 102.132C167.315 102.83 167.346 103.41 167.519 103.872C167.693 104.333 167.969 104.692 168.349 104.948C168.733 105.209 169.185 105.381 169.705 105.464C170.226 105.548 170.707 105.525 171.149 105.396C171.589 105.271 171.96 105.013 172.261 104.623C172.567 104.234 172.776 103.686 172.889 102.979L173.331 100.212L161.729 98.3573L161.98 96.7832Z" fill="#1C2539"/>
<path d="M159.797 108.493L172.302 112.605L169.82 120.152L168.477 119.71L170.461 113.678L166.235 112.288L164.38 117.93L163.037 117.488L164.892 111.847L160.642 110.449L158.627 116.58L157.283 116.138L159.797 108.493Z" fill="#1C2539"/>
<path d="M156.054 119.067L167.747 125.113L165.704 129.064C165.232 129.978 164.688 130.647 164.073 131.072C163.462 131.498 162.813 131.713 162.127 131.715C161.441 131.717 160.753 131.54 160.064 131.184C159.375 130.828 158.837 130.371 158.45 129.814C158.063 129.256 157.867 128.608 157.864 127.868C157.864 127.13 158.099 126.308 158.567 125.402L160.221 122.205L161.499 122.867L159.87 126.018C159.547 126.642 159.379 127.192 159.364 127.667C159.348 128.146 159.463 128.558 159.71 128.902C159.958 129.252 160.316 129.549 160.784 129.791C161.253 130.033 161.707 130.157 162.148 130.163C162.589 130.169 163.003 130.029 163.393 129.743C163.785 129.459 164.145 129.001 164.472 128.369L165.759 125.88L155.322 120.483L156.054 119.067ZM158.461 127.287L151.721 127.448L152.571 125.804L159.288 125.688L158.461 127.287Z" fill="#1C2539"/>
<path d="M160.271 138.111L149.358 130.75L150.25 129.428L161.162 136.79L160.271 138.111Z" fill="#1C2539"/>
<path d="M147.367 133.662L157.4 142.183L152.257 148.239L151.179 147.323L155.29 142.483L151.9 139.604L148.056 144.13L146.978 143.215L150.822 138.688L147.413 135.792L143.235 140.711L142.157 139.795L147.367 133.662Z" fill="#1C2539"/>
<path d="M140.347 158.917L131.917 148.807L133.102 147.819L145.23 151.164L145.329 151.082L138.71 143.143L139.934 142.123L148.364 152.233L147.179 153.221L135.015 149.873L134.916 149.955L141.551 157.913L140.347 158.917Z" fill="#1C2539"/>
<path d="M124.04 163.892L125.434 163.119C125.739 163.475 126.079 163.747 126.453 163.936C126.824 164.128 127.212 164.245 127.619 164.289C128.024 164.339 128.432 164.319 128.842 164.229C129.253 164.138 129.649 163.987 130.031 163.775C130.728 163.389 131.262 162.863 131.633 162.197C132 161.533 132.16 160.766 132.113 159.895C132.063 159.026 131.761 158.093 131.209 157.097C130.656 156.1 130.025 155.35 129.315 154.847C128.601 154.346 127.866 154.075 127.108 154.034C126.347 153.996 125.618 154.169 124.921 154.556C124.538 154.768 124.2 155.024 123.906 155.324C123.612 155.624 123.378 155.957 123.203 156.323C123.027 156.695 122.922 157.089 122.888 157.505C122.853 157.926 122.904 158.359 123.041 158.802L121.647 159.575C121.426 158.928 121.325 158.295 121.345 157.677C121.365 157.059 121.49 156.472 121.722 155.917C121.955 155.367 122.282 154.865 122.702 154.411C123.118 153.96 123.617 153.574 124.198 153.252C125.18 152.707 126.186 152.463 127.216 152.519C128.247 152.575 129.226 152.924 130.155 153.565C131.084 154.206 131.885 155.134 132.558 156.349C133.231 157.563 133.593 158.734 133.645 159.861C133.697 160.989 133.474 162.004 132.975 162.908C132.476 163.811 131.736 164.535 130.754 165.08C130.173 165.402 129.581 165.62 128.978 165.733C128.371 165.849 127.771 165.859 127.178 165.761C126.587 165.667 126.024 165.465 125.489 165.154C124.956 164.847 124.473 164.426 124.04 163.892Z" fill="#1C2539"/>
<path d="M116.841 157.073L121.174 169.503L113.673 172.118L113.207 170.783L119.204 168.692L117.739 164.492L112.131 166.447L111.666 165.112L117.274 163.157L115.801 158.933L109.708 161.057L109.242 159.722L116.841 157.073Z" fill="#1C2539"/>
<path d="M96.4579 168.464L96.2783 167.061L101.991 166.33L102.17 167.732L96.4579 168.464Z" fill="#1C2539"/>
<path d="M87.014 175.72L85.1959 175.557L82.1083 169.11L81.9546 169.097L77.7697 174.891L75.9515 174.728L81.3799 167.445L81.8643 162.042L83.452 162.184L82.9676 167.587L87.014 175.72Z" fill="#1C2539"/>
<path d="M74.5301 161.039L71.2386 173.785L63.5465 171.798L63.9001 170.429L70.0488 172.017L71.161 167.711L65.4106 166.225L65.7641 164.856L71.5145 166.341L72.6331 162.01L66.3849 160.396L66.7385 159.027L74.5301 161.039Z" fill="#1C2539"/>
<path d="M63.2224 157.794L64.7494 158.473L54.9847 168.538L53.4812 167.869L54.4127 153.877L55.9397 154.556L55.0321 166.28L55.126 166.321L63.2224 157.794ZM60.5695 162.242L54.4144 159.505L54.9889 158.213L61.144 160.95L60.5695 162.242Z" fill="#1C2539"/>
<path d="M52.1075 152.473L44.7966 163.42L41.0978 160.95C40.2425 160.379 39.6381 159.764 39.2845 159.105C38.9285 158.45 38.7876 157.781 38.8619 157.099C38.9361 156.417 39.1886 155.753 39.6194 155.108C40.0501 154.463 40.564 153.98 41.1608 153.657C41.7577 153.334 42.4239 153.212 43.1595 153.291C43.8927 153.374 44.6834 153.698 45.5315 154.265L48.5247 156.264L47.7251 157.461L44.7746 155.491C44.1902 155.1 43.6627 154.872 43.1921 154.805C42.718 154.735 42.296 154.804 41.9263 155.011C41.5505 155.218 41.2163 155.541 40.9236 155.98C40.6309 156.418 40.457 156.856 40.402 157.293C40.3469 157.73 40.4399 158.158 40.6808 158.577C40.9193 158.999 41.3343 159.407 41.9259 159.802L44.2563 161.359L50.7819 151.588L52.1075 152.473ZM43.6706 153.95L44.2609 147.233L45.8003 148.261L45.1672 154.949L43.6706 153.95Z" fill="#1C2539"/>
<path d="M30.2801 147.854C29.8914 148.382 29.7743 148.965 29.9289 149.603C30.0835 150.241 30.4517 150.832 31.0337 151.376C31.4592 151.774 31.896 152.054 32.3439 152.215C32.7888 152.373 33.2131 152.415 33.6169 152.341C34.0175 152.264 34.3613 152.072 34.6482 151.765C34.8883 151.509 35.0337 151.231 35.0844 150.932C35.1291 150.634 35.1115 150.333 35.0317 150.029C34.9489 149.729 34.8378 149.44 34.6982 149.163C34.5557 148.888 34.4172 148.644 34.2828 148.431L33.5525 147.254C33.3637 146.954 33.1701 146.603 32.9718 146.2C32.7704 145.795 32.6225 145.36 32.5283 144.896C32.428 144.433 32.4305 143.96 32.5357 143.477C32.641 142.995 32.9044 142.528 33.326 142.078C33.812 141.558 34.3873 141.216 35.0518 141.052C35.7132 140.884 36.4192 140.92 37.1699 141.159C37.9175 141.395 38.6605 141.858 39.3989 142.549C40.0872 143.193 40.5794 143.862 40.8753 144.555C41.168 145.246 41.2724 145.925 41.1884 146.591C41.1014 147.255 40.8307 147.868 40.3763 148.428L39.1748 147.304C39.4832 146.912 39.6422 146.497 39.6519 146.06C39.6556 145.624 39.5474 145.194 39.3272 144.771C39.1009 144.348 38.7969 143.958 38.4152 143.6C37.9709 143.185 37.5046 142.883 37.0164 142.696C36.5252 142.513 36.0548 142.454 35.6053 142.52C35.1529 142.59 34.7627 142.8 34.4348 143.15C34.1362 143.47 33.9824 143.813 33.9733 144.18C33.9643 144.547 34.0467 144.929 34.2206 145.327C34.3945 145.724 34.6065 146.128 34.8566 146.538L35.7231 147.983C36.272 148.901 36.5781 149.766 36.6414 150.576C36.7047 151.386 36.4334 152.115 35.8273 152.763C35.3238 153.301 34.7391 153.634 34.0734 153.763C33.4016 153.891 32.7146 153.835 32.0123 153.595C31.3041 153.354 30.6433 152.947 30.03 152.374C29.4105 151.794 28.9637 151.168 28.6898 150.495C28.4128 149.825 28.3122 149.167 28.3878 148.522C28.4602 147.874 28.7155 147.3 29.1537 146.8L30.2801 147.854Z" fill="#1C2539"/>
<path d="M18.8337 127.265C20.0037 126.518 21.1497 126.083 22.2719 125.961C23.394 125.84 24.4214 125.999 25.3543 126.441C26.2871 126.882 27.0557 127.576 27.6601 128.522C28.2645 129.468 28.5709 130.457 28.5793 131.489C28.5876 132.521 28.3007 133.52 27.7184 134.487C27.1361 135.454 26.2599 136.311 25.0899 137.059C23.9199 137.806 22.7739 138.241 21.6518 138.363C20.5296 138.485 19.5022 138.325 18.5693 137.884C17.6365 137.442 16.8679 136.748 16.2635 135.802C15.6591 134.856 15.3527 133.867 15.3443 132.835C15.336 131.803 15.6229 130.804 16.2052 129.837C16.7876 128.87 17.6637 128.013 18.8337 127.265ZM19.6642 128.565C18.7036 129.179 17.9956 129.858 17.5401 130.601C17.0822 131.341 16.8578 132.092 16.8667 132.854C16.8733 133.613 17.0911 134.328 17.5202 135C17.9493 135.671 18.5077 136.171 19.1955 136.5C19.8809 136.825 20.6567 136.937 21.5229 136.836C22.3867 136.731 23.2989 136.372 24.2594 135.759C25.22 135.145 25.9292 134.468 26.387 133.728C26.8425 132.985 27.067 132.234 27.0604 131.475C27.0515 130.713 26.8325 129.996 26.4034 129.325C25.9744 128.653 25.4171 128.155 24.7316 127.83C24.0438 127.502 23.268 127.39 22.4042 127.494C21.5381 127.595 20.6247 127.952 19.6642 128.565Z" fill="#1C2539"/>
<path d="M23.0801 120.858L10.9296 125.922L7.89302 118.636L9.19825 118.092L11.6216 123.906L15.7271 122.195L13.5313 116.927L14.8365 116.383L17.0324 121.651L22.4669 119.386L23.0801 120.858Z" fill="#1C2539"/>
<path d="M17.7419 105.515L4.7675 107.739L3.42533 99.9085L4.81906 99.6696L5.89193 105.929L10.2759 105.177L9.2725 99.3236L10.6662 99.0847L11.6696 104.938L16.0789 104.183L14.9886 97.8221L16.3824 97.5832L17.7419 105.515Z" fill="#1C2539"/>
<path d="M2.90265 93.6862L8.3563 90.2562L8.35562 90.1534L2.85696 86.796L2.84451 84.9192L9.45363 89.0148L16.0079 84.8319L16.0203 86.7087L10.6695 90.138L10.6702 90.2409L16.066 93.5989L16.0784 95.4757L9.46864 91.2773L2.91509 95.563L2.90265 93.6862Z" fill="#1C2539"/>
<path d="M16.3197 81.5911L3.32711 79.4761L4.04175 75.0861C4.20767 74.0668 4.52728 73.2635 5.00057 72.6763C5.47032 72.0842 6.04153 71.6823 6.71419 71.4705C7.38685 71.2588 8.10594 71.2152 8.87146 71.3398C9.63698 71.4644 10.3072 71.7341 10.8822 72.149C11.4579 72.5597 11.8792 73.1188 12.146 73.8265C12.4087 74.5335 12.4577 75.3924 12.2931 76.4032L11.7809 79.5499L10.3852 79.3227L10.8892 76.2268C11.0028 75.5289 10.9735 74.9489 10.8013 74.4867C10.629 74.0245 10.3533 73.6649 9.97401 73.4078C9.5912 73.1458 9.13969 72.9724 8.61948 72.8877C8.09927 72.8031 7.6182 72.8246 7.17628 72.9524C6.73505 73.0759 6.36336 73.3323 6.06121 73.7216C5.75483 74.1102 5.54415 74.6577 5.42918 75.364L4.97891 78.13L16.5758 80.0178L16.3197 81.5911Z" fill="#1C2539"/>
<path d="M18.5367 69.8885L6.04378 65.7404L8.54725 58.2007L9.88927 58.6463L7.88811 64.6731L12.1094 66.0748L13.9809 60.4383L15.3229 60.8839L13.4514 66.5204L17.697 67.9301L19.7306 61.8056L21.0726 62.2512L18.5367 69.8885Z" fill="#1C2539"/>
<path d="M22.3105 59.3282L10.6352 53.2479L12.6897 49.3029C13.1648 48.3908 13.7105 47.7233 14.327 47.3003C14.9396 46.8753 15.589 46.6627 16.2751 46.6626C16.9613 46.6624 17.6483 46.8414 18.3362 47.1997C19.0241 47.5579 19.5608 48.0162 19.9465 48.5745C20.3321 49.1329 20.5255 49.782 20.5267 50.5218C20.5241 51.2596 20.2873 52.0808 19.8162 52.9853L18.1536 56.1778L16.8766 55.5128L18.5155 52.3659C18.8401 51.7426 19.0101 51.1935 19.0256 50.7184C19.0431 50.2395 18.9292 49.8275 18.6838 49.4823C18.4366 49.1313 18.0792 48.8341 17.6118 48.5907C17.1443 48.3472 16.6902 48.2218 16.2495 48.2146C15.8088 48.2073 15.3935 48.3461 15.0036 48.631C14.6099 48.9139 14.2487 49.3708 13.9202 50.0017L12.6257 52.4873L23.0468 57.9144L22.3105 59.3282ZM19.9278 51.1013L26.6688 50.9595L25.8138 52.6013L19.0965 52.6975L19.9278 51.1013Z" fill="#1C2539"/>
<path d="M18.149 40.2678L29.0404 47.661L28.1451 48.9798L17.2537 41.5866L18.149 40.2678Z" fill="#1C2539"/>
<path d="M31.0403 44.7591L21.0318 36.2085L26.1922 30.1683L27.2673 31.0868L23.1423 35.9151L26.5241 38.8042L30.3819 34.2887L31.457 35.2072L27.5992 39.7228L31.0005 42.6286L35.1923 37.7221L36.2674 38.6406L31.0403 44.7591Z" fill="#1C2539"/>
<path d="M38.1334 19.5286L46.5339 29.6633L45.3462 30.6478L33.2279 27.268L33.1289 27.3501L39.7246 35.3074L38.4974 36.3247L30.0969 26.1899L31.2845 25.2055L43.4391 28.5886L43.5381 28.5066L36.926 20.5294L38.1334 19.5286Z" fill="#1C2539"/>
<path d="M54.4548 14.602L53.0584 15.3707C52.7547 15.0145 52.4159 14.7412 52.0421 14.5508C51.672 14.3584 51.2837 14.2395 50.8772 14.1942C50.4725 14.1431 50.0647 14.1621 49.654 14.2513C49.2433 14.3404 48.8465 14.4904 48.4636 14.7012C47.7654 15.0855 47.23 15.6101 46.8574 16.275C46.4886 16.9379 46.3262 17.7047 46.3703 18.5756C46.4181 19.4444 46.7169 20.3781 47.2665 21.3766C47.8162 22.3751 48.4453 23.1269 49.1538 23.632C49.8661 24.135 50.6009 24.408 51.3582 24.4509C52.1193 24.4917 52.8489 24.3199 53.5471 23.9356C53.93 23.7248 54.2689 23.4697 54.5639 23.1704C54.8589 22.871 55.0941 22.5385 55.2695 22.173C55.4466 21.8016 55.5528 21.408 55.5881 20.9924C55.6251 20.5709 55.5754 20.1385 55.439 19.6951L56.8354 18.9264C57.0547 19.5736 57.1536 20.2064 57.1321 20.8248C57.1105 21.4432 56.9832 22.0294 56.75 22.5833C56.5148 23.1334 56.1866 23.6345 55.7653 24.0865C55.3478 24.5365 54.8481 24.9216 54.2662 25.2419C53.2827 25.7833 52.2758 26.0246 51.2456 25.9656C50.2153 25.9067 49.2367 25.5552 48.3098 24.9111C47.3829 24.2669 46.5847 23.3367 45.9152 22.1205C45.2456 20.9043 44.8866 19.7323 44.8381 18.6046C44.7896 17.4769 45.016 16.4621 45.5173 15.56C46.0186 14.658 46.761 13.9362 47.7445 13.3948C48.3263 13.0745 48.919 12.8583 49.5225 12.7462C50.1298 12.632 50.7297 12.6245 51.3224 12.7238C51.9131 12.8193 52.4754 13.0234 53.0094 13.3359C53.5414 13.6447 54.0232 14.0668 54.4548 14.602Z" fill="#1C2539"/>
<path d="M61.633 21.4391L57.3359 8.99657L64.8452 6.40322L65.3068 7.73982L59.3042 9.81282L60.7562 14.017L66.3699 12.0783L66.8315 13.4149L61.2178 15.3536L62.6781 19.5822L68.7779 17.4756L69.2395 18.8122L61.633 21.4391Z" fill="#1C2539"/>
<path d="M82.0487 10.1068L82.2242 11.5099L76.5097 12.2248L76.3342 10.8216L82.0487 10.1068Z" fill="#1C2539"/>
</svg>
