<svg width="176" height="176" viewBox="0 0 176 176" fill="none" xmlns="http://www.w3.org/2000/svg">
<path d="M176 88C176 136.601 136.601 176 88 176C39.3989 176 0 136.601 0 88C0 39.3989 39.3989 0 88 0C136.601 0 176 39.3989 176 88Z" fill="white"/>
<path d="M110.583 148.199C111.511 147.846 112.332 147.777 113.045 147.99C113.754 148.213 114.304 148.696 114.694 149.438L113.414 149.925C113.182 149.497 112.848 149.222 112.411 149.099C111.976 148.982 111.482 149.029 110.929 149.239C110.472 149.413 110.155 149.627 109.978 149.882C109.797 150.146 109.763 150.428 109.877 150.729C109.977 150.995 110.134 151.182 110.346 151.289C110.558 151.396 110.861 151.433 111.255 151.4L112.738 151.295C113.491 151.243 114.092 151.323 114.539 151.536C114.98 151.752 115.296 152.112 115.487 152.618C115.648 153.041 115.678 153.451 115.578 153.849C115.479 154.246 115.263 154.605 114.932 154.926C114.594 155.25 114.158 155.513 113.626 155.715C112.806 156.026 112.078 156.072 111.441 155.853C110.799 155.644 110.315 155.21 109.988 154.553L111.269 154.067C111.499 154.448 111.783 154.684 112.122 154.774C112.463 154.871 112.859 154.834 113.31 154.663C113.706 154.513 113.99 154.315 114.163 154.07C114.335 153.824 114.37 153.565 114.267 153.292C114.181 153.067 114.041 152.901 113.845 152.796C113.642 152.693 113.327 152.657 112.901 152.686L111.394 152.789C110.643 152.848 110.049 152.764 109.613 152.54C109.177 152.315 108.859 151.939 108.66 151.413C108.396 150.717 108.436 150.088 108.778 149.529C109.114 148.971 109.715 148.528 110.583 148.199Z" fill="#1C2539"/>
<path d="M104.359 150.296L106.041 156.843L108.576 156.188L108.857 157.281L102.408 158.947L102.127 157.854L104.662 157.199L102.98 150.653L104.359 150.296Z" fill="#1C2539"/>
<path d="M100.343 151.336L98.4936 159.54L97.2774 159.702L98.9526 151.521L100.343 151.336ZM94.4461 152.122L98.1678 159.583L96.8864 159.754L92.991 152.315L94.4461 152.122ZM99.2592 154.608L94.9808 155.178L94.8322 154.048L99.1106 153.478L99.2592 154.608Z" fill="#1C2539"/>
<path d="M91.2689 152.417L91.2867 160.304L87.9564 160.318C87.3941 160.32 86.9046 160.227 86.4879 160.039C86.0712 159.851 85.7529 159.585 85.533 159.243C85.3058 158.901 85.1917 158.499 85.1907 158.039C85.1896 157.586 85.3019 157.188 85.5276 156.844C85.7459 156.5 86.063 156.232 86.4788 156.04C86.8947 155.849 87.3838 155.752 87.9461 155.749L90.159 155.741L90.1614 156.825L87.9924 156.834C87.5323 156.836 87.182 156.943 86.9415 157.156C86.6936 157.369 86.5701 157.661 86.571 158.034C86.5718 158.406 86.693 158.69 86.9344 158.887C87.1759 159.09 87.5303 159.191 87.9977 159.189L89.86 159.182L89.8448 152.422L91.2689 152.417ZM86.7555 152.435L90.2811 156.452L88.6817 156.459L84.7837 152.443L86.7555 152.435Z" fill="#1C2539"/>
<path d="M81.1929 152.094L80.3802 158.804L82.98 159.114L82.8443 160.234L76.2306 159.445L76.3663 158.325L78.9661 158.635L79.7788 151.925L81.1929 152.094Z" fill="#1C2539"/>
<path d="M72.6997 150.774L67.5916 157.454L66.419 157.093L71.3596 150.361L72.6997 150.774ZM67.0146 149.023L67.2775 157.357L66.0421 156.976L65.6117 148.591L67.0146 149.023ZM70.3481 153.293L66.223 152.023L66.5601 150.935L70.6852 152.205L70.3481 153.293Z" fill="#1C2539"/>
<path d="M60.9427 146.67L57.2915 153.661L54.1529 152.027C53.6412 151.761 53.2496 151.446 52.9781 151.082C52.7001 150.715 52.5468 150.322 52.5181 149.904C52.483 149.482 52.5787 149.054 52.8052 148.621C53.0283 148.193 53.3248 147.87 53.6947 147.651C54.0645 147.432 54.4782 147.326 54.9356 147.334C55.3896 147.348 55.8725 147.488 56.3843 147.755L58.5414 148.878L58.0241 149.868L55.9253 148.775C55.5237 148.566 55.1619 148.51 54.8399 148.606C54.5115 148.698 54.2543 148.922 54.0684 149.278C53.8858 149.628 53.8522 149.96 53.9677 150.276C54.0766 150.588 54.3319 150.848 54.7336 151.057L56.5506 152.003L59.6796 146.012L60.9427 146.67Z" fill="#1C2539"/>
<path d="M53.8385 142.859L49.3356 149.335L46.5996 147.437C46.1376 147.116 45.7898 146.759 45.5562 146.366C45.3226 145.972 45.2138 145.572 45.2298 145.166C45.2398 144.755 45.3761 144.361 45.6388 143.983C45.8973 143.611 46.2175 143.349 46.5994 143.196C46.9754 143.039 47.3886 143.001 47.839 143.083C48.2894 143.164 48.7456 143.365 49.2076 143.686L51.0255 144.948L50.4064 145.838L48.6244 144.601C48.2464 144.339 47.898 144.226 47.5791 144.263C47.2541 144.295 46.9854 144.464 46.7727 144.77C46.5601 145.076 46.4965 145.378 46.5819 145.677C46.6632 145.983 46.8958 146.269 47.2798 146.535L48.8098 147.597L52.6685 142.047L53.8385 142.859ZM50.1306 140.286L50.718 145.601L49.404 144.689L48.5106 139.162L50.1306 140.286Z" fill="#1C2539"/>
<path d="M44.5241 135.568C44.944 135.953 45.265 136.381 45.487 136.852C45.709 137.323 45.8284 137.814 45.8453 138.324C45.8569 138.83 45.7674 139.333 45.577 139.832C45.3763 140.332 45.0735 140.802 44.6687 141.243C44.1305 141.83 43.5351 142.23 42.8826 142.445C42.2251 142.664 41.5648 142.698 40.9016 142.546C40.2281 142.394 39.6114 142.062 39.0515 141.548C38.4809 141.025 38.0935 140.437 37.8895 139.785C37.6752 139.132 37.6491 138.469 37.8113 137.796C37.9735 137.122 38.3237 136.492 38.8619 135.905C39.2667 135.464 39.7097 135.127 40.1908 134.895C40.6665 134.657 41.1597 134.525 41.6704 134.497C42.1757 134.465 42.6726 134.539 43.1613 134.72C43.6499 134.9 44.1042 135.183 44.5241 135.568ZM43.7471 136.431C43.381 136.095 42.9768 135.893 42.5343 135.824C42.0865 135.751 41.6364 135.804 41.184 135.983C40.7267 136.169 40.303 136.474 39.913 136.899C39.5279 137.319 39.2702 137.756 39.1399 138.211C38.9993 138.667 38.99 139.109 39.112 139.538C39.2236 139.967 39.4651 140.352 39.8366 140.693C40.2027 141.028 40.6072 141.236 41.05 141.315C41.4826 141.394 41.9174 141.347 42.3545 141.173C42.7917 140.999 43.2052 140.699 43.5953 140.274C43.9903 139.844 44.2606 139.398 44.4061 138.937C44.5462 138.471 44.5629 138.021 44.4562 137.586C44.3442 137.146 44.1078 136.761 43.7471 136.431Z" fill="#1C2539"/>
<path d="M40.1067 131.137C40.2881 131.347 40.4457 131.563 40.5797 131.785C40.7191 132.002 40.8049 132.174 40.8371 132.301L39.9748 133.045C39.9236 132.897 39.8477 132.731 39.7472 132.547C39.6412 132.369 39.5189 132.199 39.3805 132.039C39.0845 131.696 38.8037 131.499 38.5382 131.449C38.2726 131.399 37.9878 131.505 37.6838 131.767L33.3311 135.526L32.4002 134.448L36.8027 130.646C37.3554 130.169 37.9108 129.974 38.4688 130.061C39.0213 130.154 39.5673 130.512 40.1067 131.137Z" fill="#1C2539"/>
<path d="M36.6861 127.285L30.2173 131.798L29.4029 130.63L35.8717 126.117L36.6861 127.285ZM36.2977 126.728L35.3723 127.374L32.5154 123.276L33.4408 122.63L36.2977 126.728ZM33.4227 128.734L32.5152 129.367L29.8777 125.584L30.7851 124.951L33.4227 128.734ZM30.7543 130.596L29.8289 131.241L27.0409 127.242L27.9663 126.597L30.7543 130.596Z" fill="#1C2539"/>
<path d="M30.837 117.792C31.098 118.29 31.2514 118.795 31.2972 119.307C31.3331 119.816 31.2708 120.311 31.1102 120.791C30.9496 121.271 30.6935 121.711 30.3419 122.11C29.9904 122.509 29.5527 122.846 29.029 123.121C28.5052 123.396 27.9826 123.563 27.4612 123.622C26.9399 123.682 26.4411 123.643 25.9649 123.505C25.4789 123.364 25.0401 123.133 24.6486 122.81C24.2536 122.481 23.9239 122.065 23.6595 121.56C23.368 121.004 23.2152 120.445 23.2011 119.883C23.1871 119.321 23.3059 118.793 23.5577 118.298C23.7996 117.799 24.1719 117.377 24.6747 117.031L25.3256 118.273C24.8425 118.625 24.5518 119.046 24.4534 119.535C24.3485 120.027 24.4249 120.519 24.6826 121.011C24.9097 121.444 25.2115 121.768 25.5879 121.983C25.9643 122.198 26.3907 122.296 26.8672 122.276C27.3371 122.261 27.8307 122.117 28.348 121.845C28.8783 121.567 29.2899 121.235 29.583 120.851C29.8695 120.469 30.0331 120.057 30.0736 119.615C30.1141 119.173 30.0225 118.739 29.7987 118.312C29.5479 117.833 29.1936 117.496 28.7359 117.299C28.2717 117.105 27.7572 117.099 27.1924 117.28L26.5365 116.028C27.1074 115.828 27.6696 115.768 28.223 115.848C28.7731 115.922 29.275 116.125 29.7288 116.456C30.1761 116.79 30.5455 117.235 30.837 117.792Z" fill="#1C2539"/>
<path d="M27.7339 111.202L21.39 113.535L22.2906 115.993L21.2316 116.383L18.9404 110.129L19.9994 109.739L20.9001 112.198L27.244 109.865L27.7339 111.202Z" fill="#1C2539"/>
<path d="M24.2982 78.5027C24.1529 79.4853 23.8129 80.2364 23.2783 80.7561C22.7375 81.2676 22.0477 81.5137 21.2089 81.4945L21.4093 80.1399C21.8959 80.1445 22.2996 79.9858 22.6204 79.6636C22.934 79.3404 23.1341 78.8862 23.2206 78.301C23.2922 77.8169 23.26 77.4358 23.124 77.1576C22.9818 76.8711 22.7517 76.7047 22.4338 76.6582C22.1519 76.617 21.9125 76.6633 21.7156 76.7969C21.5186 76.9305 21.3382 77.1772 21.1742 77.537L20.5431 78.8841C20.2205 79.5676 19.857 80.0533 19.4527 80.3412C19.0494 80.6218 18.5804 80.723 18.0456 80.6449C17.5976 80.5794 17.2244 80.4068 16.9262 80.1271C16.628 79.8473 16.4195 79.4847 16.3009 79.0393C16.1833 78.5866 16.1661 78.0786 16.2495 77.515C16.3777 76.6481 16.693 75.9893 17.1952 75.5386C17.6913 75.0797 18.306 74.8669 19.0394 74.9002L18.839 76.2548C18.3936 76.2709 18.049 76.4051 17.8049 76.6573C17.5537 76.9085 17.3928 77.2724 17.3223 77.7493C17.2603 78.1683 17.2942 78.5128 17.4241 78.7827C17.554 79.0526 17.7634 79.2087 18.0525 79.2509C18.291 79.2858 18.504 79.2431 18.6916 79.1229C18.8802 78.9954 19.0659 78.7384 19.2486 78.3518L19.8938 76.9846C20.2092 76.3 20.5716 75.8215 20.981 75.5492C21.3904 75.2769 21.8734 75.1814 22.4298 75.2627C23.1669 75.3704 23.6962 75.7097 24.0178 76.2807C24.3405 76.8445 24.4339 77.5852 24.2982 78.5027Z" fill="#1C2539"/>
<path d="M25.5069 72.0359L18.965 70.3356L18.3021 72.8685L17.21 72.5847L18.8965 66.1412L19.9886 66.425L19.3256 68.9579L25.8674 70.6582L25.5069 72.0359Z" fill="#1C2539"/>
<path d="M26.5499 68.0316L20.2759 62.4452L20.7267 61.304L27.065 66.7275L26.5499 68.0316ZM28.7351 62.499L20.3967 62.1395L20.8715 60.9372L29.2743 61.1337L28.7351 62.499ZM24.2161 65.5012L25.8016 61.4868L26.8619 61.9037L25.2763 65.9182L24.2161 65.5012Z" fill="#1C2539"/>
<path d="M30.0303 59.5727L23.1249 55.7612L24.7377 52.8475C25.01 52.3555 25.3301 51.9732 25.698 51.7008C26.0658 51.4283 26.453 51.2792 26.8597 51.2534C27.2698 51.2212 27.6763 51.3162 28.0791 51.5386C28.4755 51.7574 28.7692 52.0488 28.9601 52.4127C29.1545 52.7703 29.234 53.177 29.1986 53.633C29.1633 54.089 29.0094 54.563 28.7371 55.055L27.6654 56.9911L26.7159 56.467L27.7664 54.5692C27.9892 54.1667 28.0662 53.8088 27.9975 53.4956C27.9324 53.176 27.7367 52.9262 27.4106 52.7462C27.0846 52.5662 26.7768 52.534 26.4875 52.6496C26.1917 52.7616 25.9307 53.0221 25.7043 53.4311L24.8024 55.0604L30.72 58.3267L30.0303 59.5727ZM32.2161 55.6239L26.9837 56.7524L27.7582 55.353L33.1711 53.8986L32.2161 55.6239Z" fill="#1C2539"/>
<path d="M35.2398 50.9322L29.7747 46.955L28.2323 49.0707L27.3199 48.4067L31.2436 43.0246L32.156 43.6885L30.6136 45.8042L36.0787 49.7814L35.2398 50.9322Z" fill="#1C2539"/>
<path d="M40.566 44.1752L37.2317 36.4607L38.1206 35.6151L41.5819 43.2087L40.566 44.1752ZM44.8758 40.0752L37.4698 36.2342L38.4064 35.3432L45.9394 39.0635L44.8758 40.0752ZM39.5161 40.895L42.6433 37.9201L43.4287 38.7454L40.3015 41.7203L39.5161 40.895Z" fill="#1C2539"/>
<path d="M49.9154 35.9117L45.5814 29.3217L48.537 27.3761C49.0189 27.0589 49.4848 26.8702 49.9348 26.8101C50.3909 26.7459 50.8087 26.8031 51.1883 26.9816C51.5741 27.1562 51.9014 27.4478 52.1703 27.8567C52.4351 28.2594 52.5733 28.6755 52.5849 29.1051C52.5964 29.5347 52.4876 29.9474 52.2583 30.3431C52.025 30.7327 51.6675 31.0861 51.1855 31.4034L49.1542 32.7406L48.5402 31.807L50.5167 30.5059C50.8949 30.2569 51.1204 29.9686 51.1933 29.6408C51.2723 29.309 51.2014 28.9753 50.9807 28.6397C50.764 28.3102 50.4898 28.1191 50.158 28.0665C49.8323 28.0099 49.4803 28.106 49.1021 28.355L47.391 29.4814L51.105 35.1287L49.9154 35.9117Z" fill="#1C2539"/>
<path d="M56.7364 31.5422L53.2704 24.457L56.2606 22.991C56.7656 22.7435 57.2467 22.6133 57.7039 22.6007C58.1611 22.588 58.5635 22.6876 58.9111 22.8995C59.2652 23.1082 59.5433 23.4192 59.7455 23.8325C59.9445 24.2392 60.0177 24.6466 59.9653 25.0546C59.9194 25.4593 59.7513 25.8386 59.4609 26.1925C59.1706 26.5463 58.773 26.847 58.268 27.0945L56.2811 28.0686L55.8045 27.0944L57.7521 26.1396C58.1652 25.937 58.4335 25.6876 58.5568 25.3913C58.6867 25.0917 58.6698 24.7746 58.5061 24.4401C58.3424 24.1055 58.1091 23.9027 57.806 23.8316C57.4998 23.754 57.1368 23.8181 56.7171 24.0239L55.0449 24.8437L58.0151 30.9153L56.7364 31.5422ZM60.789 29.5554L55.86 27.482L57.2961 26.778L62.5595 28.6874L60.789 29.5554Z" fill="#1C2539"/>
<path d="M67.6194 26.9552C67.0788 27.1349 66.5489 27.2072 66.0295 27.1721C65.5101 27.137 65.0232 27.0026 64.5689 26.7689C64.1214 26.5328 63.7261 26.2102 63.3829 25.801C63.0443 25.3825 62.7809 24.889 62.5926 24.3205C62.3424 23.5648 62.2825 22.8497 62.4131 22.1752C62.5413 21.4938 62.8333 20.9002 63.289 20.3947C63.7494 19.8798 64.34 19.5026 65.0607 19.2629C65.7953 19.0187 66.4972 18.9661 67.1664 19.1053C67.8403 19.2353 68.4319 19.535 68.9413 20.0044C69.4506 20.4739 69.8304 21.0864 70.0806 21.8421C70.2689 22.4106 70.3475 22.9617 70.3165 23.4954C70.2924 24.0267 70.168 24.5222 69.9432 24.9818C69.7253 25.439 69.4187 25.8373 69.0233 26.1766C68.6279 26.5159 68.1599 26.7754 67.6194 26.9552ZM67.244 25.8563C67.7152 25.6996 68.0885 25.4446 68.3639 25.0913C68.6462 24.7358 68.819 24.3166 68.8822 23.8338C68.9431 23.344 68.8829 22.8253 68.7016 22.2776C68.5225 21.7368 68.2659 21.2988 67.9318 20.9635C67.6023 20.619 67.2206 20.3957 66.7868 20.2937C66.3576 20.1824 65.9039 20.2063 65.4257 20.3653C64.9545 20.522 64.5765 20.7747 64.2919 21.1233C64.012 21.4627 63.8415 21.8657 63.7806 22.3323C63.7197 22.799 63.78 23.3061 63.9613 23.8538C64.145 24.4085 64.4027 24.8615 64.7345 25.213C65.0732 25.5621 65.4583 25.7958 65.8898 25.914C66.3283 26.0299 66.7796 26.0107 67.244 25.8563Z" fill="#1C2539"/>
<path d="M73.6652 25.2395C73.3934 25.2954 73.1279 25.3278 72.8688 25.3364C72.6111 25.3522 72.4192 25.3432 72.2931 25.3096L72.0649 24.1933C72.2197 24.2211 72.4016 24.2358 72.6107 24.2375C72.8182 24.232 73.0258 24.2079 73.2332 24.1652C73.6767 24.0739 73.9853 23.9245 74.1592 23.7172C74.333 23.5099 74.3796 23.2095 74.2992 22.816L73.1475 17.1812L74.5424 16.8939L75.7072 22.5931C75.8535 23.3086 75.7521 23.8887 75.4032 24.3334C75.0528 24.7709 74.4735 25.073 73.6652 25.2395Z" fill="#1C2539"/>
<path d="M78.6879 24.1328L77.9234 16.2825L79.3406 16.142L80.1051 23.9924L78.6879 24.1328ZM79.3638 24.0659L79.2544 22.9428L84.2255 22.4502L84.3349 23.5732L79.3638 24.0659ZM79.024 20.5768L78.9168 19.4756L83.5063 19.0208L83.6135 20.122L79.024 20.5768ZM78.7086 17.3385L78.5993 16.2155L83.4504 15.7347L83.5598 16.8578L78.7086 17.3385Z" fill="#1C2539"/>
<path d="M89.8364 23.664C89.2742 23.6492 88.7586 23.537 88.2896 23.3274C87.8281 23.1107 87.4273 22.8152 87.0871 22.4409C86.747 22.0667 86.4889 21.6289 86.3131 21.1274C86.1372 20.626 86.0576 20.0797 86.0742 19.4883C86.0909 18.897 86.201 18.3593 86.4045 17.8751C86.6081 17.391 86.8865 16.9746 87.2397 16.6259C87.6004 16.2701 88.0171 15.9998 88.4899 15.815C88.97 15.6304 89.4948 15.5456 90.0642 15.5605C90.6921 15.5771 91.2544 15.7161 91.7512 15.9775C92.248 16.239 92.6506 16.6003 92.9591 17.0614C93.2751 17.5153 93.4611 18.0462 93.5171 18.6541L92.1153 18.6172C92.0443 18.0236 91.8198 17.5647 91.4417 17.2406C91.0638 16.9092 90.5974 16.7362 90.0425 16.7216C89.5534 16.7087 89.123 16.8143 88.7514 17.0383C88.3798 17.2623 88.0857 17.587 87.8692 18.0123C87.6529 18.4304 87.5365 18.9314 87.5201 19.5154C87.5033 20.114 87.5909 20.6351 87.783 21.0785C87.9753 21.5146 88.2542 21.858 88.6198 22.1087C88.9854 22.3594 89.4091 22.4911 89.8909 22.5038C90.4312 22.518 90.8992 22.3732 91.2949 22.0695C91.6909 21.7585 91.9482 21.3123 92.0669 20.7309L93.4795 20.7681C93.3751 21.3644 93.1522 21.8846 92.811 22.3286C92.477 22.7727 92.0547 23.1123 91.544 23.3473C91.0334 23.5749 90.4642 23.6805 89.8364 23.664Z" fill="#1C2539"/>
<path d="M97.0851 24.1466L98.144 17.4709L95.5574 17.0654L95.7342 15.951L102.314 16.9827L102.138 18.0971L99.551 17.6915L98.492 24.3672L97.0851 24.1466Z" fill="#1C2539"/>
<circle cx="114.688" cy="25.9661" r="1.44262" fill="#1C2539"/>
<circle cx="128.393" cy="142.825" r="1.44262" fill="#1C2539"/>
<circle cx="20.1965" cy="94.4973" r="1.44262" fill="#1C2539"/>
<path d="M127.374 37.0077C126.587 36.4018 126.097 35.7391 125.905 35.0197C125.723 34.2989 125.846 33.5776 126.273 32.8559L127.358 33.6913C127.116 34.1131 127.057 34.5424 127.181 34.9791C127.31 35.4101 127.609 35.806 128.078 36.1669C128.465 36.4654 128.814 36.6232 129.124 36.6403C129.443 36.6561 129.701 36.5368 129.898 36.2823C130.072 36.0567 130.148 35.8255 130.128 35.5887C130.108 35.3519 129.981 35.0743 129.747 34.7558L128.879 33.5487C128.44 32.9342 128.194 32.3805 128.14 31.8877C128.092 31.3994 128.234 30.9412 128.564 30.5132C128.84 30.1546 129.174 29.9136 129.564 29.7901C129.954 29.6666 130.373 29.6618 130.82 29.7756C131.273 29.8938 131.725 30.1267 132.176 30.4742C132.871 31.0088 133.292 31.6049 133.44 32.2625C133.598 32.9187 133.483 33.5583 133.095 34.1812L132.01 33.3459C132.214 32.9498 132.265 32.584 132.164 32.2483C132.068 31.9068 131.829 31.589 131.447 31.295C131.111 31.0366 130.794 30.8982 130.494 30.8797C130.195 30.8613 129.956 30.9677 129.778 31.1991C129.631 31.3899 129.564 31.5964 129.577 31.8185C129.596 32.0451 129.729 32.3323 129.978 32.6801L130.856 33.9093C131.299 34.5181 131.54 35.0673 131.577 35.557C131.615 36.0466 131.462 36.5141 131.119 36.9595C130.664 37.5494 130.108 37.8453 129.452 37.847C128.802 37.8533 128.109 37.5735 127.374 37.0077Z" fill="#1C2539"/>
<path d="M132.421 41.2065L137.109 36.3375L135.222 34.5222L136.005 33.7094L140.805 38.3274L140.022 39.1402L138.135 37.3249L133.447 42.1939L132.421 41.2065Z" fill="#1C2539"/>
<path d="M135.416 44.0838L143.359 41.3375L144.136 42.2873L136.304 45.1693L135.416 44.0838ZM139.182 48.6886L143.567 41.5919L144.386 42.5926L140.111 49.825L139.182 48.6886ZM138.766 43.2828L141.498 46.6241L140.616 47.3454L137.884 44.0041L138.766 43.2828Z" fill="#1C2539"/>
<path d="M141.089 51.2194L147.781 47.0437L149.542 49.8701C149.84 50.3474 150.018 50.8129 150.077 51.2668C150.136 51.7206 150.078 52.1313 149.903 52.499C149.731 52.8729 149.45 53.1816 149.06 53.4252C148.676 53.6649 148.278 53.7795 147.867 53.7691C147.46 53.7649 147.066 53.6364 146.685 53.3836C146.303 53.1308 145.964 52.7658 145.667 52.2885L144.496 50.4105L145.416 49.8363L146.564 51.6772C146.807 52.0677 147.082 52.3091 147.389 52.4016C147.7 52.5002 148.014 52.4509 148.33 52.2537C148.646 52.0565 148.824 51.8035 148.864 51.4945C148.91 51.1817 148.809 50.827 148.562 50.4303L147.577 48.8498L141.843 52.4281L141.089 51.2194ZM143.476 55.0499L145.037 49.9312L145.883 51.2887L144.519 56.7234L143.476 55.0499Z" fill="#1C2539"/>
<path d="M146.113 59.9907L152.247 57.1515L151.15 54.7744L152.174 54.3005L154.966 60.3475L153.942 60.8215L152.844 58.4445L146.71 61.2836L146.113 59.9907Z" fill="#1C2539"/>
<path d="M149.415 67.9012L157.773 68.7463L158.078 69.9349L149.763 69.2596L149.415 67.9012ZM150.891 73.6638L157.855 69.0647L158.176 70.317L151.255 75.0859L150.891 73.6638ZM152.79 68.5819L153.86 72.7632L152.757 73.0474L151.686 68.866L152.79 68.5819Z" fill="#1C2539"/>
<path d="M152.046 80.065L159.913 79.4995L160.161 83.0292C160.201 83.6048 160.138 84.1036 159.97 84.5257C159.802 84.9551 159.547 85.2919 159.206 85.5362C158.865 85.7877 158.45 85.931 157.962 85.966C157.481 86.0006 157.051 85.918 156.671 85.7184C156.291 85.5187 155.984 85.2222 155.752 84.8289C155.527 84.4351 155.394 83.9504 155.353 83.3748L155.183 80.9488L156.298 80.8687L156.463 83.2292C156.495 83.6808 156.636 84.0185 156.886 84.2422C157.136 84.4731 157.462 84.5742 157.862 84.5454C158.256 84.5171 158.557 84.371 158.765 84.1071C158.974 83.8504 159.063 83.4963 159.031 83.0446L158.888 81.001L152.146 81.4857L152.046 80.065Z" fill="#1C2539"/>
<path d="M152.512 88.1337L160.389 88.5547L160.205 91.8799C160.174 92.4414 160.052 92.9249 159.839 93.3304C159.627 93.736 159.343 94.0389 158.988 94.2394C158.633 94.4471 158.226 94.5387 157.766 94.5141C157.314 94.49 156.923 94.3557 156.593 94.1113C156.262 93.8742 156.013 93.5428 155.847 93.117C155.68 92.6912 155.612 92.1976 155.643 91.6361L155.765 89.4266L156.848 89.4844L156.729 91.6502C156.703 92.1096 156.79 92.4653 156.988 92.7172C157.186 92.9765 157.47 93.116 157.842 93.1359C158.214 93.1558 158.505 93.0507 158.716 92.8206C158.933 92.5908 159.055 92.2426 159.08 91.7759L159.183 89.9164L152.434 89.5556L152.512 88.1337ZM152.263 92.6402L156.483 89.3442L156.395 90.9412L152.154 94.6091L152.263 92.6402Z" fill="#1C2539"/>
<path d="M151.19 99.87C151.297 99.3104 151.492 98.8122 151.776 98.3753C152.06 97.9385 152.415 97.5782 152.841 97.2944C153.266 97.0179 153.74 96.8289 154.265 96.7274C154.796 96.6344 155.356 96.6435 155.944 96.7547C156.726 96.9024 157.38 97.1969 157.906 97.6381C158.438 98.0806 158.814 98.6236 159.034 99.2671C159.259 99.919 159.3 100.618 159.158 101.364C159.013 102.125 158.716 102.763 158.268 103.281C157.826 103.807 157.275 104.178 156.617 104.396C155.958 104.613 155.238 104.648 154.455 104.5C153.867 104.389 153.347 104.191 152.896 103.905C152.444 103.626 152.072 103.277 151.78 102.858C151.487 102.446 151.288 101.985 151.185 101.474C151.082 100.964 151.083 100.43 151.19 99.87ZM152.333 100.075C152.24 100.563 152.281 101.013 152.455 101.424C152.628 101.844 152.909 102.198 153.3 102.487C153.698 102.778 154.181 102.977 154.748 103.084C155.308 103.19 155.815 103.178 156.271 103.049C156.733 102.928 157.114 102.702 157.415 102.373C157.722 102.052 157.922 101.644 158.017 101.149C158.11 100.661 158.073 100.208 157.908 99.7902C157.748 99.3809 157.479 99.0366 157.101 98.757C156.723 98.4775 156.251 98.2842 155.684 98.1771C155.11 98.0687 154.588 98.0742 154.119 98.1937C153.649 98.3204 153.257 98.5436 152.943 98.8634C152.628 99.1904 152.425 99.5942 152.333 100.075Z" fill="#1C2539"/>
<path d="M149.739 105.964C149.823 105.7 149.924 105.452 150.042 105.221C150.154 104.988 150.255 104.825 150.346 104.731L151.433 105.072C151.334 105.194 151.232 105.346 151.129 105.528C151.032 105.712 150.952 105.905 150.889 106.107C150.753 106.539 150.733 106.881 150.829 107.133C150.926 107.385 151.166 107.571 151.549 107.691L157.037 109.412L156.609 110.77L151.058 109.03C150.362 108.811 149.904 108.442 149.685 107.922C149.473 107.404 149.491 106.751 149.739 105.964Z" fill="#1C2539"/>
<path d="M148.254 110.898L155.493 114.032L154.925 115.338L147.687 112.204L148.254 110.898ZM147.984 111.521L149.019 111.969L147.028 116.551L145.992 116.102L147.984 111.521ZM151.201 112.914L152.216 113.354L150.377 117.583L149.362 117.144L151.201 112.914ZM154.186 114.207L155.222 114.655L153.278 119.126L152.243 118.678L154.186 114.207Z" fill="#1C2539"/>
<path d="M143.241 120.843C143.528 120.359 143.878 119.964 144.29 119.656C144.705 119.358 145.159 119.152 145.652 119.037C146.145 118.922 146.654 118.909 147.178 118.999C147.702 119.089 148.219 119.285 148.728 119.586C149.237 119.888 149.653 120.245 149.977 120.658C150.301 121.071 150.529 121.516 150.662 121.993C150.797 122.481 150.83 122.976 150.761 123.478C150.688 123.987 150.506 124.486 150.215 124.976C149.894 125.516 149.498 125.939 149.027 126.246C148.556 126.552 148.044 126.728 147.49 126.774C146.939 126.829 146.384 126.734 145.825 126.487L146.541 125.282C147.095 125.508 147.606 125.535 148.074 125.362C148.548 125.193 148.927 124.87 149.21 124.393C149.46 123.972 149.578 123.546 149.563 123.112C149.549 122.679 149.409 122.265 149.142 121.87C148.882 121.478 148.501 121.133 147.998 120.835C147.483 120.53 146.985 120.353 146.504 120.306C146.028 120.262 145.592 120.339 145.195 120.536C144.797 120.733 144.475 121.039 144.229 121.453C143.953 121.918 143.851 122.397 143.923 122.89C144.002 123.386 144.267 123.827 144.717 124.213L143.995 125.428C143.525 125.048 143.179 124.6 142.957 124.087C142.732 123.58 142.641 123.046 142.685 122.487C142.735 121.931 142.92 121.383 143.241 120.843Z" fill="#1C2539"/>
<path d="M139.24 126.973L144.552 131.153L146.172 129.097L147.059 129.795L142.936 135.026L142.049 134.328L143.67 132.272L138.359 128.092L139.24 126.973Z" fill="#1C2539"/>
<path d="M88 132L81.6588 100.294L63.7999 112.2L75.7058 94.3411L44 88L75.7058 81.6588L63.7999 63.7999L81.6588 75.7059L88 44L94.3411 75.7058L112.2 63.7999L100.294 81.6588L132 88L100.294 94.3412L112.2 112.2L94.3412 100.294L88 132Z" fill="#20282D"/>
</svg>
